M48
METRIC,TZ
T1C0.300
T2C0.500
T3C0.500
T4C0.700
T5C0.750
T6C0.800
T7C0.850
T8C0.900
T9C1.000
T10C1.100
T11C1.200
T12C1.250
T13C2.250
%
G90
G05
T1
X42799Y-125730
X42799Y-133350
X43815Y-128270
X44069Y-184150
X44196Y-120269
X44323Y-135890
X46228Y-113284
X49911Y-142240
X49911Y-198120
X50546Y-195580
X52451Y-193878
X52578Y-156464
X53213Y-162560
X53975Y-106426
X55499Y-128270
X57912Y-107061
X58547Y-174244
X65278Y-127000
X88519Y-200406
X91567Y-160020
X92075Y-186055
X102743Y-188595
X103251Y-142240
X103251Y-162814
X104267Y-186055
X108331Y-156210
X109093Y-110871
X110617Y-110236
X112522Y-110871
X114935Y-162560
X116713Y-112141
X116967Y-186055
X118745Y-112776
X120523Y-121031
X120777Y-149479
X122301Y-139319
X122428Y-117983
X122428Y-126746
X122809Y-106680
X122809Y-124206
X124587Y-113284
X125095Y-98425
X125095Y-102870
X127381Y-115316
X127889Y-162560
X129667Y-186055
X129794Y-113284
X130048Y-115189
X131318Y-155575
X132969Y-113284
X133350Y-155194
X137160Y-134620
X137414Y-128905
X137414Y-136906
X137922Y-131699
X139192Y-115316
X140589Y-162560
X141351Y-182118
X142367Y-186055
X142875Y-114554
X144907Y-115316
X146939Y-115316
X148717Y-115316
X152400Y-124460
X153797Y-162560
X153924Y-155067
X154559Y-180086
X155067Y-186055
X159004Y-155067
X161354Y-137097
X167767Y-186055
X167894Y-139065
X168656Y-144780
X169545Y-123190
X175387Y-114046
X180721Y-188595
X186817Y-163576
X193421Y-197485
X206248Y-182118
X207010Y-185039
X216662Y-193929
X216662Y-201549
X221107Y-185547
X222377Y-201549
X223647Y-204724
X231267Y-203708
X231775Y-191643
X232537Y-184531
X232537Y-193929
X232537Y-196342
X232664Y-199009
X233172Y-181229
X235077Y-178435
X237617Y-117602
X242697Y-203835
X243332Y-170434
X244602Y-167894
X244729Y-160909
X245872Y-169799
X245999Y-201930
X247142Y-186944
X247269Y-163830
X249682Y-200660
X298831Y-103632
X346329Y-98806
T2
X25654Y-182880
X27178Y-134620
X33592Y-133921
X34036Y-172466
X35814Y-177546
X36449Y-180213
X37338Y-168656
X38227Y-124968
X38227Y-128270
X39624Y-141224
X40259Y-138938
X40767Y-157988
X40894Y-110998
X41148Y-117729
X41148Y-119634
X42418Y-108839
X42545Y-123190
X42545Y-171958
X42672Y-144653
X43053Y-116459
X44831Y-108839
X46482Y-103378
X48260Y-160274
X51435Y-106426
X52146Y-197866
X53086Y-203454
X53213Y-160020
X54610Y-176276
X54737Y-123190
X55118Y-202692
X55499Y-171196
X55753Y-173609
X56007Y-119888
X56515Y-105156
X56896Y-203454
X57277Y-197866
X58166Y-168529
X58166Y-171069
X63500Y-188087
X63627Y-190500
X64389Y-199517
X65024Y-197739
X66040Y-120523
X66294Y-132080
X66548Y-137160
X67056Y-196342
X67691Y-139954
X68707Y-134620
X68834Y-128016
X68961Y-172085
X69088Y-157480
X70104Y-199009
X70231Y-131699
X70612Y-144526
X70612Y-147320
X70612Y-150241
X70612Y-154051
X70612Y-175260
X71374Y-121666
X71882Y-124079
X72136Y-116459
X72263Y-110236
X72263Y-135915
X72517Y-138938
X72517Y-189484
X73025Y-112268
X73025Y-114808
X73787Y-186817
X74041Y-194437
X74930Y-176784
X75057Y-199517
X75438Y-145034
X75692Y-172847
X75946Y-174752
X75946Y-191897
X76708Y-142494
X76835Y-139954
X77089Y-149860
X77343Y-188722
X78105Y-117602
X78105Y-133350
X78105Y-183134
X78232Y-178562
X78232Y-180594
X78359Y-198247
X78486Y-167132
X78613Y-152146
X78613Y-154559
X78613Y-164719
X78613Y-169164
X78740Y-161417
X78867Y-129159
X78867Y-136906
X78867Y-157099
X78867Y-159512
X79121Y-124968
X79121Y-172720
X79248Y-147574
X79375Y-175260
X80950Y-197536
X81026Y-194945
X83566Y-119380
X84709Y-110744
X84709Y-181864
X84963Y-158242
X85471Y-149098
X85725Y-131064
X86868Y-136906
X88011Y-115570
X88519Y-152654
X89027Y-146050
X89484Y-197510
X89535Y-169926
X89535Y-172466
X89535Y-175514
X89560Y-194970
X89789Y-115570
X90297Y-163322
X91567Y-167894
X91567Y-175006
X91694Y-140081
X92075Y-103124
X92075Y-163068
X92075Y-165354
X92583Y-144018
X92837Y-127000
X93091Y-122174
X93853Y-118999
X93853Y-134620
X95123Y-125476
X95123Y-130810
X95631Y-141986
X95631Y-155194
X95885Y-120904
X98171Y-147066
X99314Y-98171
X99314Y-113284
X100584Y-96266
X101727Y-152654
X102108Y-113411
X102108Y-120269
X102489Y-125730
X102489Y-201995
X102997Y-138049
X103505Y-129286
X103759Y-183515
X104267Y-155702
X104394Y-122174
X104521Y-113538
X105537Y-146558
X108712Y-97536
X109347Y-121158
X109347Y-128778
X111887Y-152400
X111887Y-157734
X112395Y-119888
X113919Y-168910
X114427Y-192575
X114935Y-166370
X115697Y-201676
X115867Y-190035
X116205Y-183515
X118237Y-150368
X119761Y-117221
X122174Y-141859
X127889Y-146050
X128143Y-180594
X128397Y-183515
X128524Y-143510
X128651Y-155194
X129159Y-152019
X130531Y-147320
X131445Y-119253
X131953Y-149733
X133096Y-116840
X133350Y-119253
X134239Y-149479
X135255Y-146050
X135509Y-98044
X135509Y-105410
X136144Y-152019
X138430Y-111125
X139573Y-97536
X140843Y-110236
X142494Y-111125
X145415Y-105664
X147447Y-108204
X147447Y-120904
X147574Y-129921
X148463Y-157734
X151257Y-112395
X152400Y-127000
X152527Y-183642
X153035Y-158242
X153289Y-137160
X154432Y-152019
X154607Y-165306
X156337Y-155194
X157480Y-127889
X157607Y-152908
X159004Y-141224
X159131Y-134620
X160782Y-143510
X161163Y-131064
X162179Y-109347
X162941Y-122428
X163322Y-113284
X164211Y-109855
X164719Y-103505
X165735Y-170434
X165862Y-175387
X165989Y-172847
X166116Y-109347
X166116Y-155575
X167005Y-168148
X167259Y-165354
X167259Y-201422
X168529Y-112141
X170815Y-139065
X172339Y-156210
X172593Y-141859
X172720Y-178054
X173609Y-152146
X174371Y-158496
X175387Y-133858
X176403Y-122936
X176530Y-120650
X176784Y-150622
X176784Y-163068
X177038Y-116586
X177800Y-108839
X178054Y-141605
X178689Y-96139
X179197Y-102616
X179197Y-111760
X179451Y-185928
X179959Y-174244
X179959Y-201295
X181229Y-161036
X181737Y-141859
X182499Y-177292
X182880Y-135598
X184277Y-161544
X184785Y-138684
X185547Y-142113
X185547Y-172847
X186055Y-156845
X186309Y-122936
X186817Y-149987
X187452Y-172212
X187579Y-134620
X187833Y-130048
X187960Y-146050
X188087Y-127254
X188341Y-99822
X188341Y-102108
X188849Y-104140
X188849Y-141478
X188849Y-155956
X189103Y-114554
X190627Y-164719
X191262Y-94869
X191897Y-137160
X191897Y-154559
X192151Y-192024
X192532Y-152654
X192913Y-195072
X193167Y-150557
X194310Y-171958
X194691Y-119380
X195072Y-162179
X196469Y-175006
X196977Y-107442
X198755Y-106934
X199517Y-111506
X199517Y-127000
X199771Y-154432
X199898Y-133350
X200025Y-130810
X200203Y-168885
X200279Y-156718
X200533Y-135890
X200660Y-149733
X200787Y-138430
X201041Y-107442
X201041Y-119380
X201422Y-204597
X202057Y-153924
X202057Y-155956
X202184Y-170180
X202692Y-146939
X202692Y-200279
X202819Y-168275
X202946Y-97155
X203073Y-187960
X203454Y-202692
X204089Y-104902
X204089Y-152019
X204470Y-113538
X204851Y-103378
X205232Y-204089
X205359Y-97028
X205359Y-101219
X205359Y-108458
X205613Y-133096
X205613Y-135890
X205867Y-99314
X206121Y-191516
X206248Y-155194
X206629Y-199009
X206883Y-142621
X207264Y-129921
X207518Y-144526
X207645Y-139224
X207899Y-149479
X208407Y-162179
X208534Y-113919
X208534Y-119380
X208661Y-190119
X208915Y-145796
X208915Y-178689
X209042Y-109474
X209042Y-176149
X209042Y-204724
X209169Y-158750
X209423Y-154686
X213995Y-162560
X214815Y-139134
X216027Y-129540
X216027Y-140970
X216027Y-145796
X216662Y-191389
X216662Y-199009
X217297Y-118110
X217297Y-174879
X219329Y-177165
X219710Y-154178
X219710Y-174879
X219837Y-148336
X219837Y-181737
X219837Y-184150
X221996Y-195199
X222377Y-117602
X223647Y-110490
X223901Y-179959
X223901Y-197739
X224536Y-192659
X225552Y-116713
X225552Y-152400
X225552Y-161290
X225933Y-144526
X226060Y-105664
X226060Y-159385
X226187Y-131064
X226187Y-150114
X227330Y-99949
X227965Y-172339
X229870Y-165100
X230505Y-136525
X231140Y-187325
X231267Y-175260
X231521Y-98806
X232537Y-188849
X232537Y-201803
X233045Y-151765
X233045Y-161925
X233680Y-172085
X234569Y-114935
X235077Y-92964
X235204Y-148336
X235712Y-139065
X236294Y-115873
X236601Y-132334
X236982Y-126746
X237617Y-120396
X237744Y-146685
X238481Y-133350
X238633Y-113792
X238760Y-142875
X239017Y-135890
X239649Y-125476
X240157Y-120015
X240411Y-148590
X240792Y-201930
X240919Y-130302
X241554Y-182880
X242189Y-96266
X242189Y-142240
X242824Y-121920
X242951Y-124460
X243459Y-120015
X243459Y-136652
X243459Y-197739
X244475Y-165989
X244729Y-131953
X245237Y-158369
X245237Y-203454
X245999Y-121920
X245999Y-138684
X246634Y-188849
X246761Y-95504
X246761Y-148844
X247142Y-181483
X247142Y-191008
X247269Y-123444
X247269Y-184785
X247904Y-135255
X247904Y-192659
X248539Y-127254
X248539Y-195580
X249047Y-198120
X249809Y-143002
X250571Y-114859
X250825Y-112522
X250825Y-120396
X251079Y-126746
X251587Y-129794
X252095Y-139446
X252349Y-136779
X252603Y-143452
X253111Y-95250
X254254Y-146812
X254381Y-141224
X254762Y-128270
X254889Y-135128
X255905Y-124460
X256032Y-138684
X256032Y-159639
X257302Y-129921
X257810Y-102489
X261747Y-174244
X262255Y-150622
X263017Y-144272
X263017Y-148844
X263017Y-152908
X264287Y-125476
X264287Y-175514
X264795Y-131064
X264795Y-139446
X264795Y-151130
X264795Y-186690
X265557Y-154940
X266827Y-178689
X269240Y-186690
X269367Y-177419
X270383Y-139954
X271907Y-177419
X272415Y-186944
X273177Y-125984
X273177Y-143510
X273177Y-149098
X273685Y-131064
X274447Y-136144
X274447Y-173609
X275463Y-125222
X275717Y-151130
X275717Y-153924
X277495Y-128016
X277749Y-124460
X277749Y-131572
X278257Y-153924
X278765Y-145542
X278765Y-151130
X278765Y-187071
X279019Y-157480
X279527Y-137414
X280162Y-174244
X280289Y-148336
X280543Y-131572
X280797Y-134874
X281051Y-128016
X281305Y-186817
X282829Y-173609
X284607Y-112649
X286639Y-123952
X288417Y-151384
X288417Y-159766
X289052Y-188849
X290449Y-127762
X290703Y-158242
X290957Y-129540
X290957Y-133604
X290957Y-144018
X292100Y-185039
X292227Y-156210
X292989Y-126238
X293497Y-96012
X293751Y-138684
X293802Y-146456
X294513Y-128270
X294767Y-136398
X294767Y-189865
X295021Y-112268
X295148Y-114300
X295148Y-116840
X295148Y-119253
X295148Y-121412
X295275Y-123952
X296545Y-105156
X296545Y-127254
X297307Y-154432
X298069Y-157480
X299847Y-172085
X301117Y-140462
X301619Y-112770
X301625Y-110236
X301746Y-122930
X302260Y-195326
X302387Y-172085
X303657Y-188214
X304165Y-156845
X304419Y-128441
X304800Y-108331
X305562Y-117094
X306705Y-119126
X306705Y-136144
X306959Y-133350
X307594Y-113157
X307975Y-188722
X308737Y-178054
X310769Y-151765
X311277Y-134112
X313182Y-178054
X313309Y-119380
X313309Y-126492
X313944Y-108712
X314579Y-170688
X314579Y-175260
X315722Y-191262
X317017Y-119380
X317119Y-172466
X319075Y-95910
X319151Y-125730
X320167Y-154940
X320294Y-192532
X320929Y-128270
X320929Y-136652
X321945Y-118872
X322199Y-125222
X324231Y-117690
X324231Y-125730
X325247Y-107950
X326517Y-110236
X326517Y-135128
X328295Y-128270
X328549Y-135890
X330327Y-135128
X331597Y-116078
X332105Y-140208
X336423Y-137414
X337185Y-174371
X339115Y-123292
X339217Y-141224
X339725Y-175641
X340233Y-186817
X342265Y-133604
X342265Y-178816
X342519Y-153924
X343535Y-96774
X343535Y-118110
X344297Y-120650
X344297Y-136652
X344678Y-186817
X344805Y-177546
X345567Y-153924
X346202Y-115951
X346837Y-137414
X347091Y-120904
X347345Y-177546
X347853Y-187071
X348107Y-103124
X348107Y-127000
X348107Y-129286
X348107Y-145542
X349377Y-138684
X349885Y-173736
X350139Y-142748
X350139Y-146558
X351282Y-127889
X351663Y-120904
X352679Y-155956
X354203Y-187198
X355600Y-174371
X356743Y-186944
X357124Y-113792
X357759Y-134112
X358267Y-173736
X358902Y-111506
X360045Y-139192
X360172Y-116332
X360807Y-126492
X361340Y-95758
X361442Y-159385
X361569Y-143510
X362585Y-132334
X362585Y-136144
X362705Y-146424
X362839Y-141732
X363347Y-103118
X363855Y-119761
X363855Y-138684
X364490Y-188976
X364617Y-123825
X365245Y-156838
X366649Y-123952
X367157Y-131572
X367538Y-185166
X368935Y-155702
X369697Y-132080
X369697Y-145288
X370205Y-143510
X370205Y-189992
X371729Y-155702
X372745Y-132080
X372745Y-134620
X372745Y-143002
X375285Y-172212
X375539Y-132715
X376174Y-113538
X377698Y-195326
X377825Y-172212
X378587Y-141478
X379095Y-145034
X379095Y-188341
X379857Y-131318
X383413Y-188849
X384175Y-178181
X384683Y-95250
X387477Y-117856
X388620Y-178181
X390017Y-170815
X390017Y-175387
X391160Y-191389
X392557Y-172593
X395732Y-192659
T3
X216027Y-134698
X216027Y-136398
T4
X111760Y-107188
X228067Y-102514
X229235Y-106172
X249555Y-110744
X296545Y-102616
X303911Y-146304
X327025Y-141986
X328549Y-101600
X335407Y-115824
X336677Y-112014
X353441Y-128016
X355219Y-112014
X356667Y-94640
X357759Y-121920
X364617Y-143510
X371475Y-130175
T5
X154305Y-112776
X156845Y-115316
X159385Y-112776
X198755Y-187579
X198755Y-190119
X198755Y-192659
X198755Y-195199
X198755Y-197739
X198755Y-200279
X198755Y-202819
X211455Y-187579
X211455Y-190119
X211455Y-192659
X211455Y-195199
X211455Y-197739
X211455Y-200279
X211455Y-202819
X214757Y-179959
X214757Y-182499
X214757Y-185039
X227457Y-179959
X227457Y-182499
X227457Y-185039
X234696Y-190754
X234696Y-203454
X301625Y-127254
X302387Y-137160
X302387Y-142240
X304165Y-124714
X304927Y-139700
X306197Y-184650
X306197Y-194810
X306705Y-127254
X313817Y-149860
X318389Y-143002
X320167Y-132334
X320167Y-184404
X320167Y-194564
X320929Y-145542
X322707Y-134874
X323469Y-143002
X325247Y-132334
X326517Y-149860
X327025Y-144526
X329565Y-141986
X329565Y-147066
X329692Y-156591
X330327Y-131318
X332105Y-145034
X332867Y-128778
X334645Y-142494
X334645Y-147574
X335407Y-131318
X342392Y-156591
X354457Y-151384
X355219Y-133604
X355219Y-146812
X356997Y-148844
X359029Y-106934
X359537Y-151384
X361569Y-104394
X364109Y-106934
X365125Y-94488
X367665Y-97028
X367919Y-133604
X367919Y-146812
X370205Y-94488
X381635Y-184531
X381635Y-194691
X395605Y-184531
X395605Y-194691
T6
X40005Y-102870
X40005Y-115570
X40640Y-188849
X40640Y-201549
X42545Y-165100
X42545Y-177800
X43180Y-188849
X43180Y-201549
X45720Y-119380
X45720Y-121920
X45720Y-124460
X45720Y-127000
X45720Y-129540
X45720Y-132080
X45720Y-134620
X45720Y-137160
X45720Y-142240
X45720Y-144780
X45720Y-147320
X45720Y-149860
X45720Y-152400
X45720Y-154940
X45720Y-157480
X45720Y-160020
X45720Y-162560
X45720Y-165100
X45720Y-167640
X45720Y-170180
X45720Y-172720
X45720Y-175260
X45720Y-177800
X45720Y-180340
X45720Y-182880
X45720Y-185420
X45720Y-187960
X45720Y-190500
X45720Y-193040
X45720Y-195580
X45720Y-198120
X45720Y-200660
X58420Y-119380
X58420Y-121920
X58420Y-124460
X58420Y-127000
X58420Y-129540
X58420Y-132080
X58420Y-134620
X58420Y-137160
X60960Y-142240
X60960Y-144780
X60960Y-147320
X60960Y-149860
X60960Y-152400
X60960Y-154940
X60960Y-157480
X60960Y-160020
X60960Y-162560
X60960Y-165100
X60960Y-167640
X60960Y-170180
X60960Y-172720
X60960Y-175260
X60960Y-177800
X60960Y-180340
X60960Y-182880
X60960Y-185420
X60960Y-187960
X60960Y-190500
X60960Y-193040
X60960Y-195580
X60960Y-198120
X60960Y-200660
X62484Y-129540
X62484Y-131953
X62611Y-119380
X62611Y-121920
X62611Y-124460
X62611Y-127000
X62611Y-134620
X62611Y-137160
X66167Y-142240
X66167Y-144780
X66167Y-147320
X66167Y-149860
X66167Y-152400
X66167Y-154940
X66167Y-157480
X66167Y-160020
X66167Y-162560
X66167Y-165100
X66167Y-167640
X66167Y-170180
X66167Y-172720
X66167Y-175260
X66167Y-177800
X66167Y-180340
X66167Y-182880
X66167Y-185420
X66167Y-187960
X66167Y-190500
X67310Y-203200
X75184Y-129540
X75184Y-131953
X75311Y-119380
X75311Y-121920
X75311Y-124460
X75311Y-127000
X75311Y-134620
X75311Y-137160
X80010Y-203200
X81407Y-142240
X81407Y-144780
X81407Y-147320
X81407Y-149860
X81407Y-152400
X81407Y-154940
X81407Y-157480
X81407Y-160020
X81407Y-162560
X81407Y-165100
X81407Y-167640
X81407Y-170180
X81407Y-172720
X81407Y-175260
X81407Y-177800
X81407Y-180340
X81407Y-182880
X81407Y-185420
X81407Y-187960
X81407Y-190500
X81534Y-119380
X81534Y-121920
X81534Y-124460
X81534Y-127000
X81534Y-129540
X81534Y-132080
X81534Y-134620
X81534Y-137160
X83820Y-165735
X83820Y-178435
X83947Y-188976
X83947Y-201676
X84201Y-142748
X84201Y-155448
X86487Y-160020
X86487Y-162560
X86487Y-165100
X86487Y-167640
X86487Y-170180
X86487Y-172720
X86487Y-175260
X86487Y-177800
X86487Y-183515
X86487Y-186055
X86487Y-188595
X86487Y-191135
X86487Y-193675
X86487Y-196215
X86487Y-198755
X86487Y-201295
X86995Y-142748
X86995Y-155448
X89154Y-119380
X89154Y-121920
X89154Y-124460
X89154Y-127000
X89154Y-129540
X89154Y-132080
X89154Y-134620
X89154Y-137160
X91567Y-119380
X91567Y-132080
X94107Y-160020
X94107Y-162560
X94107Y-165100
X94107Y-167640
X94107Y-170180
X94107Y-172720
X94107Y-175260
X94107Y-177800
X94107Y-183515
X94107Y-186055
X94107Y-188595
X94107Y-191135
X94107Y-193675
X94107Y-196215
X94107Y-198755
X94107Y-201295
X95450Y-148209
X96647Y-165100
X96647Y-177800
X96647Y-188595
X96647Y-201295
X99060Y-124460
X99060Y-127000
X99060Y-129540
X99060Y-132080
X99060Y-134620
X99060Y-137160
X99060Y-139700
X99060Y-142240
X99187Y-160020
X99187Y-162560
X99187Y-165100
X99187Y-167640
X99187Y-170180
X99187Y-172720
X99187Y-175260
X99187Y-177800
X99187Y-183515
X99187Y-186055
X99187Y-188595
X99187Y-191135
X99187Y-193675
X99187Y-196215
X99187Y-198755
X99187Y-201295
X100330Y-148209
X106680Y-124460
X106680Y-127000
X106680Y-129540
X106680Y-132080
X106680Y-134620
X106680Y-137160
X106680Y-139700
X106680Y-142240
X106807Y-160020
X106807Y-162560
X106807Y-165100
X106807Y-167640
X106807Y-170180
X106807Y-172720
X106807Y-175260
X106807Y-177800
X106807Y-183515
X106807Y-186055
X106807Y-188595
X106807Y-191135
X106807Y-193675
X106807Y-196215
X106807Y-198755
X106807Y-201295
X109347Y-118491
X109347Y-131191
X109347Y-165100
X109347Y-177800
X109347Y-188595
X109347Y-201295
X111760Y-124460
X111760Y-127000
X111760Y-129540
X111760Y-132080
X111760Y-134620
X111760Y-137160
X111760Y-139700
X111760Y-142240
X111760Y-144780
X111760Y-147320
X111887Y-160020
X111887Y-162560
X111887Y-165100
X111887Y-167640
X111887Y-170180
X111887Y-172720
X111887Y-175260
X111887Y-177800
X111887Y-183515
X111887Y-186055
X111887Y-188595
X111887Y-191135
X111887Y-193675
X111887Y-196215
X111887Y-198755
X111887Y-201295
X119380Y-124460
X119380Y-127000
X119380Y-129540
X119380Y-132080
X119380Y-134620
X119380Y-137160
X119380Y-139700
X119380Y-142240
X119380Y-144780
X119380Y-147320
X119507Y-160020
X119507Y-162560
X119507Y-165100
X119507Y-167640
X119507Y-170180
X119507Y-172720
X119507Y-175260
X119507Y-177800
X119507Y-183515
X119507Y-186055
X119507Y-188595
X119507Y-191135
X119507Y-193675
X119507Y-196215
X119507Y-198755
X119507Y-201295
X122047Y-165100
X122047Y-177800
X122047Y-188595
X122047Y-201295
X124587Y-160020
X124587Y-162560
X124587Y-165100
X124587Y-167640
X124587Y-170180
X124587Y-172720
X124587Y-175260
X124587Y-177800
X124587Y-183515
X124587Y-186055
X124587Y-188595
X124587Y-191135
X124587Y-193675
X124587Y-196215
X124587Y-198755
X124587Y-201295
X124968Y-119380
X124968Y-121920
X124968Y-124460
X124968Y-127000
X124968Y-129540
X124968Y-132080
X124968Y-134620
X124968Y-137160
X124968Y-139700
X124968Y-142240
X124968Y-144780
X124968Y-147320
X124968Y-149860
X124968Y-152400
X132207Y-160020
X132207Y-162560
X132207Y-165100
X132207Y-167640
X132207Y-170180
X132207Y-172720
X132207Y-175260
X132207Y-177800
X132207Y-183515
X132207Y-186055
X132207Y-188595
X132207Y-191135
X132207Y-193675
X132207Y-196215
X132207Y-198755
X132207Y-201295
X134747Y-165100
X134747Y-177800
X134747Y-188595
X134747Y-201295
X137287Y-160020
X137287Y-162560
X137287Y-165100
X137287Y-167640
X137287Y-170180
X137287Y-172720
X137287Y-175260
X137287Y-177800
X137287Y-183515
X137287Y-186055
X137287Y-188595
X137287Y-191135
X137287Y-193675
X137287Y-196215
X137287Y-198755
X137287Y-201295
X140208Y-119380
X140208Y-121920
X140208Y-124460
X140208Y-127000
X140208Y-129540
X140208Y-132080
X140208Y-134620
X140208Y-137160
X140208Y-139700
X140208Y-142240
X140208Y-144780
X140208Y-147320
X140208Y-149860
X140208Y-152400
X142621Y-118110
X142621Y-130810
X144907Y-160020
X144907Y-162560
X144907Y-165100
X144907Y-167640
X144907Y-170180
X144907Y-172720
X144907Y-175260
X144907Y-177800
X144907Y-183515
X144907Y-186055
X144907Y-188595
X144907Y-191135
X144907Y-193675
X144907Y-196215
X144907Y-198755
X144907Y-201295
X147447Y-165100
X147447Y-177800
X147447Y-188595
X147447Y-201295
X149987Y-160020
X149987Y-162560
X149987Y-165100
X149987Y-167640
X149987Y-170180
X149987Y-172720
X149987Y-175260
X149987Y-177800
X149987Y-183515
X149987Y-186055
X149987Y-188595
X149987Y-191135
X149987Y-193675
X149987Y-196215
X149987Y-198755
X149987Y-201295
X150495Y-119380
X150495Y-121920
X150495Y-124460
X150495Y-127000
X150495Y-129540
X150495Y-132080
X150495Y-134620
X150495Y-137160
X150495Y-139700
X150495Y-142240
X150495Y-144780
X150495Y-147320
X150495Y-149860
X150495Y-152400
X157480Y-109220
X157607Y-160020
X157607Y-162560
X157607Y-165100
X157607Y-167640
X157607Y-170180
X157607Y-172720
X157607Y-175260
X157607Y-177800
X157607Y-183515
X157607Y-186055
X157607Y-188595
X157607Y-191135
X157607Y-193675
X157607Y-196215
X157607Y-198755
X157607Y-201295
X160147Y-165100
X160147Y-177800
X160147Y-188595
X160147Y-201295
X162687Y-160020
X162687Y-162560
X162687Y-165100
X162687Y-167640
X162687Y-170180
X162687Y-172720
X162687Y-175260
X162687Y-177800
X162687Y-183515
X162687Y-186055
X162687Y-188595
X162687Y-191135
X162687Y-193675
X162687Y-196215
X162687Y-198755
X162687Y-201295
X165735Y-119380
X165735Y-121920
X165735Y-124460
X165735Y-127000
X165735Y-129540
X165735Y-132080
X165735Y-134620
X165735Y-137160
X165735Y-139700
X165735Y-142240
X165735Y-144780
X165735Y-147320
X165735Y-149860
X165735Y-152400
X168275Y-118364
X168275Y-131064
X168910Y-151765
X168910Y-154305
X170180Y-109220
X170307Y-160020
X170307Y-162560
X170307Y-165100
X170307Y-167640
X170307Y-170180
X170307Y-172720
X170307Y-175260
X170307Y-177800
X170307Y-183515
X170307Y-186055
X170307Y-188595
X170307Y-191135
X170307Y-193675
X170307Y-196215
X170307Y-198755
X170307Y-201295
X171577Y-114300
X171577Y-116840
X171577Y-119380
X171577Y-121920
X171577Y-124460
X171577Y-127000
X171577Y-129540
X171577Y-132080
X171577Y-134620
X171577Y-137160
X172847Y-188595
X172847Y-201295
X175387Y-183515
X175387Y-186055
X175387Y-188595
X175387Y-191135
X175387Y-193675
X175387Y-196215
X175387Y-198755
X175387Y-201295
X176911Y-177419
X176911Y-179959
X179197Y-114300
X179197Y-116840
X179197Y-119380
X179197Y-121920
X179197Y-124460
X179197Y-127000
X179197Y-129540
X179197Y-132080
X179197Y-134620
X179197Y-137160
X181610Y-118745
X181610Y-131445
X181610Y-151765
X181610Y-154305
X183007Y-183515
X183007Y-186055
X183007Y-188595
X183007Y-191135
X183007Y-193675
X183007Y-196215
X183007Y-198755
X183007Y-201295
X184150Y-114300
X184150Y-116840
X184150Y-119380
X184150Y-121920
X184150Y-124460
X184150Y-127000
X184150Y-129540
X185420Y-188595
X185420Y-201295
X187833Y-183515
X187833Y-186055
X187833Y-188595
X187833Y-191135
X187833Y-193675
X187833Y-196215
X187833Y-198755
X187833Y-201295
X189611Y-177419
X189611Y-179959
X191770Y-114300
X191770Y-116840
X191770Y-119380
X191770Y-121920
X191770Y-124460
X191770Y-127000
X191770Y-129540
X195453Y-183515
X195453Y-186055
X195453Y-188595
X195453Y-191135
X195453Y-193675
X195453Y-196215
X195453Y-198755
X195453Y-201295
X196977Y-111760
X196977Y-114300
X196977Y-116840
X196977Y-119380
X196977Y-121920
X196977Y-124460
X196977Y-127000
X196977Y-129540
X196977Y-132080
X196977Y-134620
X196977Y-137160
X196977Y-139700
X196977Y-142240
X196977Y-144780
X196977Y-147320
X196977Y-149860
X196977Y-152400
X196977Y-154940
X196977Y-157480
X196977Y-160020
X198755Y-174879
X198755Y-177419
X198755Y-179959
X198755Y-182499
X198755Y-185039
X211455Y-174879
X211455Y-177419
X211455Y-179959
X211455Y-182499
X211455Y-185039
X212217Y-111760
X212217Y-114300
X212217Y-116840
X212217Y-119380
X212217Y-121920
X212217Y-124460
X212217Y-127000
X212217Y-129540
X212217Y-132080
X212217Y-134620
X212217Y-137160
X212217Y-139700
X212217Y-142240
X212217Y-144780
X212217Y-147320
X212217Y-149860
X212217Y-152400
X212217Y-154940
X212217Y-157480
X212217Y-160020
X214503Y-95377
X214503Y-108077
X214630Y-111760
X214630Y-124460
X214757Y-174879
X214757Y-177419
X214757Y-187579
X214757Y-190119
X214757Y-192659
X214757Y-195199
X214757Y-197739
X214757Y-200279
X214757Y-202819
X217043Y-95377
X217043Y-108077
X217170Y-111760
X217170Y-124460
X218567Y-152273
X218567Y-157153
X219583Y-95377
X219583Y-108077
X219710Y-111760
X219710Y-124460
X220218Y-128651
X220218Y-131191
X220218Y-133731
X220345Y-136144
X220345Y-138938
X222250Y-99568
X222377Y-96647
X223012Y-144780
X223012Y-147320
X223012Y-149860
X223012Y-152400
X223012Y-154940
X223012Y-157480
X223012Y-160020
X227457Y-174879
X227457Y-177419
X227457Y-187579
X227457Y-190119
X227457Y-192659
X227457Y-195199
X227457Y-197739
X227457Y-200279
X227457Y-202819
X230632Y-144780
X230632Y-147320
X230632Y-149860
X230632Y-152400
X230632Y-154940
X230632Y-157480
X230632Y-160020
X232918Y-128651
X232918Y-131191
X232918Y-133731
X233045Y-136144
X233045Y-138938
X233045Y-144780
X233045Y-157480
X234442Y-175260
X234442Y-187960
X234950Y-99568
X235077Y-96647
X237617Y-97536
X237617Y-155194
X237617Y-157734
X237617Y-160274
X237617Y-162814
X237617Y-165354
X237617Y-167894
X237617Y-170434
X237617Y-172974
X237617Y-175514
X237617Y-178054
X237617Y-180594
X237617Y-183134
X237617Y-185674
X237617Y-188214
X237617Y-190754
X237617Y-193294
X237617Y-195834
X237617Y-198374
X237617Y-200914
X237617Y-203454
X237744Y-94996
X244094Y-146304
X247777Y-100076
X247777Y-108966
X247777Y-119126
X249174Y-125095
X250317Y-97536
X250444Y-94996
X252857Y-155194
X252857Y-157734
X252857Y-160274
X252857Y-162814
X252857Y-165354
X252857Y-167894
X252857Y-170434
X252857Y-172974
X252857Y-175514
X252857Y-178054
X252857Y-180594
X252857Y-183134
X252857Y-185674
X252857Y-188214
X252857Y-190754
X252857Y-193294
X252857Y-195834
X252857Y-198374
X252857Y-200914
X252857Y-203454
X256794Y-146304
X259715Y-128524
X259715Y-131064
X259715Y-133604
X259715Y-136144
X259715Y-138684
X259715Y-141224
X259715Y-143764
X259715Y-146304
X259715Y-148844
X259715Y-151384
X260477Y-184658
X261747Y-166624
X261747Y-181864
X261874Y-125095
X264287Y-166624
X264287Y-181864
X266827Y-166624
X266827Y-181864
X267335Y-128524
X267335Y-131064
X267335Y-133604
X267335Y-136144
X267335Y-138684
X267335Y-141224
X267335Y-143764
X267335Y-146304
X267335Y-148844
X267335Y-151384
X269367Y-166624
X269367Y-181864
X270637Y-124714
X270637Y-127254
X270637Y-129674
X270637Y-132214
X270637Y-134874
X270637Y-137414
X270637Y-143764
X270637Y-146304
X270637Y-148844
X270637Y-151384
X271907Y-166624
X271907Y-181864
X272480Y-193802
X273177Y-184658
X274447Y-166624
X274447Y-181864
X274647Y-140716
X276987Y-166624
X276987Y-181864
X279527Y-140716
X279527Y-166624
X279527Y-181864
X282067Y-166624
X282067Y-181864
X283337Y-124714
X283337Y-127254
X283337Y-129674
X283337Y-132214
X283337Y-134874
X283337Y-137414
X283337Y-143764
X283337Y-146304
X283337Y-148844
X283337Y-151384
X284607Y-166624
X284607Y-181864
X285434Y-193802
X286385Y-125984
X286385Y-128524
X286385Y-131064
X286385Y-133604
X286385Y-136144
X286385Y-138684
X286385Y-141224
X286385Y-143764
X286385Y-146355
X287147Y-166624
X287147Y-181864
X288417Y-154432
X288417Y-156972
X289687Y-166624
X289687Y-181864
X289687Y-184658
X293497Y-167386
X293497Y-169672
X293497Y-178308
X296672Y-172466
X297561Y-112770
X297585Y-110230
X297585Y-115310
X297585Y-117850
X297585Y-120390
X297585Y-122930
X299085Y-125984
X299085Y-128524
X299085Y-131064
X299085Y-133604
X299085Y-136144
X299085Y-138684
X299085Y-141224
X299085Y-143764
X299085Y-146355
X301117Y-154432
X301117Y-156972
X302387Y-133706
X302641Y-184658
X306197Y-167386
X306197Y-169672
X306197Y-178308
X308269Y-138684
X309372Y-172466
X310007Y-184404
X310007Y-194564
X310261Y-112770
X310285Y-110230
X310285Y-115310
X310285Y-117850
X310285Y-120390
X310285Y-122930
X310769Y-138684
X312039Y-167386
X312039Y-180086
X312547Y-184404
X312547Y-194564
X313817Y-147320
X313817Y-152400
X313817Y-152400
X313817Y-157099
X314579Y-167386
X314579Y-180086
X315087Y-133706
X315087Y-184404
X315087Y-194564
X316397Y-138176
X316865Y-127762
X316865Y-130262
X317119Y-167386
X317119Y-180086
X317627Y-184404
X317627Y-194564
X318897Y-138176
X319659Y-167386
X319659Y-180086
X322707Y-191262
X322707Y-193262
X322707Y-195262
X323215Y-93472
X323215Y-106045
X326517Y-147320
X326517Y-152400
X326517Y-152400
X326517Y-157099
X335915Y-184785
X337185Y-166751
X337185Y-181991
X338963Y-115570
X338963Y-118364
X339217Y-136144
X339217Y-138684
X339344Y-133604
X339725Y-166751
X339725Y-181991
X342265Y-166751
X342265Y-181991
X344805Y-94488
X344805Y-107061
X344805Y-166751
X344805Y-181991
X345567Y-156591
X347345Y-166751
X347345Y-181991
X347980Y-193929
X348107Y-94488
X348107Y-107188
X348615Y-184785
X349885Y-166751
X349885Y-181991
X351663Y-115570
X351663Y-118364
X351917Y-136144
X351917Y-138684
X352044Y-133604
X352425Y-166751
X352425Y-181991
X354965Y-166751
X354965Y-181991
X355219Y-136144
X355219Y-138684
X355219Y-141224
X355219Y-144018
X356235Y-105156
X356235Y-117856
X356402Y-129286
X357505Y-166751
X357505Y-181991
X358267Y-156591
X358902Y-129286
X360045Y-166751
X360045Y-181991
X360934Y-193929
X361315Y-156464
X361442Y-153924
X361442Y-153924
X362585Y-166751
X362585Y-181991
X364490Y-128208
X364490Y-130708
X365125Y-166751
X365125Y-181991
X365125Y-184785
X367919Y-136144
X367919Y-138684
X367919Y-141224
X367919Y-144018
X368935Y-167513
X368935Y-169799
X368935Y-178435
X372110Y-172593
X373166Y-121793
X373420Y-127889
X374015Y-156464
X374142Y-153924
X374142Y-153924
X375031Y-105664
X375666Y-121793
X375920Y-127889
X378079Y-184785
X381635Y-167513
X381635Y-169799
X381635Y-178435
X384810Y-172593
X385445Y-184531
X385445Y-194691
X387477Y-167513
X387477Y-180213
X387731Y-105664
X387985Y-184531
X387985Y-194691
X389890Y-167513
X389890Y-180213
X390525Y-184531
X390525Y-194691
X392303Y-167513
X392303Y-180213
X393065Y-184531
X393065Y-194691
X395097Y-167513
X395097Y-180213
X398145Y-191453
X398145Y-193453
X398145Y-195453
T7
X296545Y-92964
X296545Y-107950
X354697Y-121920
X369697Y-121920
T8
X36195Y-94615
X36195Y-97155
X240411Y-151384
X242951Y-151384
X248158Y-151257
X250698Y-151257
T9
X28575Y-118110
X28575Y-120650
X28575Y-123190
X28575Y-125730
X28575Y-128270
X28575Y-130810
X28575Y-133350
X28575Y-135890
X28575Y-138430
X28575Y-140970
X28575Y-143510
X28575Y-146050
X28575Y-148590
X28575Y-151130
X28575Y-153670
X28575Y-156210
X28575Y-158750
X28575Y-161290
X28575Y-163830
X28575Y-166370
X28575Y-168910
X28575Y-171450
X28575Y-173990
X28575Y-176530
X28575Y-179070
X28575Y-181610
X28575Y-184150
X28575Y-186690
X28575Y-189230
X28575Y-191770
X28575Y-194310
X28575Y-196850
X31115Y-118110
X31115Y-120650
X31115Y-123190
X31115Y-125730
X31115Y-128270
X31115Y-130810
X31115Y-133350
X31115Y-135890
X31115Y-138430
X31115Y-140970
X31115Y-143510
X31115Y-146050
X31115Y-148590
X31115Y-151130
X31115Y-153670
X31115Y-156210
X31115Y-158750
X31115Y-161290
X31115Y-163830
X31115Y-166370
X31115Y-168910
X31115Y-171450
X31115Y-173990
X31115Y-176530
X31115Y-179070
X31115Y-181610
X31115Y-184150
X31115Y-186690
X31115Y-189230
X31115Y-191770
X31115Y-194310
X31115Y-196850
X50165Y-112305
X50165Y-114845
X52705Y-112305
X52705Y-114845
X55245Y-112305
X55245Y-114845
X57785Y-112305
X57785Y-114845
X60325Y-112305
X60325Y-114845
X62865Y-112305
X62865Y-114845
X65405Y-112305
X65405Y-114845
X67945Y-112305
X67945Y-114845
X70485Y-112305
X70485Y-114845
X75565Y-112305
X75565Y-114845
X78105Y-112305
X78105Y-114845
X80645Y-112305
X80645Y-114845
X83185Y-112305
X83185Y-114845
X85725Y-112305
X85725Y-114845
X114173Y-101600
X115697Y-97790
X117221Y-101600
X118745Y-97790
X120269Y-101600
X121793Y-97790
X141351Y-101600
X142875Y-97790
X144399Y-101600
X145923Y-97790
X147447Y-101600
X148971Y-97790
X165989Y-101600
X167513Y-97790
X169037Y-101600
X170561Y-97790
X172085Y-101600
X173355Y-109220
X173609Y-97790
X177292Y-167580
X177292Y-170120
X179832Y-167580
X179832Y-170120
X182372Y-167580
X182372Y-170120
X184912Y-167580
X184912Y-170120
X187452Y-167580
X187452Y-170120
X189992Y-167580
X189992Y-170120
X192532Y-167580
X192532Y-170120
X192913Y-101600
X193675Y-109220
X194437Y-97790
X195072Y-167580
X195072Y-170120
X195961Y-101600
X197485Y-97790
X197612Y-167580
X197612Y-170120
X199009Y-101600
X200533Y-97790
X206375Y-167640
X206375Y-170180
X208915Y-167640
X208915Y-170180
X211455Y-167640
X211455Y-170180
X213995Y-167640
X213995Y-170180
X216535Y-167640
X216535Y-170180
X219075Y-167640
X219075Y-170180
X221615Y-167640
X221615Y-170180
X224155Y-167640
X224155Y-170180
X226695Y-167640
X226695Y-170180
X229235Y-167640
X229235Y-170180
X229743Y-109982
X229743Y-112522
X229743Y-115316
X229743Y-117856
X229743Y-120523
X229743Y-123063
X231775Y-167640
X231775Y-170180
X236398Y-108814
X236398Y-129134
X236398Y-141986
X236474Y-135948
X243459Y-108839
X243459Y-129159
X256718Y-141986
X256794Y-135948
X276225Y-184404
X286225Y-184404
X291211Y-148844
X291211Y-151384
X293497Y-175006
X293497Y-181356
X293751Y-148844
X293751Y-151384
X296037Y-175006
X296037Y-181356
X296291Y-148844
X296291Y-151384
X298577Y-175006
X298577Y-181356
X298831Y-148844
X298831Y-151384
X301117Y-175006
X301117Y-181356
X301371Y-148844
X301371Y-151384
X303055Y-106666
X303102Y-101459
X303657Y-175006
X303657Y-181356
X303911Y-148844
X303911Y-151384
X305388Y-103999
X306197Y-175006
X306197Y-181356
X306451Y-148844
X306451Y-151384
X308055Y-93585
X308737Y-175006
X308737Y-181356
X309245Y-167335
X309245Y-169875
X310555Y-106666
X310595Y-101459
X313055Y-93585
X315548Y-103999
X317961Y-101459
X318055Y-106666
X326568Y-104445
X326568Y-129845
X331089Y-94570
X333629Y-94570
X334645Y-122428
X334645Y-124968
X336169Y-94570
X341503Y-148336
X346503Y-148336
X351696Y-184531
X361696Y-184531
X363855Y-148844
X363855Y-151384
X366395Y-148844
X366395Y-151384
X368935Y-148844
X368935Y-151384
X368935Y-175006
X368935Y-181483
X371475Y-148844
X371475Y-151384
X371475Y-175006
X371475Y-181483
X374015Y-148844
X374015Y-151384
X374015Y-175006
X374015Y-181483
X376555Y-148844
X376555Y-151384
X376555Y-175006
X376555Y-181483
X379095Y-148844
X379095Y-151384
X379095Y-175006
X379095Y-181483
X381635Y-175006
X381635Y-181483
X384175Y-175006
X384175Y-181483
X384683Y-167488
X384683Y-170028
T10
X276225Y-190683
X278765Y-190683
X281305Y-190683
X340741Y-112014
X343281Y-112014
X345821Y-112014
X351663Y-190810
X354203Y-190810
X356743Y-190810
T11
X254127Y-108966
X290449Y-191516
X290449Y-191516
X290449Y-194056
X290449Y-194056
X291719Y-192786
X291719Y-192786
X291719Y-195199
X291719Y-195199
X293497Y-108966
X297053Y-192024
X297053Y-195326
X366141Y-192024
X366141Y-192024
X366141Y-194564
X366141Y-194564
X367411Y-193294
X367411Y-193294
X367411Y-195707
X367411Y-195707
X372491Y-192024
X372491Y-195326
T12
X363855Y-110744
X363855Y-116840
X367665Y-110744
X367665Y-116840
X371475Y-110744
X371475Y-116840
T13
X351703Y-96092
X351703Y-100283
X361355Y-100283
X377571Y-96092
X377571Y-100283
X387223Y-100283
M30
