%TF.GenerationSoftware,KiCad,Pcbnew,8.0.6+1*%
%TF.CreationDate,2024-12-23T15:37:46+01:00*%
%TF.ProjectId,Issue_6,49737375-655f-4362-9e6b-696361645f70,0*%
%TF.SameCoordinates,Original*%
%TF.FileFunction,Soldermask,Top*%
%TF.FilePolarity,Negative*%
%FSLAX46Y46*%
G04 Gerber Fmt 4.6, Leading zero omitted, Abs format (unit mm)*
G04 Created by KiCad (PCBNEW 8.0.6+1) date 2024-12-23 15:37:46*
%MOMM*%
%LPD*%
G01*
G04 APERTURE LIST*
G04 Aperture macros list*
%AMRoundRect*
0 Rectangle with rounded corners*
0 $1 Rounding radius*
0 $2 $3 $4 $5 $6 $7 $8 $9 X,Y pos of 4 corners*
0 Add a 4 corners polygon primitive as box body*
4,1,4,$2,$3,$4,$5,$6,$7,$8,$9,$2,$3,0*
0 Add four circle primitives for the rounded corners*
1,1,$1+$1,$2,$3*
1,1,$1+$1,$4,$5*
1,1,$1+$1,$6,$7*
1,1,$1+$1,$8,$9*
0 Add four rect primitives between the rounded corners*
20,1,$1+$1,$2,$3,$4,$5,0*
20,1,$1+$1,$4,$5,$6,$7,0*
20,1,$1+$1,$6,$7,$8,$9,0*
20,1,$1+$1,$8,$9,$2,$3,0*%
%AMRotRect*
0 Rectangle, with rotation*
0 The origin of the aperture is its center*
0 $1 length*
0 $2 width*
0 $3 Rotation angle, in degrees counterclockwise*
0 Add horizontal line*
21,1,$1,$2,0,0,$3*%
G04 Aperture macros list end*
%ADD10C,0.100000*%
%ADD11C,3.581000*%
%ADD12C,2.350446*%
%ADD13RoundRect,0.500000X-3.750000X-0.350000X3.750000X-0.350000X3.750000X0.350000X-3.750000X0.350000X0*%
%ADD14R,1.600000X1.600000*%
%ADD15O,1.600000X1.600000*%
%ADD16R,1.700000X1.700000*%
%ADD17O,1.700000X1.700000*%
%ADD18RoundRect,0.050800X-2.250000X1.750000X-2.250000X-1.750000X2.250000X-1.750000X2.250000X1.750000X0*%
%ADD19R,1.905000X2.000000*%
%ADD20O,1.905000X2.000000*%
%ADD21C,1.600000*%
%ADD22R,1.200000X1.200000*%
%ADD23C,1.200000*%
%ADD24R,1.500000X1.500000*%
%ADD25O,1.500000X1.500000*%
%ADD26R,1.350000X1.350000*%
%ADD27O,1.350000X1.350000*%
%ADD28RotRect,1.500000X1.500000X45.000000*%
%ADD29RoundRect,1.100000X0.400000X0.000010X-0.400000X0.000010X-0.400000X-0.000010X0.400000X-0.000010X0*%
%ADD30RoundRect,1.100000X-0.400000X-0.000010X0.400000X-0.000010X0.400000X0.000010X-0.400000X0.000010X0*%
%ADD31R,1.300000X1.300000*%
%ADD32C,1.300000*%
%ADD33R,2.000000X2.000000*%
%ADD34O,2.000000X2.000000*%
%ADD35C,1.000000*%
%ADD36RoundRect,1.100000X-0.975000X-0.000010X0.975000X-0.000010X0.975000X0.000010X-0.975000X0.000010X0*%
%ADD37R,1.800000X1.800000*%
%ADD38C,1.800000*%
%ADD39C,2.000000*%
%ADD40C,1.500000*%
%ADD41C,2.850000*%
%ADD42RoundRect,0.249999X-0.525001X0.525001X-0.525001X-0.525001X0.525001X-0.525001X0.525001X0.525001X0*%
%ADD43C,1.550000*%
%ADD44O,2.500000X2.600000*%
%ADD45O,2.500000X2.500000*%
G04 APERTURE END LIST*
D10*
X391160000Y-91440000D02*
X93345000Y-91440000D01*
X89535000Y-97790000D01*
X45085000Y-97790000D01*
X41275000Y-91440000D01*
X23241000Y-91440000D01*
X23241000Y-81280000D01*
X391160000Y-81280000D01*
X391160000Y-91440000D01*
G36*
X391160000Y-91440000D02*
G01*
X93345000Y-91440000D01*
X89535000Y-97790000D01*
X45085000Y-97790000D01*
X41275000Y-91440000D01*
X23241000Y-91440000D01*
X23241000Y-81280000D01*
X391160000Y-81280000D01*
X391160000Y-91440000D01*
G37*
D11*
X345071500Y-126238000D02*
G75*
G02*
X341490500Y-126238000I-1790500J0D01*
G01*
X341490500Y-126238000D02*
G75*
G02*
X345071500Y-126238000I1790500J0D01*
G01*
D10*
X381000000Y-128270000D02*
X391160000Y-128270000D01*
X391160000Y-152400000D01*
X381000000Y-152400000D01*
X381000000Y-128270000D01*
G36*
X381000000Y-128270000D02*
G01*
X391160000Y-128270000D01*
X391160000Y-152400000D01*
X381000000Y-152400000D01*
X381000000Y-128270000D01*
G37*
X406273000Y-217170000D02*
X23241000Y-217170000D01*
X23241000Y-207010000D01*
X256286000Y-207010000D01*
X256286000Y-199390000D01*
X406146000Y-199390000D01*
X406273000Y-217170000D01*
G36*
X406273000Y-217170000D02*
G01*
X23241000Y-217170000D01*
X23241000Y-207010000D01*
X256286000Y-207010000D01*
X256286000Y-199390000D01*
X406146000Y-199390000D01*
X406273000Y-217170000D01*
G37*
%TO.C,S3*%
D12*
X386239223Y-113792000D02*
G75*
G02*
X383888777Y-113792000I-1175223J0D01*
G01*
X383888777Y-113792000D02*
G75*
G02*
X386239223Y-113792000I1175223J0D01*
G01*
%TD*%
D13*
%TO.C,EC1*%
X386207000Y-131318000D03*
X386207000Y-133858000D03*
X386207000Y-138938000D03*
X386207000Y-141478000D03*
X386207000Y-144018000D03*
X386207000Y-146558000D03*
X386207000Y-149098000D03*
%TD*%
D14*
%TO.C,D26*%
X344805000Y-94488000D03*
D15*
X344805000Y-107061000D03*
%TD*%
D16*
%TO.C,J2*%
X85725000Y-114845000D03*
D17*
X85725000Y-112305000D03*
X83185000Y-114845000D03*
X83185000Y-112305000D03*
X80645000Y-114845000D03*
X80645000Y-112305000D03*
X78105000Y-114845000D03*
X78105000Y-112305000D03*
X75565000Y-114845000D03*
X75565000Y-112305000D03*
X70485000Y-114845000D03*
X70485000Y-112305000D03*
X67945000Y-114845000D03*
X67945000Y-112305000D03*
X65405000Y-114845000D03*
X65405000Y-112305000D03*
X62865000Y-114845000D03*
X62865000Y-112305000D03*
X60325000Y-114845000D03*
X60325000Y-112305000D03*
X57785000Y-114845000D03*
X57785000Y-112305000D03*
X55245000Y-114845000D03*
X55245000Y-112305000D03*
X52705000Y-114845000D03*
X52705000Y-112305000D03*
X50165000Y-114845000D03*
X50165000Y-112305000D03*
%TD*%
D14*
%TO.C,D25*%
X323215000Y-106045000D03*
D15*
X323215000Y-93472000D03*
%TD*%
D18*
%TO.C,J9*%
X351703000Y-96092000D03*
X351703000Y-100283000D03*
X361355000Y-100283000D03*
%TD*%
%TO.C,J10*%
X377571000Y-96092000D03*
X377571000Y-100283000D03*
X387223000Y-100283000D03*
%TD*%
D19*
%TO.C,IC31*%
X276225000Y-190683000D03*
D20*
X278765000Y-190683000D03*
X281305000Y-190683000D03*
%TD*%
D21*
%TO.C,R47*%
X58420000Y-137160000D03*
D15*
X45720000Y-137160000D03*
%TD*%
D14*
%TO.C,C22*%
X358902000Y-129286000D03*
D21*
X356402000Y-129286000D03*
%TD*%
%TO.C,R56*%
X297585000Y-115310000D03*
D15*
X310285000Y-115310000D03*
%TD*%
D21*
%TO.C,R62*%
X211455000Y-185039000D03*
D15*
X198755000Y-185039000D03*
%TD*%
D21*
%TO.C,C31*%
X283337000Y-137414000D03*
D15*
X270637000Y-137414000D03*
%TD*%
D22*
%TO.C,C10*%
X347980000Y-193929000D03*
D23*
X360934000Y-193929000D03*
%TD*%
D24*
%TO.C,D2*%
X227457000Y-182499000D03*
D25*
X214757000Y-182499000D03*
%TD*%
D16*
%TO.C,J201*%
X368935000Y-175006000D03*
D17*
X371475000Y-175006000D03*
X374015000Y-175006000D03*
X376555000Y-175006000D03*
X379095000Y-175006000D03*
X381635000Y-175006000D03*
X384175000Y-175006000D03*
%TD*%
D21*
%TO.C,R86*%
X244094000Y-146304000D03*
D15*
X256794000Y-146304000D03*
%TD*%
D21*
%TO.C,R48*%
X233045000Y-138938000D03*
D15*
X220345000Y-138938000D03*
%TD*%
D21*
%TO.C,R21*%
X227457000Y-195199000D03*
D15*
X214757000Y-195199000D03*
%TD*%
D26*
%TO.C,SW2*%
X398145000Y-191453000D03*
D27*
X398145000Y-193453000D03*
X398145000Y-195453000D03*
%TD*%
D24*
%TO.C,D1*%
X227457000Y-185039000D03*
D25*
X214757000Y-185039000D03*
%TD*%
D14*
%TO.C,IC5*%
X137287000Y-160020000D03*
D15*
X137287000Y-162560000D03*
X137287000Y-165100000D03*
X137287000Y-167640000D03*
X137287000Y-170180000D03*
X137287000Y-172720000D03*
X137287000Y-175260000D03*
X137287000Y-177800000D03*
X144907000Y-177800000D03*
X144907000Y-175260000D03*
X144907000Y-172720000D03*
X144907000Y-170180000D03*
X144907000Y-167640000D03*
X144907000Y-165100000D03*
X144907000Y-162560000D03*
X144907000Y-160020000D03*
%TD*%
D21*
%TO.C,R10*%
X235077000Y-96647000D03*
D15*
X222377000Y-96647000D03*
%TD*%
D14*
%TO.C,C41*%
X373166000Y-121793000D03*
D21*
X375666000Y-121793000D03*
%TD*%
%TO.C,R78*%
X75311000Y-134620000D03*
D15*
X62611000Y-134620000D03*
%TD*%
D21*
%TO.C,R44*%
X306197000Y-167386000D03*
D15*
X293497000Y-167386000D03*
%TD*%
D21*
%TO.C,DC24*%
X147447000Y-201295000D03*
D15*
X147447000Y-188595000D03*
%TD*%
D28*
%TO.C,L2*%
X290449000Y-191516000D03*
D29*
X289399000Y-191516000D03*
D28*
X291719000Y-192786000D03*
D30*
X292769000Y-192786000D03*
D28*
X290449000Y-194056000D03*
D29*
X289399000Y-194056000D03*
D28*
X291719000Y-195199000D03*
D30*
X292769000Y-195199000D03*
%TD*%
D21*
%TO.C,R29*%
X355219000Y-141224000D03*
D15*
X367919000Y-141224000D03*
%TD*%
D21*
%TO.C,C32*%
X286385000Y-143764000D03*
D15*
X299085000Y-143764000D03*
%TD*%
D21*
%TO.C,C48*%
X234950000Y-99568000D03*
D15*
X222250000Y-99568000D03*
%TD*%
D21*
%TO.C,C49*%
X319659000Y-180086000D03*
D15*
X319659000Y-167386000D03*
%TD*%
D31*
%TO.C,TR7*%
X329565000Y-147066000D03*
D32*
X327025000Y-144526000D03*
X329565000Y-141986000D03*
%TD*%
D21*
%TO.C,R58*%
X297585000Y-120390000D03*
D15*
X310285000Y-120390000D03*
%TD*%
D21*
%TO.C,R17*%
X220218000Y-128651000D03*
D15*
X232918000Y-128651000D03*
%TD*%
D21*
%TO.C,R20*%
X227457000Y-197739000D03*
D15*
X214757000Y-197739000D03*
%TD*%
D14*
%TO.C,IC16*%
X175387000Y-183515000D03*
D15*
X175387000Y-186055000D03*
X175387000Y-188595000D03*
X175387000Y-191135000D03*
X175387000Y-193675000D03*
X175387000Y-196215000D03*
X175387000Y-198755000D03*
X175387000Y-201295000D03*
X183007000Y-201295000D03*
X183007000Y-198755000D03*
X183007000Y-196215000D03*
X183007000Y-193675000D03*
X183007000Y-191135000D03*
X183007000Y-188595000D03*
X183007000Y-186055000D03*
X183007000Y-183515000D03*
%TD*%
D21*
%TO.C,R90*%
X217170000Y-124460000D03*
D15*
X217170000Y-111760000D03*
%TD*%
D21*
%TO.C,C19*%
X326517000Y-152400000D03*
D15*
X313817000Y-152400000D03*
%TD*%
D24*
%TO.C,D16*%
X313817000Y-149860000D03*
D25*
X326517000Y-149860000D03*
%TD*%
D21*
%TO.C,R49*%
X315087000Y-133705600D03*
D15*
X302387000Y-133705600D03*
%TD*%
D14*
%TO.C,IC13*%
X137287000Y-183515000D03*
D15*
X137287000Y-186055000D03*
X137287000Y-188595000D03*
X137287000Y-191135000D03*
X137287000Y-193675000D03*
X137287000Y-196215000D03*
X137287000Y-198755000D03*
X137287000Y-201295000D03*
X144907000Y-201295000D03*
X144907000Y-198755000D03*
X144907000Y-196215000D03*
X144907000Y-193675000D03*
X144907000Y-191135000D03*
X144907000Y-188595000D03*
X144907000Y-186055000D03*
X144907000Y-183515000D03*
%TD*%
D21*
%TO.C,DC20*%
X96647000Y-201295000D03*
D15*
X96647000Y-188595000D03*
%TD*%
D21*
%TO.C,C50*%
X395097000Y-180213000D03*
D15*
X395097000Y-167513000D03*
%TD*%
D21*
%TO.C,R32*%
X288417000Y-156972000D03*
D15*
X301117000Y-156972000D03*
%TD*%
D33*
%TO.C,C37*%
X326567800Y-104444800D03*
D34*
X326567800Y-129844800D03*
%TD*%
D21*
%TO.C,DC26*%
X172847000Y-201295000D03*
D15*
X172847000Y-188595000D03*
%TD*%
D16*
%TO.C,J6*%
X192913000Y-101600000D03*
D17*
X194437000Y-97790000D03*
X195961000Y-101600000D03*
X197485000Y-97790000D03*
X199009000Y-101600000D03*
X200533000Y-97790000D03*
%TD*%
D16*
%TO.C,M2*%
X309245000Y-167335200D03*
D17*
X309245000Y-169875200D03*
%TD*%
D21*
%TO.C,R92_2*%
X40005000Y-115570000D03*
D15*
X40005000Y-102870000D03*
%TD*%
D24*
%TO.C,D14*%
X306197000Y-184650000D03*
D25*
X306197000Y-194810000D03*
%TD*%
D31*
%TO.C,TR2*%
X370205000Y-94488000D03*
D32*
X367665000Y-97028000D03*
X365125000Y-94488000D03*
%TD*%
D21*
%TO.C,DC5*%
X181610000Y-118745000D03*
D15*
X181610000Y-131445000D03*
%TD*%
D21*
%TO.C,R92*%
X219583000Y-95377000D03*
D15*
X219583000Y-108077000D03*
%TD*%
D16*
%TO.C,HDB1*%
X291211000Y-148844000D03*
D17*
X293751000Y-148844000D03*
X296291000Y-148844000D03*
X298831000Y-148844000D03*
X301371000Y-148844000D03*
X303911000Y-148844000D03*
X306451000Y-148844000D03*
X291211000Y-151384000D03*
X293751000Y-151384000D03*
X296291000Y-151384000D03*
X298831000Y-151384000D03*
X301371000Y-151384000D03*
X303911000Y-151384000D03*
X306451000Y-151384000D03*
%TD*%
D21*
%TO.C,R63*%
X211455000Y-182499000D03*
D15*
X198755000Y-182499000D03*
%TD*%
D14*
%TO.C,C21*%
X308269000Y-138684000D03*
D21*
X310769000Y-138684000D03*
%TD*%
%TO.C,C13*%
X312039000Y-180086000D03*
D15*
X312039000Y-167386000D03*
%TD*%
D21*
%TO.C,R74*%
X75184000Y-129540000D03*
D15*
X62484000Y-129540000D03*
%TD*%
D21*
%TO.C,C16*%
X368935000Y-169799000D03*
D15*
X381635000Y-169799000D03*
%TD*%
D21*
%TO.C,C34*%
X286385000Y-138684000D03*
D15*
X299085000Y-138684000D03*
%TD*%
D24*
%TO.C,D3*%
X214757000Y-179959000D03*
D25*
X227457000Y-179959000D03*
%TD*%
D21*
%TO.C,C43*%
X270637000Y-124714000D03*
D15*
X283337000Y-124714000D03*
%TD*%
D31*
%TO.C,TR5*%
X334645000Y-147574000D03*
D32*
X332105000Y-145034000D03*
X334645000Y-142494000D03*
%TD*%
D14*
%TO.C,IC18*%
X45720000Y-142240000D03*
D15*
X45720000Y-144780000D03*
X45720000Y-147320000D03*
X45720000Y-149860000D03*
X45720000Y-152400000D03*
X45720000Y-154940000D03*
X45720000Y-157480000D03*
X45720000Y-160020000D03*
X45720000Y-162560000D03*
X45720000Y-165100000D03*
X45720000Y-167640000D03*
X45720000Y-170180000D03*
X45720000Y-172720000D03*
X45720000Y-175260000D03*
X45720000Y-177800000D03*
X45720000Y-180340000D03*
X45720000Y-182880000D03*
X45720000Y-185420000D03*
X45720000Y-187960000D03*
X45720000Y-190500000D03*
X45720000Y-193040000D03*
X45720000Y-195580000D03*
X45720000Y-198120000D03*
X45720000Y-200660000D03*
X60960000Y-200660000D03*
X60960000Y-198120000D03*
X60960000Y-195580000D03*
X60960000Y-193040000D03*
X60960000Y-190500000D03*
X60960000Y-187960000D03*
X60960000Y-185420000D03*
X60960000Y-182880000D03*
X60960000Y-180340000D03*
X60960000Y-177800000D03*
X60960000Y-175260000D03*
X60960000Y-172720000D03*
X60960000Y-170180000D03*
X60960000Y-167640000D03*
X60960000Y-165100000D03*
X60960000Y-162560000D03*
X60960000Y-160020000D03*
X60960000Y-157480000D03*
X60960000Y-154940000D03*
X60960000Y-152400000D03*
X60960000Y-149860000D03*
X60960000Y-147320000D03*
X60960000Y-144780000D03*
X60960000Y-142240000D03*
%TD*%
D21*
%TO.C,C20*%
X361442000Y-153924000D03*
D15*
X374142000Y-153924000D03*
%TD*%
D14*
%TO.C,IC28*%
X259715000Y-128524000D03*
D15*
X259715000Y-131064000D03*
X259715000Y-133604000D03*
X259715000Y-136144000D03*
X259715000Y-138684000D03*
X259715000Y-141224000D03*
X259715000Y-143764000D03*
X259715000Y-146304000D03*
X259715000Y-148844000D03*
X259715000Y-151384000D03*
X267335000Y-151384000D03*
X267335000Y-148844000D03*
X267335000Y-146304000D03*
X267335000Y-143764000D03*
X267335000Y-141224000D03*
X267335000Y-138684000D03*
X267335000Y-136144000D03*
X267335000Y-133604000D03*
X267335000Y-131064000D03*
X267335000Y-128524000D03*
%TD*%
D21*
%TO.C,DC27*%
X185420000Y-201295000D03*
D15*
X185420000Y-188595000D03*
%TD*%
D16*
%TO.C,J4*%
X141351000Y-101600000D03*
D17*
X142875000Y-97790000D03*
X144399000Y-101600000D03*
X145923000Y-97790000D03*
X147447000Y-101600000D03*
X148971000Y-97790000D03*
%TD*%
D22*
%TO.C,C11*%
X302641000Y-184658000D03*
D23*
X289687000Y-184658000D03*
%TD*%
D21*
%TO.C,C26*%
X270637000Y-143764000D03*
D15*
X283337000Y-143764000D03*
%TD*%
D14*
%TO.C,C47*%
X364490000Y-128207888D03*
D21*
X364490000Y-130707888D03*
%TD*%
%TO.C,R18*%
X227457000Y-202819000D03*
D15*
X214757000Y-202819000D03*
%TD*%
D21*
%TO.C,C5*%
X306197000Y-178308000D03*
D15*
X293497000Y-178308000D03*
%TD*%
D21*
%TO.C,C46*%
X345567000Y-156591000D03*
D15*
X358267000Y-156591000D03*
%TD*%
D21*
%TO.C,R61*%
X237744000Y-94996000D03*
D15*
X250444000Y-94996000D03*
%TD*%
D21*
%TO.C,R23*%
X227457000Y-190119000D03*
D15*
X214757000Y-190119000D03*
%TD*%
D21*
%TO.C,R57*%
X297585000Y-117850000D03*
D15*
X310285000Y-117850000D03*
%TD*%
D21*
%TO.C,DC3*%
X142621000Y-118110000D03*
D15*
X142621000Y-130810000D03*
%TD*%
D35*
%TO.C,X2*%
X216027000Y-136398000D03*
X216027000Y-134698000D03*
%TD*%
D21*
%TO.C,L5*%
X369697000Y-121920000D03*
D15*
X354697000Y-121920000D03*
%TD*%
D21*
%TO.C,R33*%
X355219000Y-144018000D03*
D15*
X367919000Y-144018000D03*
%TD*%
D21*
%TO.C,R76*%
X75184000Y-131953000D03*
D15*
X62484000Y-131953000D03*
%TD*%
D21*
%TO.C,R51*%
X270637000Y-129674000D03*
D15*
X283337000Y-129674000D03*
%TD*%
D21*
%TO.C,R85*%
X261874000Y-125095000D03*
D15*
X249174000Y-125095000D03*
%TD*%
D21*
%TO.C,R40*%
X315087000Y-184404000D03*
D15*
X315087000Y-194564000D03*
%TD*%
D16*
%TO.C,J202*%
X368935000Y-181483000D03*
D17*
X371475000Y-181483000D03*
X374015000Y-181483000D03*
X376555000Y-181483000D03*
X379095000Y-181483000D03*
X381635000Y-181483000D03*
X384175000Y-181483000D03*
%TD*%
D21*
%TO.C,R15*%
X387731000Y-105664000D03*
D15*
X375031000Y-105664000D03*
%TD*%
D21*
%TO.C,R80*%
X220218000Y-131191000D03*
D15*
X232918000Y-131191000D03*
%TD*%
D21*
%TO.C,DC16*%
X160147000Y-177800000D03*
D15*
X160147000Y-165100000D03*
%TD*%
D21*
%TO.C,R8*%
X217043000Y-108077000D03*
D15*
X217043000Y-95377000D03*
%TD*%
D14*
%TO.C,IC25*%
X184150000Y-114300000D03*
D15*
X184150000Y-116840000D03*
X184150000Y-119380000D03*
X184150000Y-121920000D03*
X184150000Y-124460000D03*
X184150000Y-127000000D03*
X184150000Y-129540000D03*
X191770000Y-129540000D03*
X191770000Y-127000000D03*
X191770000Y-124460000D03*
X191770000Y-121920000D03*
X191770000Y-119380000D03*
X191770000Y-116840000D03*
X191770000Y-114300000D03*
%TD*%
D21*
%TO.C,R12*%
X339217000Y-136144000D03*
D15*
X351917000Y-136144000D03*
%TD*%
D14*
%TO.C,IC33*%
X124968000Y-119380000D03*
D15*
X124968000Y-121920000D03*
X124968000Y-124460000D03*
X124968000Y-127000000D03*
X124968000Y-129540000D03*
X124968000Y-132080000D03*
X124968000Y-134620000D03*
X124968000Y-137160000D03*
X124968000Y-139700000D03*
X124968000Y-142240000D03*
X124968000Y-144780000D03*
X124968000Y-147320000D03*
X124968000Y-149860000D03*
X124968000Y-152400000D03*
X140208000Y-152400000D03*
X140208000Y-149860000D03*
X140208000Y-147320000D03*
X140208000Y-144780000D03*
X140208000Y-142240000D03*
X140208000Y-139700000D03*
X140208000Y-137160000D03*
X140208000Y-134620000D03*
X140208000Y-132080000D03*
X140208000Y-129540000D03*
X140208000Y-127000000D03*
X140208000Y-124460000D03*
X140208000Y-121920000D03*
X140208000Y-119380000D03*
%TD*%
D14*
%TO.C,IC10*%
X99187000Y-183515000D03*
D15*
X99187000Y-186055000D03*
X99187000Y-188595000D03*
X99187000Y-191135000D03*
X99187000Y-193675000D03*
X99187000Y-196215000D03*
X99187000Y-198755000D03*
X99187000Y-201295000D03*
X106807000Y-201295000D03*
X106807000Y-198755000D03*
X106807000Y-196215000D03*
X106807000Y-193675000D03*
X106807000Y-191135000D03*
X106807000Y-188595000D03*
X106807000Y-186055000D03*
X106807000Y-183515000D03*
%TD*%
D21*
%TO.C,R54*%
X270637000Y-132214000D03*
D15*
X283337000Y-132214000D03*
%TD*%
D21*
%TO.C,R35*%
X385445000Y-194691000D03*
D15*
X385445000Y-184531000D03*
%TD*%
D21*
%TO.C,C44*%
X338963000Y-115570000D03*
D15*
X351663000Y-115570000D03*
%TD*%
D21*
%TO.C,R104*%
X326517000Y-147320000D03*
D15*
X313817000Y-147320000D03*
%TD*%
D24*
%TO.C,D10*%
X198755000Y-190119000D03*
D25*
X211455000Y-190119000D03*
%TD*%
D21*
%TO.C,R72*%
X75311000Y-127000000D03*
D15*
X62611000Y-127000000D03*
%TD*%
D14*
%TO.C,IC3*%
X111887000Y-160020000D03*
D15*
X111887000Y-162560000D03*
X111887000Y-165100000D03*
X111887000Y-167640000D03*
X111887000Y-170180000D03*
X111887000Y-172720000D03*
X111887000Y-175260000D03*
X111887000Y-177800000D03*
X119507000Y-177800000D03*
X119507000Y-175260000D03*
X119507000Y-172720000D03*
X119507000Y-170180000D03*
X119507000Y-167640000D03*
X119507000Y-165100000D03*
X119507000Y-162560000D03*
X119507000Y-160020000D03*
%TD*%
D21*
%TO.C,C45*%
X286385000Y-131064000D03*
D15*
X299085000Y-131064000D03*
%TD*%
D19*
%TO.C,U35*%
X345821000Y-112014000D03*
D20*
X343281000Y-112014000D03*
X340741000Y-112014000D03*
%TD*%
D24*
%TO.C,D12*%
X320167000Y-194564000D03*
D25*
X320167000Y-184404000D03*
%TD*%
D16*
%TO.C,J101*%
X293497000Y-175006000D03*
D17*
X296037000Y-175006000D03*
X298577000Y-175006000D03*
X301117000Y-175006000D03*
X303657000Y-175006000D03*
X306197000Y-175006000D03*
X308737000Y-175006000D03*
%TD*%
D16*
%TO.C,J3*%
X114173000Y-101600000D03*
D17*
X115697000Y-97790000D03*
X117221000Y-101600000D03*
X118745000Y-97790000D03*
X120269000Y-101600000D03*
X121793000Y-97790000D03*
%TD*%
D21*
%TO.C,R88*%
X310261000Y-112770000D03*
D15*
X297561000Y-112770000D03*
%TD*%
D21*
%TO.C,R25*%
X283337000Y-151384000D03*
D15*
X270637000Y-151384000D03*
%TD*%
D21*
%TO.C,R98*%
X234442000Y-175260000D03*
D15*
X234442000Y-187960000D03*
%TD*%
D24*
%TO.C,D13*%
X395605000Y-194691000D03*
D25*
X395605000Y-184531000D03*
%TD*%
D21*
%TO.C,R42*%
X314579000Y-180086000D03*
D15*
X314579000Y-167386000D03*
%TD*%
D36*
%TO.C,L6*%
X298103000Y-192024000D03*
X298103000Y-195326000D03*
%TD*%
D37*
%TO.C,D27_2*%
X36195000Y-97155000D03*
D38*
X36195000Y-94615000D03*
%TD*%
D21*
%TO.C,R65*%
X211455000Y-177419000D03*
D15*
X198755000Y-177419000D03*
%TD*%
D24*
%TO.C,D8*%
X198755000Y-195199000D03*
D25*
X211455000Y-195199000D03*
%TD*%
D21*
%TO.C,R1*%
X58420000Y-132080000D03*
D15*
X45720000Y-132080000D03*
%TD*%
D21*
%TO.C,R68*%
X176911000Y-177419000D03*
D15*
X189611000Y-177419000D03*
%TD*%
D21*
%TO.C,C33*%
X299085000Y-136144000D03*
D15*
X286385000Y-136144000D03*
%TD*%
D37*
%TO.C,D20_1*%
X240411000Y-151384000D03*
D38*
X242951000Y-151384000D03*
%TD*%
D14*
%TO.C,IC26*%
X223012000Y-144780000D03*
D15*
X223012000Y-147320000D03*
X223012000Y-149860000D03*
X223012000Y-152400000D03*
X223012000Y-154940000D03*
X223012000Y-157480000D03*
X223012000Y-160020000D03*
X230632000Y-160020000D03*
X230632000Y-157480000D03*
X230632000Y-154940000D03*
X230632000Y-152400000D03*
X230632000Y-149860000D03*
X230632000Y-147320000D03*
X230632000Y-144780000D03*
%TD*%
D21*
%TO.C,R45*%
X381635000Y-167513000D03*
D15*
X368935000Y-167513000D03*
%TD*%
D14*
%TO.C,IC19*%
X81534000Y-119380000D03*
D15*
X81534000Y-121920000D03*
X81534000Y-124460000D03*
X81534000Y-127000000D03*
X81534000Y-129540000D03*
X81534000Y-132080000D03*
X81534000Y-134620000D03*
X81534000Y-137160000D03*
X89154000Y-137160000D03*
X89154000Y-134620000D03*
X89154000Y-132080000D03*
X89154000Y-129540000D03*
X89154000Y-127000000D03*
X89154000Y-124460000D03*
X89154000Y-121920000D03*
X89154000Y-119380000D03*
%TD*%
D14*
%TO.C,IC30*%
X337185000Y-181991000D03*
D15*
X339725000Y-181991000D03*
X342265000Y-181991000D03*
X344805000Y-181991000D03*
X347345000Y-181991000D03*
X349885000Y-181991000D03*
X352425000Y-181991000D03*
X354965000Y-181991000D03*
X357505000Y-181991000D03*
X360045000Y-181991000D03*
X362585000Y-181991000D03*
X365125000Y-181991000D03*
X365125000Y-166751000D03*
X362585000Y-166751000D03*
X360045000Y-166751000D03*
X357505000Y-166751000D03*
X354965000Y-166751000D03*
X352425000Y-166751000D03*
X349885000Y-166751000D03*
X347345000Y-166751000D03*
X344805000Y-166751000D03*
X342265000Y-166751000D03*
X339725000Y-166751000D03*
X337185000Y-166751000D03*
%TD*%
D17*
%TO.C,J7*%
X313055000Y-93585000D03*
X308055000Y-93585000D03*
D16*
X303102000Y-101459000D03*
D17*
X310595000Y-101459000D03*
X317961000Y-101459000D03*
X305388000Y-103999000D03*
X315548000Y-103999000D03*
X303055000Y-106666000D03*
X318055000Y-106666000D03*
X310555000Y-106666000D03*
%TD*%
D31*
%TO.C,TR4*%
X354457000Y-151384000D03*
D32*
X356997000Y-148844000D03*
X359537000Y-151384000D03*
%TD*%
D24*
%TO.C,D29*%
X355219000Y-133604000D03*
D25*
X367919000Y-133604000D03*
%TD*%
D21*
%TO.C,C18*%
X335915000Y-184785000D03*
D15*
X348615000Y-184785000D03*
%TD*%
D14*
%TO.C,IC7*%
X162687000Y-160020000D03*
D15*
X162687000Y-162560000D03*
X162687000Y-165100000D03*
X162687000Y-167640000D03*
X162687000Y-170180000D03*
X162687000Y-172720000D03*
X162687000Y-175260000D03*
X162687000Y-177800000D03*
X170307000Y-177800000D03*
X170307000Y-175260000D03*
X170307000Y-172720000D03*
X170307000Y-170180000D03*
X170307000Y-167640000D03*
X170307000Y-165100000D03*
X170307000Y-162560000D03*
X170307000Y-160020000D03*
%TD*%
D21*
%TO.C,R96*%
X170180000Y-109220000D03*
D15*
X157480000Y-109220000D03*
%TD*%
D16*
%TO.C,J8*%
X336169000Y-94570000D03*
D17*
X333629000Y-94570000D03*
X331089000Y-94570000D03*
%TD*%
D21*
%TO.C,DC15*%
X147447000Y-177800000D03*
D15*
X147447000Y-165100000D03*
%TD*%
D21*
%TO.C,R13*%
X338963000Y-118364000D03*
D15*
X351663000Y-118364000D03*
%TD*%
D21*
%TO.C,R100*%
X309372000Y-172466000D03*
D15*
X296672000Y-172466000D03*
%TD*%
D26*
%TO.C,SW1*%
X322707000Y-191262000D03*
D27*
X322707000Y-193262000D03*
X322707000Y-195262000D03*
%TD*%
D21*
%TO.C,R91*%
X220218000Y-133731000D03*
D15*
X232918000Y-133731000D03*
%TD*%
D14*
%TO.C,C42*%
X373420000Y-127889000D03*
D21*
X375920000Y-127889000D03*
%TD*%
D19*
%TO.C,IC32*%
X351663000Y-190810000D03*
D20*
X354203000Y-190810000D03*
X356743000Y-190810000D03*
%TD*%
D14*
%TO.C,IC6*%
X149987000Y-160020000D03*
D15*
X149987000Y-162560000D03*
X149987000Y-165100000D03*
X149987000Y-167640000D03*
X149987000Y-170180000D03*
X149987000Y-172720000D03*
X149987000Y-175260000D03*
X149987000Y-177800000D03*
X157607000Y-177800000D03*
X157607000Y-175260000D03*
X157607000Y-172720000D03*
X157607000Y-170180000D03*
X157607000Y-167640000D03*
X157607000Y-165100000D03*
X157607000Y-162560000D03*
X157607000Y-160020000D03*
%TD*%
D14*
%TO.C,IC9*%
X86487000Y-183515000D03*
D15*
X86487000Y-186055000D03*
X86487000Y-188595000D03*
X86487000Y-191135000D03*
X86487000Y-193675000D03*
X86487000Y-196215000D03*
X86487000Y-198755000D03*
X86487000Y-201295000D03*
X94107000Y-201295000D03*
X94107000Y-198755000D03*
X94107000Y-196215000D03*
X94107000Y-193675000D03*
X94107000Y-191135000D03*
X94107000Y-188595000D03*
X94107000Y-186055000D03*
X94107000Y-183515000D03*
%TD*%
D33*
%TO.C,C23*%
X243459000Y-129159000D03*
D34*
X243459000Y-108839000D03*
%TD*%
D14*
%TO.C,IC29*%
X261747000Y-181864000D03*
D15*
X264287000Y-181864000D03*
X266827000Y-181864000D03*
X269367000Y-181864000D03*
X271907000Y-181864000D03*
X274447000Y-181864000D03*
X276987000Y-181864000D03*
X279527000Y-181864000D03*
X282067000Y-181864000D03*
X284607000Y-181864000D03*
X287147000Y-181864000D03*
X289687000Y-181864000D03*
X289687000Y-166624000D03*
X287147000Y-166624000D03*
X284607000Y-166624000D03*
X282067000Y-166624000D03*
X279527000Y-166624000D03*
X276987000Y-166624000D03*
X274447000Y-166624000D03*
X271907000Y-166624000D03*
X269367000Y-166624000D03*
X266827000Y-166624000D03*
X264287000Y-166624000D03*
X261747000Y-166624000D03*
%TD*%
D21*
%TO.C,R28*%
X288417000Y-154432000D03*
D15*
X301117000Y-154432000D03*
%TD*%
D21*
%TO.C,R77*%
X75311000Y-121920000D03*
D15*
X62611000Y-121920000D03*
%TD*%
D21*
%TO.C,R34*%
X310007000Y-194564000D03*
D15*
X310007000Y-184404000D03*
%TD*%
D21*
%TO.C,R55*%
X286385000Y-133604000D03*
D15*
X299085000Y-133604000D03*
%TD*%
D21*
%TO.C,R9*%
X214503000Y-108077000D03*
D15*
X214503000Y-95377000D03*
%TD*%
D21*
%TO.C,C15*%
X293497000Y-169672000D03*
D15*
X306197000Y-169672000D03*
%TD*%
D33*
%TO.C,C39*%
X341503000Y-148336000D03*
D39*
X346503000Y-148336000D03*
%TD*%
D33*
%TO.C,C25*%
X256717800Y-141986000D03*
D34*
X236397800Y-141986000D03*
%TD*%
D21*
%TO.C,R59*%
X297585000Y-122930000D03*
D15*
X310285000Y-122930000D03*
%TD*%
D21*
%TO.C,C29*%
X270637000Y-134874000D03*
D15*
X283337000Y-134874000D03*
%TD*%
D21*
%TO.C,DC25*%
X160147000Y-201295000D03*
D15*
X160147000Y-188595000D03*
%TD*%
D31*
%TO.C,TR1*%
X325247000Y-132334000D03*
D32*
X322707000Y-134874000D03*
X320167000Y-132334000D03*
%TD*%
D21*
%TO.C,R97*%
X214757000Y-177419000D03*
D15*
X227457000Y-177419000D03*
%TD*%
D16*
%TO.C,M3*%
X384683000Y-167487600D03*
D17*
X384683000Y-170027600D03*
%TD*%
D21*
%TO.C,C30*%
X286385000Y-141224000D03*
D15*
X299085000Y-141224000D03*
%TD*%
D14*
%TO.C,IC23*%
X196977000Y-111760000D03*
D15*
X196977000Y-114300000D03*
X196977000Y-116840000D03*
X196977000Y-119380000D03*
X196977000Y-121920000D03*
X196977000Y-124460000D03*
X196977000Y-127000000D03*
X196977000Y-129540000D03*
X196977000Y-132080000D03*
X196977000Y-134620000D03*
X196977000Y-137160000D03*
X196977000Y-139700000D03*
X196977000Y-142240000D03*
X196977000Y-144780000D03*
X196977000Y-147320000D03*
X196977000Y-149860000D03*
X196977000Y-152400000D03*
X196977000Y-154940000D03*
X196977000Y-157480000D03*
X196977000Y-160020000D03*
X212217000Y-160020000D03*
X212217000Y-157480000D03*
X212217000Y-154940000D03*
X212217000Y-152400000D03*
X212217000Y-149860000D03*
X212217000Y-147320000D03*
X212217000Y-144780000D03*
X212217000Y-142240000D03*
X212217000Y-139700000D03*
X212217000Y-137160000D03*
X212217000Y-134620000D03*
X212217000Y-132080000D03*
X212217000Y-129540000D03*
X212217000Y-127000000D03*
X212217000Y-124460000D03*
X212217000Y-121920000D03*
X212217000Y-119380000D03*
X212217000Y-116840000D03*
X212217000Y-114300000D03*
X212217000Y-111760000D03*
%TD*%
D31*
%TO.C,TR6*%
X302387000Y-137160000D03*
D32*
X304927000Y-139700000D03*
X302387000Y-142240000D03*
%TD*%
D21*
%TO.C,C27*%
X270637000Y-148844000D03*
D15*
X283337000Y-148844000D03*
%TD*%
D37*
%TO.C,D21_1*%
X250698000Y-151257000D03*
D38*
X248158000Y-151257000D03*
%TD*%
D22*
%TO.C,C9*%
X272479888Y-193802000D03*
D23*
X285433888Y-193802000D03*
%TD*%
D21*
%TO.C,R67*%
X214757000Y-174879000D03*
D15*
X227457000Y-174879000D03*
%TD*%
D21*
%TO.C,C53*%
X181610000Y-151765000D03*
D15*
X168910000Y-151765000D03*
%TD*%
D21*
%TO.C,R89*%
X219710000Y-124460000D03*
D15*
X219710000Y-111760000D03*
%TD*%
D21*
%TO.C,R46*%
X181610000Y-154305000D03*
D15*
X168910000Y-154305000D03*
%TD*%
D40*
%TO.C,X3*%
X279527000Y-140716000D03*
X274647000Y-140716000D03*
%TD*%
D21*
%TO.C,DC13*%
X122047000Y-177800000D03*
D15*
X122047000Y-165100000D03*
%TD*%
D21*
%TO.C,R101*%
X384810000Y-172593000D03*
D15*
X372110000Y-172593000D03*
%TD*%
D17*
%TO.C,J11*%
X177292000Y-170120000D03*
D16*
X177292000Y-167580000D03*
D17*
X179832000Y-170120000D03*
X179832000Y-167580000D03*
X182372000Y-170120000D03*
X182372000Y-167580000D03*
X184912000Y-170120000D03*
X184912000Y-167580000D03*
X187452000Y-170120000D03*
X187452000Y-167580000D03*
X189992000Y-170120000D03*
X189992000Y-167580000D03*
X192532000Y-170120000D03*
X192532000Y-167580000D03*
X195072000Y-170120000D03*
X195072000Y-167580000D03*
X197612000Y-170120000D03*
X197612000Y-167580000D03*
%TD*%
D21*
%TO.C,R103*%
X313817000Y-157099000D03*
D15*
X326517000Y-157099000D03*
%TD*%
D39*
%TO.C,DC29*%
X361696000Y-184531000D03*
X351696000Y-184531000D03*
%TD*%
%TO.C,DC28*%
X286225000Y-184404000D03*
X276225000Y-184404000D03*
%TD*%
D21*
%TO.C,DC21*%
X109347000Y-201295000D03*
D15*
X109347000Y-188595000D03*
%TD*%
D21*
%TO.C,C6*%
X381635000Y-178435000D03*
D15*
X368935000Y-178435000D03*
%TD*%
D24*
%TO.C,D5*%
X198755000Y-202819000D03*
D25*
X211455000Y-202819000D03*
%TD*%
D21*
%TO.C,C17*%
X260477000Y-184658000D03*
D15*
X273177000Y-184658000D03*
%TD*%
D21*
%TO.C,R69*%
X176911000Y-179959000D03*
D15*
X189611000Y-179959000D03*
%TD*%
D21*
%TO.C,DC6*%
X214630000Y-111760000D03*
D15*
X214630000Y-124460000D03*
%TD*%
D16*
%TO.C,J5*%
X165989000Y-101600000D03*
D17*
X167513000Y-97790000D03*
X169037000Y-101600000D03*
X170561000Y-97790000D03*
X172085000Y-101600000D03*
X173609000Y-97790000D03*
%TD*%
D14*
%TO.C,IC4*%
X124587000Y-160020000D03*
D15*
X124587000Y-162560000D03*
X124587000Y-165100000D03*
X124587000Y-167640000D03*
X124587000Y-170180000D03*
X124587000Y-172720000D03*
X124587000Y-175260000D03*
X124587000Y-177800000D03*
X132207000Y-177800000D03*
X132207000Y-175260000D03*
X132207000Y-172720000D03*
X132207000Y-170180000D03*
X132207000Y-167640000D03*
X132207000Y-165100000D03*
X132207000Y-162560000D03*
X132207000Y-160020000D03*
%TD*%
D21*
%TO.C,R37*%
X387985000Y-194691000D03*
D15*
X387985000Y-184531000D03*
%TD*%
D21*
%TO.C,R95*%
X351917000Y-138684000D03*
D15*
X339217000Y-138684000D03*
%TD*%
D14*
%TO.C,IC11*%
X111887000Y-183515000D03*
D15*
X111887000Y-186055000D03*
X111887000Y-188595000D03*
X111887000Y-191135000D03*
X111887000Y-193675000D03*
X111887000Y-196215000D03*
X111887000Y-198755000D03*
X111887000Y-201295000D03*
X119507000Y-201295000D03*
X119507000Y-198755000D03*
X119507000Y-196215000D03*
X119507000Y-193675000D03*
X119507000Y-191135000D03*
X119507000Y-188595000D03*
X119507000Y-186055000D03*
X119507000Y-183515000D03*
%TD*%
D14*
%TO.C,IC1*%
X86487000Y-160020000D03*
D15*
X86487000Y-162560000D03*
X86487000Y-165100000D03*
X86487000Y-167640000D03*
X86487000Y-170180000D03*
X86487000Y-172720000D03*
X86487000Y-175260000D03*
X86487000Y-177800000D03*
X94107000Y-177800000D03*
X94107000Y-175260000D03*
X94107000Y-172720000D03*
X94107000Y-170180000D03*
X94107000Y-167640000D03*
X94107000Y-165100000D03*
X94107000Y-162560000D03*
X94107000Y-160020000D03*
%TD*%
D16*
%TO.C,D27*%
X229743000Y-112522000D03*
D17*
X229743000Y-109982000D03*
%TD*%
D24*
%TO.C,D9*%
X198755000Y-192659000D03*
D25*
X211455000Y-192659000D03*
%TD*%
D21*
%TO.C,C14*%
X387477000Y-180213000D03*
D15*
X387477000Y-167513000D03*
%TD*%
D21*
%TO.C,R26*%
X299085000Y-146354800D03*
D15*
X286385000Y-146354800D03*
%TD*%
D31*
%TO.C,TR3*%
X323469000Y-143002000D03*
D32*
X320929000Y-145542000D03*
X318389000Y-143002000D03*
%TD*%
D41*
%TO.C,J1*%
X26035000Y-201940000D03*
X26035000Y-113040000D03*
D42*
X28575000Y-196850000D03*
D43*
X28575000Y-194310000D03*
X28575000Y-191770000D03*
X28575000Y-189230000D03*
X28575000Y-186690000D03*
X28575000Y-184150000D03*
X28575000Y-181610000D03*
X28575000Y-179070000D03*
X28575000Y-176530000D03*
X28575000Y-173990000D03*
X28575000Y-171450000D03*
X28575000Y-168910000D03*
X28575000Y-166370000D03*
X28575000Y-163830000D03*
X28575000Y-161290000D03*
X28575000Y-158750000D03*
X28575000Y-156210000D03*
X28575000Y-153670000D03*
X28575000Y-151130000D03*
X28575000Y-148590000D03*
X28575000Y-146050000D03*
X28575000Y-143510000D03*
X28575000Y-140970000D03*
X28575000Y-138430000D03*
X28575000Y-135890000D03*
X28575000Y-133350000D03*
X28575000Y-130810000D03*
X28575000Y-128270000D03*
X28575000Y-125730000D03*
X28575000Y-123190000D03*
X28575000Y-120650000D03*
X28575000Y-118110000D03*
X31115000Y-196850000D03*
X31115000Y-194310000D03*
X31115000Y-191770000D03*
X31115000Y-189230000D03*
X31115000Y-186690000D03*
X31115000Y-184150000D03*
X31115000Y-181610000D03*
X31115000Y-179070000D03*
X31115000Y-176530000D03*
X31115000Y-173990000D03*
X31115000Y-171450000D03*
X31115000Y-168910000D03*
X31115000Y-166370000D03*
X31115000Y-163830000D03*
X31115000Y-161290000D03*
X31115000Y-158750000D03*
X31115000Y-156210000D03*
X31115000Y-153670000D03*
X31115000Y-151130000D03*
X31115000Y-148590000D03*
X31115000Y-146050000D03*
X31115000Y-143510000D03*
X31115000Y-140970000D03*
X31115000Y-138430000D03*
X31115000Y-135890000D03*
X31115000Y-133350000D03*
X31115000Y-130810000D03*
X31115000Y-128270000D03*
X31115000Y-125730000D03*
X31115000Y-123190000D03*
X31115000Y-120650000D03*
X31115000Y-118110000D03*
%TD*%
D21*
%TO.C,DC10*%
X83820000Y-178435000D03*
D15*
X83820000Y-165735000D03*
%TD*%
D24*
%TO.C,D7*%
X198755000Y-197739000D03*
D25*
X211455000Y-197739000D03*
%TD*%
D14*
%TO.C,IC12*%
X124587000Y-183515000D03*
D15*
X124587000Y-186055000D03*
X124587000Y-188595000D03*
X124587000Y-191135000D03*
X124587000Y-193675000D03*
X124587000Y-196215000D03*
X124587000Y-198755000D03*
X124587000Y-201295000D03*
X132207000Y-201295000D03*
X132207000Y-198755000D03*
X132207000Y-196215000D03*
X132207000Y-193675000D03*
X132207000Y-191135000D03*
X132207000Y-188595000D03*
X132207000Y-186055000D03*
X132207000Y-183515000D03*
%TD*%
D21*
%TO.C,R22*%
X227457000Y-192659000D03*
D15*
X214757000Y-192659000D03*
%TD*%
D21*
%TO.C,C1*%
X233045000Y-136144000D03*
D15*
X220345000Y-136144000D03*
%TD*%
D21*
%TO.C,R53*%
X299085000Y-128524000D03*
D15*
X286385000Y-128524000D03*
%TD*%
D21*
%TO.C,R36*%
X312547000Y-194564000D03*
D15*
X312547000Y-184404000D03*
%TD*%
D22*
%TO.C,C12*%
X378079000Y-184785000D03*
D23*
X365125000Y-184785000D03*
%TD*%
D21*
%TO.C,R75*%
X75311000Y-137160000D03*
D15*
X62611000Y-137160000D03*
%TD*%
D21*
%TO.C,R71*%
X40640000Y-188849000D03*
D15*
X40640000Y-201549000D03*
%TD*%
D21*
%TO.C,R7*%
X45720000Y-134620000D03*
D15*
X58420000Y-134620000D03*
%TD*%
D21*
%TO.C,R3*%
X58420000Y-124460000D03*
D15*
X45720000Y-124460000D03*
%TD*%
D21*
%TO.C,C52*%
X392303000Y-180213000D03*
D15*
X392303000Y-167513000D03*
%TD*%
D21*
%TO.C,DC2*%
X109347000Y-118491000D03*
D15*
X109347000Y-131191000D03*
%TD*%
D14*
%TO.C,IC34*%
X150495000Y-119380000D03*
D15*
X150495000Y-121920000D03*
X150495000Y-124460000D03*
X150495000Y-127000000D03*
X150495000Y-129540000D03*
X150495000Y-132080000D03*
X150495000Y-134620000D03*
X150495000Y-137160000D03*
X150495000Y-139700000D03*
X150495000Y-142240000D03*
X150495000Y-144780000D03*
X150495000Y-147320000D03*
X150495000Y-149860000D03*
X150495000Y-152400000D03*
X165735000Y-152400000D03*
X165735000Y-149860000D03*
X165735000Y-147320000D03*
X165735000Y-144780000D03*
X165735000Y-142240000D03*
X165735000Y-139700000D03*
X165735000Y-137160000D03*
X165735000Y-134620000D03*
X165735000Y-132080000D03*
X165735000Y-129540000D03*
X165735000Y-127000000D03*
X165735000Y-124460000D03*
X165735000Y-121920000D03*
X165735000Y-119380000D03*
%TD*%
D21*
%TO.C,R27*%
X355219000Y-138684000D03*
D15*
X367919000Y-138684000D03*
%TD*%
D21*
%TO.C,DC4*%
X168275000Y-118364000D03*
D15*
X168275000Y-131064000D03*
%TD*%
D21*
%TO.C,C51*%
X317119000Y-180086000D03*
D15*
X317119000Y-167386000D03*
%TD*%
D21*
%TO.C,R38*%
X317627000Y-184404000D03*
D15*
X317627000Y-194564000D03*
%TD*%
D16*
%TO.C,LS1*%
X334645000Y-122428000D03*
D17*
X334645000Y-124968000D03*
%TD*%
D21*
%TO.C,R102*%
X361315000Y-156464000D03*
D15*
X374015000Y-156464000D03*
%TD*%
D21*
%TO.C,R66*%
X211455000Y-174879000D03*
D15*
X198755000Y-174879000D03*
%TD*%
D24*
%TO.C,D6*%
X198755000Y-200279000D03*
D25*
X211455000Y-200279000D03*
%TD*%
D24*
%TO.C,D4*%
X234696000Y-190754000D03*
D25*
X234696000Y-203454000D03*
%TD*%
D14*
%TO.C,IC2*%
X99187000Y-160020000D03*
D15*
X99187000Y-162560000D03*
X99187000Y-165100000D03*
X99187000Y-167640000D03*
X99187000Y-170180000D03*
X99187000Y-172720000D03*
X99187000Y-175260000D03*
X99187000Y-177800000D03*
X106807000Y-177800000D03*
X106807000Y-175260000D03*
X106807000Y-172720000D03*
X106807000Y-170180000D03*
X106807000Y-167640000D03*
X106807000Y-165100000D03*
X106807000Y-162560000D03*
X106807000Y-160020000D03*
%TD*%
D21*
%TO.C,R70*%
X86995000Y-142748000D03*
D15*
X86995000Y-155448000D03*
%TD*%
D21*
%TO.C,R43*%
X389890000Y-180213000D03*
D15*
X389890000Y-167513000D03*
%TD*%
D21*
%TO.C,R39*%
X393065000Y-184531000D03*
D15*
X393065000Y-194691000D03*
%TD*%
D21*
%TO.C,DC22*%
X122047000Y-201295000D03*
D15*
X122047000Y-188595000D03*
%TD*%
D21*
%TO.C,R41*%
X390525000Y-184531000D03*
D15*
X390525000Y-194691000D03*
%TD*%
D28*
%TO.C,L4*%
X366141000Y-192024000D03*
D29*
X365091000Y-192024000D03*
D28*
X367411000Y-193294000D03*
D30*
X368461000Y-193294000D03*
D28*
X366141000Y-194564000D03*
D29*
X365091000Y-194564000D03*
D28*
X367411000Y-195707000D03*
D30*
X368461000Y-195707000D03*
%TD*%
D21*
%TO.C,R2*%
X58420000Y-129540000D03*
D15*
X45720000Y-129540000D03*
%TD*%
D21*
%TO.C,R105*%
X374142000Y-153924000D03*
D15*
X361442000Y-153924000D03*
%TD*%
D36*
%TO.C,L9*%
X373541000Y-192024000D03*
X373541000Y-195326000D03*
%TD*%
D21*
%TO.C,R5*%
X58420000Y-119380000D03*
D15*
X45720000Y-119380000D03*
%TD*%
D33*
%TO.C,C35*%
X236397800Y-108813600D03*
D34*
X236397800Y-129133600D03*
%TD*%
D21*
%TO.C,R79*%
X75311000Y-119380000D03*
D15*
X62611000Y-119380000D03*
%TD*%
D31*
%TO.C,IC36*%
X359029000Y-106934000D03*
D32*
X361569000Y-104394000D03*
X364109000Y-106934000D03*
%TD*%
D21*
%TO.C,R87*%
X297585000Y-110230000D03*
D15*
X310285000Y-110230000D03*
%TD*%
D21*
%TO.C,DC14*%
X134747000Y-177800000D03*
D15*
X134747000Y-165100000D03*
%TD*%
D14*
%TO.C,C40*%
X316397000Y-138176000D03*
D21*
X318897000Y-138176000D03*
%TD*%
%TO.C,DC18*%
X80010000Y-203200000D03*
D15*
X67310000Y-203200000D03*
%TD*%
D16*
%TO.C,J102*%
X293497000Y-181356000D03*
D17*
X296037000Y-181356000D03*
X298577000Y-181356000D03*
X301117000Y-181356000D03*
X303657000Y-181356000D03*
X306197000Y-181356000D03*
X308737000Y-181356000D03*
%TD*%
D40*
%TO.C,X4*%
X218567000Y-157153000D03*
X218567000Y-152273000D03*
%TD*%
D14*
%TO.C,IC21*%
X111760000Y-124460000D03*
D15*
X111760000Y-127000000D03*
X111760000Y-129540000D03*
X111760000Y-132080000D03*
X111760000Y-134620000D03*
X111760000Y-137160000D03*
X111760000Y-139700000D03*
X111760000Y-142240000D03*
X111760000Y-144780000D03*
X111760000Y-147320000D03*
X119380000Y-147320000D03*
X119380000Y-144780000D03*
X119380000Y-142240000D03*
X119380000Y-139700000D03*
X119380000Y-137160000D03*
X119380000Y-134620000D03*
X119380000Y-132080000D03*
X119380000Y-129540000D03*
X119380000Y-127000000D03*
X119380000Y-124460000D03*
%TD*%
D14*
%TO.C,IC22*%
X66167000Y-142240000D03*
D15*
X66167000Y-144780000D03*
X66167000Y-147320000D03*
X66167000Y-149860000D03*
X66167000Y-152400000D03*
X66167000Y-154940000D03*
X66167000Y-157480000D03*
X66167000Y-160020000D03*
X66167000Y-162560000D03*
X66167000Y-165100000D03*
X66167000Y-167640000D03*
X66167000Y-170180000D03*
X66167000Y-172720000D03*
X66167000Y-175260000D03*
X66167000Y-177800000D03*
X66167000Y-180340000D03*
X66167000Y-182880000D03*
X66167000Y-185420000D03*
X66167000Y-187960000D03*
X66167000Y-190500000D03*
X81407000Y-190500000D03*
X81407000Y-187960000D03*
X81407000Y-185420000D03*
X81407000Y-182880000D03*
X81407000Y-180340000D03*
X81407000Y-177800000D03*
X81407000Y-175260000D03*
X81407000Y-172720000D03*
X81407000Y-170180000D03*
X81407000Y-167640000D03*
X81407000Y-165100000D03*
X81407000Y-162560000D03*
X81407000Y-160020000D03*
X81407000Y-157480000D03*
X81407000Y-154940000D03*
X81407000Y-152400000D03*
X81407000Y-149860000D03*
X81407000Y-147320000D03*
X81407000Y-144780000D03*
X81407000Y-142240000D03*
%TD*%
D16*
%TO.C,HDB2*%
X363855000Y-148844000D03*
D17*
X366395000Y-148844000D03*
X368935000Y-148844000D03*
X371475000Y-148844000D03*
X374015000Y-148844000D03*
X376555000Y-148844000D03*
X379095000Y-148844000D03*
X363855000Y-151384000D03*
X366395000Y-151384000D03*
X368935000Y-151384000D03*
X371475000Y-151384000D03*
X374015000Y-151384000D03*
X376555000Y-151384000D03*
X379095000Y-151384000D03*
%TD*%
D21*
%TO.C,R19*%
X227457000Y-200279000D03*
D15*
X214757000Y-200279000D03*
%TD*%
D21*
%TO.C,R99*%
X367919000Y-136144000D03*
D15*
X355219000Y-136144000D03*
%TD*%
D17*
%TO.C,J12*%
X206375000Y-170180000D03*
D16*
X206375000Y-167640000D03*
D17*
X208915000Y-170180000D03*
X208915000Y-167640000D03*
X211455000Y-170180000D03*
X211455000Y-167640000D03*
X213995000Y-170180000D03*
X213995000Y-167640000D03*
X216535000Y-170180000D03*
X216535000Y-167640000D03*
X219075000Y-170180000D03*
X219075000Y-167640000D03*
X221615000Y-170180000D03*
X221615000Y-167640000D03*
X224155000Y-170180000D03*
X224155000Y-167640000D03*
X226695000Y-170180000D03*
X226695000Y-167640000D03*
X229235000Y-170180000D03*
X229235000Y-167640000D03*
X231775000Y-170180000D03*
X231775000Y-167640000D03*
%TD*%
D21*
%TO.C,R24*%
X227457000Y-187579000D03*
D15*
X214757000Y-187579000D03*
%TD*%
D33*
%TO.C,C4*%
X193675000Y-109220000D03*
D34*
X173355000Y-109220000D03*
%TD*%
D24*
%TO.C,D11*%
X198755000Y-187579000D03*
D25*
X211455000Y-187579000D03*
%TD*%
D21*
%TO.C,R14*%
X348107000Y-94488000D03*
D15*
X348107000Y-107188000D03*
%TD*%
D14*
%TO.C,M1*%
X247777000Y-119126000D03*
D15*
X247777000Y-100076000D03*
D44*
X254127000Y-108966000D03*
D45*
X293497000Y-108966000D03*
D15*
X247777000Y-108966000D03*
%TD*%
D21*
%TO.C,DC12*%
X109347000Y-177800000D03*
D15*
X109347000Y-165100000D03*
%TD*%
D14*
%TO.C,IC38*%
X171577000Y-114300000D03*
D15*
X171577000Y-116840000D03*
X171577000Y-119380000D03*
X171577000Y-121920000D03*
X171577000Y-124460000D03*
X171577000Y-127000000D03*
X171577000Y-129540000D03*
X171577000Y-132080000D03*
X171577000Y-134620000D03*
X171577000Y-137160000D03*
X179197000Y-137160000D03*
X179197000Y-134620000D03*
X179197000Y-132080000D03*
X179197000Y-129540000D03*
X179197000Y-127000000D03*
X179197000Y-124460000D03*
X179197000Y-121920000D03*
X179197000Y-119380000D03*
X179197000Y-116840000D03*
X179197000Y-114300000D03*
%TD*%
D31*
%TO.C,TR9*%
X301625000Y-127254000D03*
D32*
X304165000Y-124714000D03*
X306705000Y-127254000D03*
%TD*%
D21*
%TO.C,R6*%
X58420000Y-121920000D03*
D15*
X45720000Y-121920000D03*
%TD*%
D39*
%TO.C,S3*%
X363855000Y-116840000D03*
X367665000Y-116840000D03*
X371475000Y-116840000D03*
X363855000Y-110744000D03*
X367665000Y-110744000D03*
X371475000Y-110744000D03*
%TD*%
D14*
%TO.C,C38*%
X316865000Y-127762000D03*
D21*
X316865000Y-130262000D03*
%TD*%
%TO.C,C2*%
X84201000Y-155448000D03*
D15*
X84201000Y-142748000D03*
%TD*%
D21*
%TO.C,L3*%
X296545000Y-92964000D03*
D15*
X296545000Y-107950000D03*
%TD*%
D21*
%TO.C,DC23*%
X134747000Y-201295000D03*
D15*
X134747000Y-188595000D03*
%TD*%
D31*
%TO.C,IC37*%
X335407000Y-131318000D03*
D32*
X332867000Y-128778000D03*
X330327000Y-131318000D03*
%TD*%
D21*
%TO.C,C36*%
X250317000Y-97536000D03*
D15*
X237617000Y-97536000D03*
%TD*%
D21*
%TO.C,DC1*%
X91567000Y-119380000D03*
D15*
X91567000Y-132080000D03*
%TD*%
D14*
%TO.C,IC20*%
X99060000Y-124460000D03*
D15*
X99060000Y-127000000D03*
X99060000Y-129540000D03*
X99060000Y-132080000D03*
X99060000Y-134620000D03*
X99060000Y-137160000D03*
X99060000Y-139700000D03*
X99060000Y-142240000D03*
X106680000Y-142240000D03*
X106680000Y-139700000D03*
X106680000Y-137160000D03*
X106680000Y-134620000D03*
X106680000Y-132080000D03*
X106680000Y-129540000D03*
X106680000Y-127000000D03*
X106680000Y-124460000D03*
%TD*%
D21*
%TO.C,R106*%
X313817000Y-152400000D03*
D15*
X326517000Y-152400000D03*
%TD*%
D40*
%TO.C,X1*%
X100330000Y-148209000D03*
X95450000Y-148209000D03*
%TD*%
D21*
%TO.C,DC9*%
X42545000Y-165100000D03*
D15*
X42545000Y-177800000D03*
%TD*%
D14*
%TO.C,IC14*%
X149987000Y-183515000D03*
D15*
X149987000Y-186055000D03*
X149987000Y-188595000D03*
X149987000Y-191135000D03*
X149987000Y-193675000D03*
X149987000Y-196215000D03*
X149987000Y-198755000D03*
X149987000Y-201295000D03*
X157607000Y-201295000D03*
X157607000Y-198755000D03*
X157607000Y-196215000D03*
X157607000Y-193675000D03*
X157607000Y-191135000D03*
X157607000Y-188595000D03*
X157607000Y-186055000D03*
X157607000Y-183515000D03*
%TD*%
D21*
%TO.C,DC19*%
X83947000Y-201676000D03*
D15*
X83947000Y-188976000D03*
%TD*%
D14*
%TO.C,IC8*%
X187833000Y-183515000D03*
D15*
X187833000Y-186055000D03*
X187833000Y-188595000D03*
X187833000Y-191135000D03*
X187833000Y-193675000D03*
X187833000Y-196215000D03*
X187833000Y-198755000D03*
X187833000Y-201295000D03*
X195453000Y-201295000D03*
X195453000Y-198755000D03*
X195453000Y-196215000D03*
X195453000Y-193675000D03*
X195453000Y-191135000D03*
X195453000Y-188595000D03*
X195453000Y-186055000D03*
X195453000Y-183515000D03*
%TD*%
D16*
%TO.C,D20*%
X229743000Y-117856000D03*
D17*
X229743000Y-115316000D03*
%TD*%
D21*
%TO.C,DC8*%
X233045000Y-144780000D03*
D15*
X233045000Y-157480000D03*
%TD*%
D21*
%TO.C,DC17*%
X43180000Y-188849000D03*
D15*
X43180000Y-201549000D03*
%TD*%
D21*
%TO.C,R64*%
X211455000Y-179959000D03*
D15*
X198755000Y-179959000D03*
%TD*%
D24*
%TO.C,D28*%
X342392000Y-156591000D03*
D25*
X329692000Y-156591000D03*
%TD*%
D21*
%TO.C,R11*%
X352044000Y-133604000D03*
D15*
X339344000Y-133604000D03*
%TD*%
D21*
%TO.C,R4*%
X58420000Y-127000000D03*
D15*
X45720000Y-127000000D03*
%TD*%
D31*
%TO.C,TR8*%
X159385000Y-112776000D03*
D32*
X156845000Y-115316000D03*
X154305000Y-112776000D03*
%TD*%
D21*
%TO.C,R50*%
X270637000Y-127254000D03*
D15*
X283337000Y-127254000D03*
%TD*%
D21*
%TO.C,R16*%
X356235000Y-117856000D03*
D15*
X356235000Y-105156000D03*
%TD*%
D21*
%TO.C,R73*%
X75311000Y-124460000D03*
D15*
X62611000Y-124460000D03*
%TD*%
D33*
%TO.C,C24*%
X236474000Y-135947500D03*
D34*
X256794000Y-135947500D03*
%TD*%
D21*
%TO.C,C28*%
X283337000Y-146304000D03*
D15*
X270637000Y-146304000D03*
%TD*%
D24*
%TO.C,D17*%
X367919000Y-146812000D03*
D25*
X355219000Y-146812000D03*
%TD*%
D24*
%TO.C,D15*%
X381635000Y-184531000D03*
D25*
X381635000Y-194691000D03*
%TD*%
D14*
%TO.C,IC24*%
X237617000Y-155194000D03*
D15*
X237617000Y-157734000D03*
X237617000Y-160274000D03*
X237617000Y-162814000D03*
X237617000Y-165354000D03*
X237617000Y-167894000D03*
X237617000Y-170434000D03*
X237617000Y-172974000D03*
X237617000Y-175514000D03*
X237617000Y-178054000D03*
X237617000Y-180594000D03*
X237617000Y-183134000D03*
X237617000Y-185674000D03*
X237617000Y-188214000D03*
X237617000Y-190754000D03*
X237617000Y-193294000D03*
X237617000Y-195834000D03*
X237617000Y-198374000D03*
X237617000Y-200914000D03*
X237617000Y-203454000D03*
X252857000Y-203454000D03*
X252857000Y-200914000D03*
X252857000Y-198374000D03*
X252857000Y-195834000D03*
X252857000Y-193294000D03*
X252857000Y-190754000D03*
X252857000Y-188214000D03*
X252857000Y-185674000D03*
X252857000Y-183134000D03*
X252857000Y-180594000D03*
X252857000Y-178054000D03*
X252857000Y-175514000D03*
X252857000Y-172974000D03*
X252857000Y-170434000D03*
X252857000Y-167894000D03*
X252857000Y-165354000D03*
X252857000Y-162814000D03*
X252857000Y-160274000D03*
X252857000Y-157734000D03*
X252857000Y-155194000D03*
%TD*%
D21*
%TO.C,R52*%
X299085000Y-125984000D03*
D15*
X286385000Y-125984000D03*
%TD*%
D21*
%TO.C,DC11*%
X96647000Y-177800000D03*
D15*
X96647000Y-165100000D03*
%TD*%
D16*
%TO.C,D21*%
X229743000Y-123063000D03*
D17*
X229743000Y-120523000D03*
%TD*%
D14*
%TO.C,IC15*%
X162687000Y-183515000D03*
D15*
X162687000Y-186055000D03*
X162687000Y-188595000D03*
X162687000Y-191135000D03*
X162687000Y-193675000D03*
X162687000Y-196215000D03*
X162687000Y-198755000D03*
X162687000Y-201295000D03*
X170307000Y-201295000D03*
X170307000Y-198755000D03*
X170307000Y-196215000D03*
X170307000Y-193675000D03*
X170307000Y-191135000D03*
X170307000Y-188595000D03*
X170307000Y-186055000D03*
X170307000Y-183515000D03*
%TD*%
M02*
