%TF.GenerationSoftware,KiCad,Pcbnew,8.0.6+1*%
%TF.CreationDate,2024-12-23T15:37:46+01:00*%
%TF.ProjectId,Issue_6,49737375-655f-4362-9e6b-696361645f70,0*%
%TF.SameCoordinates,Original*%
%TF.FileFunction,Legend,Bot*%
%TF.FilePolarity,Positive*%
%FSLAX46Y46*%
G04 Gerber Fmt 4.6, Leading zero omitted, Abs format (unit mm)*
G04 Created by KiCad (PCBNEW 8.0.6+1) date 2024-12-23 15:37:46*
%MOMM*%
%LPD*%
G01*
G04 APERTURE LIST*
%ADD10C,0.350000*%
G04 APERTURE END LIST*
D10*
X344805000Y-94488000D03*
X344805000Y-107061000D03*
X85725000Y-114845000D03*
X85725000Y-112305000D03*
X83185000Y-114845000D03*
X83185000Y-112305000D03*
X80645000Y-114845000D03*
X80645000Y-112305000D03*
X78105000Y-114845000D03*
X78105000Y-112305000D03*
X75565000Y-114845000D03*
X75565000Y-112305000D03*
X70485000Y-114845000D03*
X70485000Y-112305000D03*
X67945000Y-114845000D03*
X67945000Y-112305000D03*
X65405000Y-114845000D03*
X65405000Y-112305000D03*
X62865000Y-114845000D03*
X62865000Y-112305000D03*
X60325000Y-114845000D03*
X60325000Y-112305000D03*
X57785000Y-114845000D03*
X57785000Y-112305000D03*
X55245000Y-114845000D03*
X55245000Y-112305000D03*
X52705000Y-114845000D03*
X52705000Y-112305000D03*
X50165000Y-114845000D03*
X50165000Y-112305000D03*
X323215000Y-106045000D03*
X323215000Y-93472000D03*
X351703000Y-96092000D03*
X351703000Y-100283000D03*
X361355000Y-100283000D03*
X377571000Y-96092000D03*
X377571000Y-100283000D03*
X387223000Y-100283000D03*
X276225000Y-190683000D03*
X278765000Y-190683000D03*
X281305000Y-190683000D03*
X58420000Y-137160000D03*
X45720000Y-137160000D03*
X358902000Y-129286000D03*
X356402000Y-129286000D03*
X297585000Y-115310000D03*
X310285000Y-115310000D03*
X211455000Y-185039000D03*
X198755000Y-185039000D03*
X283337000Y-137414000D03*
X270637000Y-137414000D03*
X347980000Y-193929000D03*
X360934000Y-193929000D03*
X227457000Y-182499000D03*
X214757000Y-182499000D03*
X368935000Y-175006000D03*
X371475000Y-175006000D03*
X374015000Y-175006000D03*
X376555000Y-175006000D03*
X379095000Y-175006000D03*
X381635000Y-175006000D03*
X384175000Y-175006000D03*
X244094000Y-146304000D03*
X256794000Y-146304000D03*
X233045000Y-138938000D03*
X220345000Y-138938000D03*
X227457000Y-195199000D03*
X214757000Y-195199000D03*
X398145000Y-191453000D03*
X398145000Y-193453000D03*
X398145000Y-195453000D03*
X227457000Y-185039000D03*
X214757000Y-185039000D03*
X137287000Y-160020000D03*
X137287000Y-162560000D03*
X137287000Y-165100000D03*
X137287000Y-167640000D03*
X137287000Y-170180000D03*
X137287000Y-172720000D03*
X137287000Y-175260000D03*
X137287000Y-177800000D03*
X144907000Y-177800000D03*
X144907000Y-175260000D03*
X144907000Y-172720000D03*
X144907000Y-170180000D03*
X144907000Y-167640000D03*
X144907000Y-165100000D03*
X144907000Y-162560000D03*
X144907000Y-160020000D03*
X235077000Y-96647000D03*
X222377000Y-96647000D03*
X373166000Y-121793000D03*
X375666000Y-121793000D03*
X75311000Y-134620000D03*
X62611000Y-134620000D03*
X306197000Y-167386000D03*
X293497000Y-167386000D03*
X147447000Y-201295000D03*
X147447000Y-188595000D03*
X290449000Y-191516000D03*
X290449000Y-191516000D03*
X291719000Y-192786000D03*
X291719000Y-192786000D03*
X290449000Y-194056000D03*
X290449000Y-194056000D03*
X291719000Y-195199000D03*
X291719000Y-195199000D03*
X355219000Y-141224000D03*
X367919000Y-141224000D03*
X286385000Y-143764000D03*
X299085000Y-143764000D03*
X234950000Y-99568000D03*
X222250000Y-99568000D03*
X319659000Y-180086000D03*
X319659000Y-167386000D03*
X329565000Y-147066000D03*
X327025000Y-144526000D03*
X329565000Y-141986000D03*
X297585000Y-120390000D03*
X310285000Y-120390000D03*
X220218000Y-128651000D03*
X232918000Y-128651000D03*
X227457000Y-197739000D03*
X214757000Y-197739000D03*
X175387000Y-183515000D03*
X175387000Y-186055000D03*
X175387000Y-188595000D03*
X175387000Y-191135000D03*
X175387000Y-193675000D03*
X175387000Y-196215000D03*
X175387000Y-198755000D03*
X175387000Y-201295000D03*
X183007000Y-201295000D03*
X183007000Y-198755000D03*
X183007000Y-196215000D03*
X183007000Y-193675000D03*
X183007000Y-191135000D03*
X183007000Y-188595000D03*
X183007000Y-186055000D03*
X183007000Y-183515000D03*
X217170000Y-124460000D03*
X217170000Y-111760000D03*
X326517000Y-152400000D03*
X313817000Y-152400000D03*
X313817000Y-149860000D03*
X326517000Y-149860000D03*
X315087000Y-133705600D03*
X302387000Y-133705600D03*
X137287000Y-183515000D03*
X137287000Y-186055000D03*
X137287000Y-188595000D03*
X137287000Y-191135000D03*
X137287000Y-193675000D03*
X137287000Y-196215000D03*
X137287000Y-198755000D03*
X137287000Y-201295000D03*
X144907000Y-201295000D03*
X144907000Y-198755000D03*
X144907000Y-196215000D03*
X144907000Y-193675000D03*
X144907000Y-191135000D03*
X144907000Y-188595000D03*
X144907000Y-186055000D03*
X144907000Y-183515000D03*
X96647000Y-201295000D03*
X96647000Y-188595000D03*
X395097000Y-180213000D03*
X395097000Y-167513000D03*
X288417000Y-156972000D03*
X301117000Y-156972000D03*
X326567800Y-104444800D03*
X326567800Y-129844800D03*
X172847000Y-201295000D03*
X172847000Y-188595000D03*
X192913000Y-101600000D03*
X194437000Y-97790000D03*
X195961000Y-101600000D03*
X197485000Y-97790000D03*
X199009000Y-101600000D03*
X200533000Y-97790000D03*
X309245000Y-167335200D03*
X309245000Y-169875200D03*
X40005000Y-115570000D03*
X40005000Y-102870000D03*
X306197000Y-184650000D03*
X306197000Y-194810000D03*
X370205000Y-94488000D03*
X367665000Y-97028000D03*
X365125000Y-94488000D03*
X181610000Y-118745000D03*
X181610000Y-131445000D03*
X219583000Y-95377000D03*
X219583000Y-108077000D03*
X291211000Y-148844000D03*
X293751000Y-148844000D03*
X296291000Y-148844000D03*
X298831000Y-148844000D03*
X301371000Y-148844000D03*
X303911000Y-148844000D03*
X306451000Y-148844000D03*
X291211000Y-151384000D03*
X293751000Y-151384000D03*
X296291000Y-151384000D03*
X298831000Y-151384000D03*
X301371000Y-151384000D03*
X303911000Y-151384000D03*
X306451000Y-151384000D03*
X211455000Y-182499000D03*
X198755000Y-182499000D03*
X308269000Y-138684000D03*
X310769000Y-138684000D03*
X312039000Y-180086000D03*
X312039000Y-167386000D03*
X75184000Y-129540000D03*
X62484000Y-129540000D03*
X368935000Y-169799000D03*
X381635000Y-169799000D03*
X286385000Y-138684000D03*
X299085000Y-138684000D03*
X214757000Y-179959000D03*
X227457000Y-179959000D03*
X270637000Y-124714000D03*
X283337000Y-124714000D03*
X334645000Y-147574000D03*
X332105000Y-145034000D03*
X334645000Y-142494000D03*
X45720000Y-142240000D03*
X45720000Y-144780000D03*
X45720000Y-147320000D03*
X45720000Y-149860000D03*
X45720000Y-152400000D03*
X45720000Y-154940000D03*
X45720000Y-157480000D03*
X45720000Y-160020000D03*
X45720000Y-162560000D03*
X45720000Y-165100000D03*
X45720000Y-167640000D03*
X45720000Y-170180000D03*
X45720000Y-172720000D03*
X45720000Y-175260000D03*
X45720000Y-177800000D03*
X45720000Y-180340000D03*
X45720000Y-182880000D03*
X45720000Y-185420000D03*
X45720000Y-187960000D03*
X45720000Y-190500000D03*
X45720000Y-193040000D03*
X45720000Y-195580000D03*
X45720000Y-198120000D03*
X45720000Y-200660000D03*
X60960000Y-200660000D03*
X60960000Y-198120000D03*
X60960000Y-195580000D03*
X60960000Y-193040000D03*
X60960000Y-190500000D03*
X60960000Y-187960000D03*
X60960000Y-185420000D03*
X60960000Y-182880000D03*
X60960000Y-180340000D03*
X60960000Y-177800000D03*
X60960000Y-175260000D03*
X60960000Y-172720000D03*
X60960000Y-170180000D03*
X60960000Y-167640000D03*
X60960000Y-165100000D03*
X60960000Y-162560000D03*
X60960000Y-160020000D03*
X60960000Y-157480000D03*
X60960000Y-154940000D03*
X60960000Y-152400000D03*
X60960000Y-149860000D03*
X60960000Y-147320000D03*
X60960000Y-144780000D03*
X60960000Y-142240000D03*
X361442000Y-153924000D03*
X374142000Y-153924000D03*
X259715000Y-128524000D03*
X259715000Y-131064000D03*
X259715000Y-133604000D03*
X259715000Y-136144000D03*
X259715000Y-138684000D03*
X259715000Y-141224000D03*
X259715000Y-143764000D03*
X259715000Y-146304000D03*
X259715000Y-148844000D03*
X259715000Y-151384000D03*
X267335000Y-151384000D03*
X267335000Y-148844000D03*
X267335000Y-146304000D03*
X267335000Y-143764000D03*
X267335000Y-141224000D03*
X267335000Y-138684000D03*
X267335000Y-136144000D03*
X267335000Y-133604000D03*
X267335000Y-131064000D03*
X267335000Y-128524000D03*
X185420000Y-201295000D03*
X185420000Y-188595000D03*
X141351000Y-101600000D03*
X142875000Y-97790000D03*
X144399000Y-101600000D03*
X145923000Y-97790000D03*
X147447000Y-101600000D03*
X148971000Y-97790000D03*
X302641000Y-184658000D03*
X289687000Y-184658000D03*
X270637000Y-143764000D03*
X283337000Y-143764000D03*
X364490000Y-128207888D03*
X364490000Y-130707888D03*
X227457000Y-202819000D03*
X214757000Y-202819000D03*
X306197000Y-178308000D03*
X293497000Y-178308000D03*
X345567000Y-156591000D03*
X358267000Y-156591000D03*
X237744000Y-94996000D03*
X250444000Y-94996000D03*
X227457000Y-190119000D03*
X214757000Y-190119000D03*
X297585000Y-117850000D03*
X310285000Y-117850000D03*
X142621000Y-118110000D03*
X142621000Y-130810000D03*
X216027000Y-136398000D03*
X216027000Y-134698000D03*
X369697000Y-121920000D03*
X354697000Y-121920000D03*
X355219000Y-144018000D03*
X367919000Y-144018000D03*
X75184000Y-131953000D03*
X62484000Y-131953000D03*
X270637000Y-129674000D03*
X283337000Y-129674000D03*
X261874000Y-125095000D03*
X249174000Y-125095000D03*
X315087000Y-184404000D03*
X315087000Y-194564000D03*
X368935000Y-181483000D03*
X371475000Y-181483000D03*
X374015000Y-181483000D03*
X376555000Y-181483000D03*
X379095000Y-181483000D03*
X381635000Y-181483000D03*
X384175000Y-181483000D03*
X387731000Y-105664000D03*
X375031000Y-105664000D03*
X220218000Y-131191000D03*
X232918000Y-131191000D03*
X160147000Y-177800000D03*
X160147000Y-165100000D03*
X217043000Y-108077000D03*
X217043000Y-95377000D03*
X184150000Y-114300000D03*
X184150000Y-116840000D03*
X184150000Y-119380000D03*
X184150000Y-121920000D03*
X184150000Y-124460000D03*
X184150000Y-127000000D03*
X184150000Y-129540000D03*
X191770000Y-129540000D03*
X191770000Y-127000000D03*
X191770000Y-124460000D03*
X191770000Y-121920000D03*
X191770000Y-119380000D03*
X191770000Y-116840000D03*
X191770000Y-114300000D03*
X339217000Y-136144000D03*
X351917000Y-136144000D03*
X124968000Y-119380000D03*
X124968000Y-121920000D03*
X124968000Y-124460000D03*
X124968000Y-127000000D03*
X124968000Y-129540000D03*
X124968000Y-132080000D03*
X124968000Y-134620000D03*
X124968000Y-137160000D03*
X124968000Y-139700000D03*
X124968000Y-142240000D03*
X124968000Y-144780000D03*
X124968000Y-147320000D03*
X124968000Y-149860000D03*
X124968000Y-152400000D03*
X140208000Y-152400000D03*
X140208000Y-149860000D03*
X140208000Y-147320000D03*
X140208000Y-144780000D03*
X140208000Y-142240000D03*
X140208000Y-139700000D03*
X140208000Y-137160000D03*
X140208000Y-134620000D03*
X140208000Y-132080000D03*
X140208000Y-129540000D03*
X140208000Y-127000000D03*
X140208000Y-124460000D03*
X140208000Y-121920000D03*
X140208000Y-119380000D03*
X99187000Y-183515000D03*
X99187000Y-186055000D03*
X99187000Y-188595000D03*
X99187000Y-191135000D03*
X99187000Y-193675000D03*
X99187000Y-196215000D03*
X99187000Y-198755000D03*
X99187000Y-201295000D03*
X106807000Y-201295000D03*
X106807000Y-198755000D03*
X106807000Y-196215000D03*
X106807000Y-193675000D03*
X106807000Y-191135000D03*
X106807000Y-188595000D03*
X106807000Y-186055000D03*
X106807000Y-183515000D03*
X270637000Y-132214000D03*
X283337000Y-132214000D03*
X385445000Y-194691000D03*
X385445000Y-184531000D03*
X338963000Y-115570000D03*
X351663000Y-115570000D03*
X326517000Y-147320000D03*
X313817000Y-147320000D03*
X198755000Y-190119000D03*
X211455000Y-190119000D03*
X75311000Y-127000000D03*
X62611000Y-127000000D03*
X111887000Y-160020000D03*
X111887000Y-162560000D03*
X111887000Y-165100000D03*
X111887000Y-167640000D03*
X111887000Y-170180000D03*
X111887000Y-172720000D03*
X111887000Y-175260000D03*
X111887000Y-177800000D03*
X119507000Y-177800000D03*
X119507000Y-175260000D03*
X119507000Y-172720000D03*
X119507000Y-170180000D03*
X119507000Y-167640000D03*
X119507000Y-165100000D03*
X119507000Y-162560000D03*
X119507000Y-160020000D03*
X286385000Y-131064000D03*
X299085000Y-131064000D03*
X345821000Y-112014000D03*
X343281000Y-112014000D03*
X340741000Y-112014000D03*
X320167000Y-194564000D03*
X320167000Y-184404000D03*
X293497000Y-175006000D03*
X296037000Y-175006000D03*
X298577000Y-175006000D03*
X301117000Y-175006000D03*
X303657000Y-175006000D03*
X306197000Y-175006000D03*
X308737000Y-175006000D03*
X114173000Y-101600000D03*
X115697000Y-97790000D03*
X117221000Y-101600000D03*
X118745000Y-97790000D03*
X120269000Y-101600000D03*
X121793000Y-97790000D03*
X310261000Y-112770000D03*
X297561000Y-112770000D03*
X283337000Y-151384000D03*
X270637000Y-151384000D03*
X234442000Y-175260000D03*
X234442000Y-187960000D03*
X395605000Y-194691000D03*
X395605000Y-184531000D03*
X314579000Y-180086000D03*
X314579000Y-167386000D03*
X297053000Y-192024000D03*
X297053000Y-195326000D03*
X36195000Y-97155000D03*
X36195000Y-94615000D03*
X211455000Y-177419000D03*
X198755000Y-177419000D03*
X198755000Y-195199000D03*
X211455000Y-195199000D03*
X58420000Y-132080000D03*
X45720000Y-132080000D03*
X176911000Y-177419000D03*
X189611000Y-177419000D03*
X299085000Y-136144000D03*
X286385000Y-136144000D03*
X240411000Y-151384000D03*
X242951000Y-151384000D03*
X223012000Y-144780000D03*
X223012000Y-147320000D03*
X223012000Y-149860000D03*
X223012000Y-152400000D03*
X223012000Y-154940000D03*
X223012000Y-157480000D03*
X223012000Y-160020000D03*
X230632000Y-160020000D03*
X230632000Y-157480000D03*
X230632000Y-154940000D03*
X230632000Y-152400000D03*
X230632000Y-149860000D03*
X230632000Y-147320000D03*
X230632000Y-144780000D03*
X381635000Y-167513000D03*
X368935000Y-167513000D03*
X81534000Y-119380000D03*
X81534000Y-121920000D03*
X81534000Y-124460000D03*
X81534000Y-127000000D03*
X81534000Y-129540000D03*
X81534000Y-132080000D03*
X81534000Y-134620000D03*
X81534000Y-137160000D03*
X89154000Y-137160000D03*
X89154000Y-134620000D03*
X89154000Y-132080000D03*
X89154000Y-129540000D03*
X89154000Y-127000000D03*
X89154000Y-124460000D03*
X89154000Y-121920000D03*
X89154000Y-119380000D03*
X337185000Y-181991000D03*
X339725000Y-181991000D03*
X342265000Y-181991000D03*
X344805000Y-181991000D03*
X347345000Y-181991000D03*
X349885000Y-181991000D03*
X352425000Y-181991000D03*
X354965000Y-181991000D03*
X357505000Y-181991000D03*
X360045000Y-181991000D03*
X362585000Y-181991000D03*
X365125000Y-181991000D03*
X365125000Y-166751000D03*
X362585000Y-166751000D03*
X360045000Y-166751000D03*
X357505000Y-166751000D03*
X354965000Y-166751000D03*
X352425000Y-166751000D03*
X349885000Y-166751000D03*
X347345000Y-166751000D03*
X344805000Y-166751000D03*
X342265000Y-166751000D03*
X339725000Y-166751000D03*
X337185000Y-166751000D03*
X313055000Y-93585000D03*
X308055000Y-93585000D03*
X303102000Y-101459000D03*
X310595000Y-101459000D03*
X317961000Y-101459000D03*
X305388000Y-103999000D03*
X315548000Y-103999000D03*
X303055000Y-106666000D03*
X318055000Y-106666000D03*
X310555000Y-106666000D03*
X354457000Y-151384000D03*
X356997000Y-148844000D03*
X359537000Y-151384000D03*
X355219000Y-133604000D03*
X367919000Y-133604000D03*
X335915000Y-184785000D03*
X348615000Y-184785000D03*
X162687000Y-160020000D03*
X162687000Y-162560000D03*
X162687000Y-165100000D03*
X162687000Y-167640000D03*
X162687000Y-170180000D03*
X162687000Y-172720000D03*
X162687000Y-175260000D03*
X162687000Y-177800000D03*
X170307000Y-177800000D03*
X170307000Y-175260000D03*
X170307000Y-172720000D03*
X170307000Y-170180000D03*
X170307000Y-167640000D03*
X170307000Y-165100000D03*
X170307000Y-162560000D03*
X170307000Y-160020000D03*
X170180000Y-109220000D03*
X157480000Y-109220000D03*
X336169000Y-94570000D03*
X333629000Y-94570000D03*
X331089000Y-94570000D03*
X147447000Y-177800000D03*
X147447000Y-165100000D03*
X338963000Y-118364000D03*
X351663000Y-118364000D03*
X309372000Y-172466000D03*
X296672000Y-172466000D03*
X322707000Y-191262000D03*
X322707000Y-193262000D03*
X322707000Y-195262000D03*
X220218000Y-133731000D03*
X232918000Y-133731000D03*
X373420000Y-127889000D03*
X375920000Y-127889000D03*
X351663000Y-190810000D03*
X354203000Y-190810000D03*
X356743000Y-190810000D03*
X149987000Y-160020000D03*
X149987000Y-162560000D03*
X149987000Y-165100000D03*
X149987000Y-167640000D03*
X149987000Y-170180000D03*
X149987000Y-172720000D03*
X149987000Y-175260000D03*
X149987000Y-177800000D03*
X157607000Y-177800000D03*
X157607000Y-175260000D03*
X157607000Y-172720000D03*
X157607000Y-170180000D03*
X157607000Y-167640000D03*
X157607000Y-165100000D03*
X157607000Y-162560000D03*
X157607000Y-160020000D03*
X86487000Y-183515000D03*
X86487000Y-186055000D03*
X86487000Y-188595000D03*
X86487000Y-191135000D03*
X86487000Y-193675000D03*
X86487000Y-196215000D03*
X86487000Y-198755000D03*
X86487000Y-201295000D03*
X94107000Y-201295000D03*
X94107000Y-198755000D03*
X94107000Y-196215000D03*
X94107000Y-193675000D03*
X94107000Y-191135000D03*
X94107000Y-188595000D03*
X94107000Y-186055000D03*
X94107000Y-183515000D03*
X243459000Y-129159000D03*
X243459000Y-108839000D03*
X261747000Y-181864000D03*
X264287000Y-181864000D03*
X266827000Y-181864000D03*
X269367000Y-181864000D03*
X271907000Y-181864000D03*
X274447000Y-181864000D03*
X276987000Y-181864000D03*
X279527000Y-181864000D03*
X282067000Y-181864000D03*
X284607000Y-181864000D03*
X287147000Y-181864000D03*
X289687000Y-181864000D03*
X289687000Y-166624000D03*
X287147000Y-166624000D03*
X284607000Y-166624000D03*
X282067000Y-166624000D03*
X279527000Y-166624000D03*
X276987000Y-166624000D03*
X274447000Y-166624000D03*
X271907000Y-166624000D03*
X269367000Y-166624000D03*
X266827000Y-166624000D03*
X264287000Y-166624000D03*
X261747000Y-166624000D03*
X288417000Y-154432000D03*
X301117000Y-154432000D03*
X75311000Y-121920000D03*
X62611000Y-121920000D03*
X310007000Y-194564000D03*
X310007000Y-184404000D03*
X286385000Y-133604000D03*
X299085000Y-133604000D03*
X214503000Y-108077000D03*
X214503000Y-95377000D03*
X293497000Y-169672000D03*
X306197000Y-169672000D03*
X341503000Y-148336000D03*
X346503000Y-148336000D03*
X256717800Y-141986000D03*
X236397800Y-141986000D03*
X297585000Y-122930000D03*
X310285000Y-122930000D03*
X270637000Y-134874000D03*
X283337000Y-134874000D03*
X160147000Y-201295000D03*
X160147000Y-188595000D03*
X325247000Y-132334000D03*
X322707000Y-134874000D03*
X320167000Y-132334000D03*
X214757000Y-177419000D03*
X227457000Y-177419000D03*
X384683000Y-167487600D03*
X384683000Y-170027600D03*
X286385000Y-141224000D03*
X299085000Y-141224000D03*
X196977000Y-111760000D03*
X196977000Y-114300000D03*
X196977000Y-116840000D03*
X196977000Y-119380000D03*
X196977000Y-121920000D03*
X196977000Y-124460000D03*
X196977000Y-127000000D03*
X196977000Y-129540000D03*
X196977000Y-132080000D03*
X196977000Y-134620000D03*
X196977000Y-137160000D03*
X196977000Y-139700000D03*
X196977000Y-142240000D03*
X196977000Y-144780000D03*
X196977000Y-147320000D03*
X196977000Y-149860000D03*
X196977000Y-152400000D03*
X196977000Y-154940000D03*
X196977000Y-157480000D03*
X196977000Y-160020000D03*
X212217000Y-160020000D03*
X212217000Y-157480000D03*
X212217000Y-154940000D03*
X212217000Y-152400000D03*
X212217000Y-149860000D03*
X212217000Y-147320000D03*
X212217000Y-144780000D03*
X212217000Y-142240000D03*
X212217000Y-139700000D03*
X212217000Y-137160000D03*
X212217000Y-134620000D03*
X212217000Y-132080000D03*
X212217000Y-129540000D03*
X212217000Y-127000000D03*
X212217000Y-124460000D03*
X212217000Y-121920000D03*
X212217000Y-119380000D03*
X212217000Y-116840000D03*
X212217000Y-114300000D03*
X212217000Y-111760000D03*
X302387000Y-137160000D03*
X304927000Y-139700000D03*
X302387000Y-142240000D03*
X270637000Y-148844000D03*
X283337000Y-148844000D03*
X250698000Y-151257000D03*
X248158000Y-151257000D03*
X272479888Y-193802000D03*
X285433888Y-193802000D03*
X214757000Y-174879000D03*
X227457000Y-174879000D03*
X181610000Y-151765000D03*
X168910000Y-151765000D03*
X219710000Y-124460000D03*
X219710000Y-111760000D03*
X181610000Y-154305000D03*
X168910000Y-154305000D03*
X279527000Y-140716000D03*
X274647000Y-140716000D03*
X122047000Y-177800000D03*
X122047000Y-165100000D03*
X384810000Y-172593000D03*
X372110000Y-172593000D03*
X177292000Y-170120000D03*
X177292000Y-167580000D03*
X179832000Y-170120000D03*
X179832000Y-167580000D03*
X182372000Y-170120000D03*
X182372000Y-167580000D03*
X184912000Y-170120000D03*
X184912000Y-167580000D03*
X187452000Y-170120000D03*
X187452000Y-167580000D03*
X189992000Y-170120000D03*
X189992000Y-167580000D03*
X192532000Y-170120000D03*
X192532000Y-167580000D03*
X195072000Y-170120000D03*
X195072000Y-167580000D03*
X197612000Y-170120000D03*
X197612000Y-167580000D03*
X313817000Y-157099000D03*
X326517000Y-157099000D03*
X361696000Y-184531000D03*
X351696000Y-184531000D03*
X286225000Y-184404000D03*
X276225000Y-184404000D03*
X109347000Y-201295000D03*
X109347000Y-188595000D03*
X381635000Y-178435000D03*
X368935000Y-178435000D03*
X198755000Y-202819000D03*
X211455000Y-202819000D03*
X260477000Y-184658000D03*
X273177000Y-184658000D03*
X176911000Y-179959000D03*
X189611000Y-179959000D03*
X214630000Y-111760000D03*
X214630000Y-124460000D03*
X165989000Y-101600000D03*
X167513000Y-97790000D03*
X169037000Y-101600000D03*
X170561000Y-97790000D03*
X172085000Y-101600000D03*
X173609000Y-97790000D03*
X124587000Y-160020000D03*
X124587000Y-162560000D03*
X124587000Y-165100000D03*
X124587000Y-167640000D03*
X124587000Y-170180000D03*
X124587000Y-172720000D03*
X124587000Y-175260000D03*
X124587000Y-177800000D03*
X132207000Y-177800000D03*
X132207000Y-175260000D03*
X132207000Y-172720000D03*
X132207000Y-170180000D03*
X132207000Y-167640000D03*
X132207000Y-165100000D03*
X132207000Y-162560000D03*
X132207000Y-160020000D03*
X387985000Y-194691000D03*
X387985000Y-184531000D03*
X351917000Y-138684000D03*
X339217000Y-138684000D03*
X111887000Y-183515000D03*
X111887000Y-186055000D03*
X111887000Y-188595000D03*
X111887000Y-191135000D03*
X111887000Y-193675000D03*
X111887000Y-196215000D03*
X111887000Y-198755000D03*
X111887000Y-201295000D03*
X119507000Y-201295000D03*
X119507000Y-198755000D03*
X119507000Y-196215000D03*
X119507000Y-193675000D03*
X119507000Y-191135000D03*
X119507000Y-188595000D03*
X119507000Y-186055000D03*
X119507000Y-183515000D03*
X86487000Y-160020000D03*
X86487000Y-162560000D03*
X86487000Y-165100000D03*
X86487000Y-167640000D03*
X86487000Y-170180000D03*
X86487000Y-172720000D03*
X86487000Y-175260000D03*
X86487000Y-177800000D03*
X94107000Y-177800000D03*
X94107000Y-175260000D03*
X94107000Y-172720000D03*
X94107000Y-170180000D03*
X94107000Y-167640000D03*
X94107000Y-165100000D03*
X94107000Y-162560000D03*
X94107000Y-160020000D03*
X229743000Y-112522000D03*
X229743000Y-109982000D03*
X198755000Y-192659000D03*
X211455000Y-192659000D03*
X387477000Y-180213000D03*
X387477000Y-167513000D03*
X299085000Y-146354800D03*
X286385000Y-146354800D03*
X323469000Y-143002000D03*
X320929000Y-145542000D03*
X318389000Y-143002000D03*
X26035000Y-201940000D03*
X26035000Y-113040000D03*
X28575000Y-196850000D03*
X28575000Y-194310000D03*
X28575000Y-191770000D03*
X28575000Y-189230000D03*
X28575000Y-186690000D03*
X28575000Y-184150000D03*
X28575000Y-181610000D03*
X28575000Y-179070000D03*
X28575000Y-176530000D03*
X28575000Y-173990000D03*
X28575000Y-171450000D03*
X28575000Y-168910000D03*
X28575000Y-166370000D03*
X28575000Y-163830000D03*
X28575000Y-161290000D03*
X28575000Y-158750000D03*
X28575000Y-156210000D03*
X28575000Y-153670000D03*
X28575000Y-151130000D03*
X28575000Y-148590000D03*
X28575000Y-146050000D03*
X28575000Y-143510000D03*
X28575000Y-140970000D03*
X28575000Y-138430000D03*
X28575000Y-135890000D03*
X28575000Y-133350000D03*
X28575000Y-130810000D03*
X28575000Y-128270000D03*
X28575000Y-125730000D03*
X28575000Y-123190000D03*
X28575000Y-120650000D03*
X28575000Y-118110000D03*
X31115000Y-196850000D03*
X31115000Y-194310000D03*
X31115000Y-191770000D03*
X31115000Y-189230000D03*
X31115000Y-186690000D03*
X31115000Y-184150000D03*
X31115000Y-181610000D03*
X31115000Y-179070000D03*
X31115000Y-176530000D03*
X31115000Y-173990000D03*
X31115000Y-171450000D03*
X31115000Y-168910000D03*
X31115000Y-166370000D03*
X31115000Y-163830000D03*
X31115000Y-161290000D03*
X31115000Y-158750000D03*
X31115000Y-156210000D03*
X31115000Y-153670000D03*
X31115000Y-151130000D03*
X31115000Y-148590000D03*
X31115000Y-146050000D03*
X31115000Y-143510000D03*
X31115000Y-140970000D03*
X31115000Y-138430000D03*
X31115000Y-135890000D03*
X31115000Y-133350000D03*
X31115000Y-130810000D03*
X31115000Y-128270000D03*
X31115000Y-125730000D03*
X31115000Y-123190000D03*
X31115000Y-120650000D03*
X31115000Y-118110000D03*
X83820000Y-178435000D03*
X83820000Y-165735000D03*
X198755000Y-197739000D03*
X211455000Y-197739000D03*
X124587000Y-183515000D03*
X124587000Y-186055000D03*
X124587000Y-188595000D03*
X124587000Y-191135000D03*
X124587000Y-193675000D03*
X124587000Y-196215000D03*
X124587000Y-198755000D03*
X124587000Y-201295000D03*
X132207000Y-201295000D03*
X132207000Y-198755000D03*
X132207000Y-196215000D03*
X132207000Y-193675000D03*
X132207000Y-191135000D03*
X132207000Y-188595000D03*
X132207000Y-186055000D03*
X132207000Y-183515000D03*
X227457000Y-192659000D03*
X214757000Y-192659000D03*
X233045000Y-136144000D03*
X220345000Y-136144000D03*
X299085000Y-128524000D03*
X286385000Y-128524000D03*
X312547000Y-194564000D03*
X312547000Y-184404000D03*
X378079000Y-184785000D03*
X365125000Y-184785000D03*
X75311000Y-137160000D03*
X62611000Y-137160000D03*
X40640000Y-188849000D03*
X40640000Y-201549000D03*
X45720000Y-134620000D03*
X58420000Y-134620000D03*
X58420000Y-124460000D03*
X45720000Y-124460000D03*
X392303000Y-180213000D03*
X392303000Y-167513000D03*
X109347000Y-118491000D03*
X109347000Y-131191000D03*
X150495000Y-119380000D03*
X150495000Y-121920000D03*
X150495000Y-124460000D03*
X150495000Y-127000000D03*
X150495000Y-129540000D03*
X150495000Y-132080000D03*
X150495000Y-134620000D03*
X150495000Y-137160000D03*
X150495000Y-139700000D03*
X150495000Y-142240000D03*
X150495000Y-144780000D03*
X150495000Y-147320000D03*
X150495000Y-149860000D03*
X150495000Y-152400000D03*
X165735000Y-152400000D03*
X165735000Y-149860000D03*
X165735000Y-147320000D03*
X165735000Y-144780000D03*
X165735000Y-142240000D03*
X165735000Y-139700000D03*
X165735000Y-137160000D03*
X165735000Y-134620000D03*
X165735000Y-132080000D03*
X165735000Y-129540000D03*
X165735000Y-127000000D03*
X165735000Y-124460000D03*
X165735000Y-121920000D03*
X165735000Y-119380000D03*
X355219000Y-138684000D03*
X367919000Y-138684000D03*
X168275000Y-118364000D03*
X168275000Y-131064000D03*
X317119000Y-180086000D03*
X317119000Y-167386000D03*
X317627000Y-184404000D03*
X317627000Y-194564000D03*
X334645000Y-122428000D03*
X334645000Y-124968000D03*
X361315000Y-156464000D03*
X374015000Y-156464000D03*
X211455000Y-174879000D03*
X198755000Y-174879000D03*
X198755000Y-200279000D03*
X211455000Y-200279000D03*
X234696000Y-190754000D03*
X234696000Y-203454000D03*
X99187000Y-160020000D03*
X99187000Y-162560000D03*
X99187000Y-165100000D03*
X99187000Y-167640000D03*
X99187000Y-170180000D03*
X99187000Y-172720000D03*
X99187000Y-175260000D03*
X99187000Y-177800000D03*
X106807000Y-177800000D03*
X106807000Y-175260000D03*
X106807000Y-172720000D03*
X106807000Y-170180000D03*
X106807000Y-167640000D03*
X106807000Y-165100000D03*
X106807000Y-162560000D03*
X106807000Y-160020000D03*
X86995000Y-142748000D03*
X86995000Y-155448000D03*
X389890000Y-180213000D03*
X389890000Y-167513000D03*
X393065000Y-184531000D03*
X393065000Y-194691000D03*
X122047000Y-201295000D03*
X122047000Y-188595000D03*
X390525000Y-184531000D03*
X390525000Y-194691000D03*
X366141000Y-192024000D03*
X366141000Y-192024000D03*
X367411000Y-193294000D03*
X367411000Y-193294000D03*
X366141000Y-194564000D03*
X366141000Y-194564000D03*
X367411000Y-195707000D03*
X367411000Y-195707000D03*
X58420000Y-129540000D03*
X45720000Y-129540000D03*
X374142000Y-153924000D03*
X361442000Y-153924000D03*
X372491000Y-192024000D03*
X372491000Y-195326000D03*
X58420000Y-119380000D03*
X45720000Y-119380000D03*
X236397800Y-108813600D03*
X236397800Y-129133600D03*
X75311000Y-119380000D03*
X62611000Y-119380000D03*
X359029000Y-106934000D03*
X361569000Y-104394000D03*
X364109000Y-106934000D03*
X297585000Y-110230000D03*
X310285000Y-110230000D03*
X134747000Y-177800000D03*
X134747000Y-165100000D03*
X316397000Y-138176000D03*
X318897000Y-138176000D03*
X80010000Y-203200000D03*
X67310000Y-203200000D03*
X293497000Y-181356000D03*
X296037000Y-181356000D03*
X298577000Y-181356000D03*
X301117000Y-181356000D03*
X303657000Y-181356000D03*
X306197000Y-181356000D03*
X308737000Y-181356000D03*
X218567000Y-157153000D03*
X218567000Y-152273000D03*
X111760000Y-124460000D03*
X111760000Y-127000000D03*
X111760000Y-129540000D03*
X111760000Y-132080000D03*
X111760000Y-134620000D03*
X111760000Y-137160000D03*
X111760000Y-139700000D03*
X111760000Y-142240000D03*
X111760000Y-144780000D03*
X111760000Y-147320000D03*
X119380000Y-147320000D03*
X119380000Y-144780000D03*
X119380000Y-142240000D03*
X119380000Y-139700000D03*
X119380000Y-137160000D03*
X119380000Y-134620000D03*
X119380000Y-132080000D03*
X119380000Y-129540000D03*
X119380000Y-127000000D03*
X119380000Y-124460000D03*
X66167000Y-142240000D03*
X66167000Y-144780000D03*
X66167000Y-147320000D03*
X66167000Y-149860000D03*
X66167000Y-152400000D03*
X66167000Y-154940000D03*
X66167000Y-157480000D03*
X66167000Y-160020000D03*
X66167000Y-162560000D03*
X66167000Y-165100000D03*
X66167000Y-167640000D03*
X66167000Y-170180000D03*
X66167000Y-172720000D03*
X66167000Y-175260000D03*
X66167000Y-177800000D03*
X66167000Y-180340000D03*
X66167000Y-182880000D03*
X66167000Y-185420000D03*
X66167000Y-187960000D03*
X66167000Y-190500000D03*
X81407000Y-190500000D03*
X81407000Y-187960000D03*
X81407000Y-185420000D03*
X81407000Y-182880000D03*
X81407000Y-180340000D03*
X81407000Y-177800000D03*
X81407000Y-175260000D03*
X81407000Y-172720000D03*
X81407000Y-170180000D03*
X81407000Y-167640000D03*
X81407000Y-165100000D03*
X81407000Y-162560000D03*
X81407000Y-160020000D03*
X81407000Y-157480000D03*
X81407000Y-154940000D03*
X81407000Y-152400000D03*
X81407000Y-149860000D03*
X81407000Y-147320000D03*
X81407000Y-144780000D03*
X81407000Y-142240000D03*
X363855000Y-148844000D03*
X366395000Y-148844000D03*
X368935000Y-148844000D03*
X371475000Y-148844000D03*
X374015000Y-148844000D03*
X376555000Y-148844000D03*
X379095000Y-148844000D03*
X363855000Y-151384000D03*
X366395000Y-151384000D03*
X368935000Y-151384000D03*
X371475000Y-151384000D03*
X374015000Y-151384000D03*
X376555000Y-151384000D03*
X379095000Y-151384000D03*
X227457000Y-200279000D03*
X214757000Y-200279000D03*
X367919000Y-136144000D03*
X355219000Y-136144000D03*
X206375000Y-170180000D03*
X206375000Y-167640000D03*
X208915000Y-170180000D03*
X208915000Y-167640000D03*
X211455000Y-170180000D03*
X211455000Y-167640000D03*
X213995000Y-170180000D03*
X213995000Y-167640000D03*
X216535000Y-170180000D03*
X216535000Y-167640000D03*
X219075000Y-170180000D03*
X219075000Y-167640000D03*
X221615000Y-170180000D03*
X221615000Y-167640000D03*
X224155000Y-170180000D03*
X224155000Y-167640000D03*
X226695000Y-170180000D03*
X226695000Y-167640000D03*
X229235000Y-170180000D03*
X229235000Y-167640000D03*
X231775000Y-170180000D03*
X231775000Y-167640000D03*
X227457000Y-187579000D03*
X214757000Y-187579000D03*
X193675000Y-109220000D03*
X173355000Y-109220000D03*
X198755000Y-187579000D03*
X211455000Y-187579000D03*
X348107000Y-94488000D03*
X348107000Y-107188000D03*
X247777000Y-119126000D03*
X247777000Y-100076000D03*
X254127000Y-108966000D03*
X293497000Y-108966000D03*
X247777000Y-108966000D03*
X109347000Y-177800000D03*
X109347000Y-165100000D03*
X171577000Y-114300000D03*
X171577000Y-116840000D03*
X171577000Y-119380000D03*
X171577000Y-121920000D03*
X171577000Y-124460000D03*
X171577000Y-127000000D03*
X171577000Y-129540000D03*
X171577000Y-132080000D03*
X171577000Y-134620000D03*
X171577000Y-137160000D03*
X179197000Y-137160000D03*
X179197000Y-134620000D03*
X179197000Y-132080000D03*
X179197000Y-129540000D03*
X179197000Y-127000000D03*
X179197000Y-124460000D03*
X179197000Y-121920000D03*
X179197000Y-119380000D03*
X179197000Y-116840000D03*
X179197000Y-114300000D03*
X301625000Y-127254000D03*
X304165000Y-124714000D03*
X306705000Y-127254000D03*
X58420000Y-121920000D03*
X45720000Y-121920000D03*
X363855000Y-116840000D03*
X367665000Y-116840000D03*
X371475000Y-116840000D03*
X363855000Y-110744000D03*
X367665000Y-110744000D03*
X371475000Y-110744000D03*
X316865000Y-127762000D03*
X316865000Y-130262000D03*
X84201000Y-155448000D03*
X84201000Y-142748000D03*
X296545000Y-92964000D03*
X296545000Y-107950000D03*
X134747000Y-201295000D03*
X134747000Y-188595000D03*
X335407000Y-131318000D03*
X332867000Y-128778000D03*
X330327000Y-131318000D03*
X250317000Y-97536000D03*
X237617000Y-97536000D03*
X91567000Y-119380000D03*
X91567000Y-132080000D03*
X99060000Y-124460000D03*
X99060000Y-127000000D03*
X99060000Y-129540000D03*
X99060000Y-132080000D03*
X99060000Y-134620000D03*
X99060000Y-137160000D03*
X99060000Y-139700000D03*
X99060000Y-142240000D03*
X106680000Y-142240000D03*
X106680000Y-139700000D03*
X106680000Y-137160000D03*
X106680000Y-134620000D03*
X106680000Y-132080000D03*
X106680000Y-129540000D03*
X106680000Y-127000000D03*
X106680000Y-124460000D03*
X313817000Y-152400000D03*
X326517000Y-152400000D03*
X100330000Y-148209000D03*
X95450000Y-148209000D03*
X42545000Y-165100000D03*
X42545000Y-177800000D03*
X149987000Y-183515000D03*
X149987000Y-186055000D03*
X149987000Y-188595000D03*
X149987000Y-191135000D03*
X149987000Y-193675000D03*
X149987000Y-196215000D03*
X149987000Y-198755000D03*
X149987000Y-201295000D03*
X157607000Y-201295000D03*
X157607000Y-198755000D03*
X157607000Y-196215000D03*
X157607000Y-193675000D03*
X157607000Y-191135000D03*
X157607000Y-188595000D03*
X157607000Y-186055000D03*
X157607000Y-183515000D03*
X83947000Y-201676000D03*
X83947000Y-188976000D03*
X187833000Y-183515000D03*
X187833000Y-186055000D03*
X187833000Y-188595000D03*
X187833000Y-191135000D03*
X187833000Y-193675000D03*
X187833000Y-196215000D03*
X187833000Y-198755000D03*
X187833000Y-201295000D03*
X195453000Y-201295000D03*
X195453000Y-198755000D03*
X195453000Y-196215000D03*
X195453000Y-193675000D03*
X195453000Y-191135000D03*
X195453000Y-188595000D03*
X195453000Y-186055000D03*
X195453000Y-183515000D03*
X229743000Y-117856000D03*
X229743000Y-115316000D03*
X233045000Y-144780000D03*
X233045000Y-157480000D03*
X43180000Y-188849000D03*
X43180000Y-201549000D03*
X211455000Y-179959000D03*
X198755000Y-179959000D03*
X342392000Y-156591000D03*
X329692000Y-156591000D03*
X352044000Y-133604000D03*
X339344000Y-133604000D03*
X58420000Y-127000000D03*
X45720000Y-127000000D03*
X159385000Y-112776000D03*
X156845000Y-115316000D03*
X154305000Y-112776000D03*
X270637000Y-127254000D03*
X283337000Y-127254000D03*
X356235000Y-117856000D03*
X356235000Y-105156000D03*
X75311000Y-124460000D03*
X62611000Y-124460000D03*
X236474000Y-135947500D03*
X256794000Y-135947500D03*
X283337000Y-146304000D03*
X270637000Y-146304000D03*
X367919000Y-146812000D03*
X355219000Y-146812000D03*
X381635000Y-184531000D03*
X381635000Y-194691000D03*
X237617000Y-155194000D03*
X237617000Y-157734000D03*
X237617000Y-160274000D03*
X237617000Y-162814000D03*
X237617000Y-165354000D03*
X237617000Y-167894000D03*
X237617000Y-170434000D03*
X237617000Y-172974000D03*
X237617000Y-175514000D03*
X237617000Y-178054000D03*
X237617000Y-180594000D03*
X237617000Y-183134000D03*
X237617000Y-185674000D03*
X237617000Y-188214000D03*
X237617000Y-190754000D03*
X237617000Y-193294000D03*
X237617000Y-195834000D03*
X237617000Y-198374000D03*
X237617000Y-200914000D03*
X237617000Y-203454000D03*
X252857000Y-203454000D03*
X252857000Y-200914000D03*
X252857000Y-198374000D03*
X252857000Y-195834000D03*
X252857000Y-193294000D03*
X252857000Y-190754000D03*
X252857000Y-188214000D03*
X252857000Y-185674000D03*
X252857000Y-183134000D03*
X252857000Y-180594000D03*
X252857000Y-178054000D03*
X252857000Y-175514000D03*
X252857000Y-172974000D03*
X252857000Y-170434000D03*
X252857000Y-167894000D03*
X252857000Y-165354000D03*
X252857000Y-162814000D03*
X252857000Y-160274000D03*
X252857000Y-157734000D03*
X252857000Y-155194000D03*
X299085000Y-125984000D03*
X286385000Y-125984000D03*
X96647000Y-177800000D03*
X96647000Y-165100000D03*
X229743000Y-123063000D03*
X229743000Y-120523000D03*
X162687000Y-183515000D03*
X162687000Y-186055000D03*
X162687000Y-188595000D03*
X162687000Y-191135000D03*
X162687000Y-193675000D03*
X162687000Y-196215000D03*
X162687000Y-198755000D03*
X162687000Y-201295000D03*
X170307000Y-201295000D03*
X170307000Y-198755000D03*
X170307000Y-196215000D03*
X170307000Y-193675000D03*
X170307000Y-191135000D03*
X170307000Y-188595000D03*
X170307000Y-186055000D03*
X170307000Y-183515000D03*
M02*
