M48
; DRILL file {KiCad 8.0.8+1} date 2025-02-09T17:16:15+0100
; FORMAT={-:-/ absolute / metric / decimal}
; #@! TF.CreationDate,2025-02-09T17:16:15+01:00
; #@! TF.GenerationSoftware,Kicad,Pcbnew,8.0.8+1
; #@! TF.FileFunction,Plated,1,2,PTH
FMAT,2
METRIC
; #@! TA.AperFunction,Plated,PTH,ViaDrill
T1C0.300
; #@! TA.AperFunction,Plated,PTH,ViaDrill
T2C0.500
; #@! TA.AperFunction,Plated,PTH,ComponentDrill
T3C0.500
; #@! TA.AperFunction,Plated,PTH,ViaDrill
T4C0.700
; #@! TA.AperFunction,Plated,PTH,ComponentDrill
T5C0.750
; #@! TA.AperFunction,Plated,PTH,ComponentDrill
T6C0.800
; #@! TA.AperFunction,Plated,PTH,ComponentDrill
T7C0.850
; #@! TA.AperFunction,Plated,PTH,ComponentDrill
T8C0.900
; #@! TA.AperFunction,Plated,PTH,ComponentDrill
T9C1.000
; #@! TA.AperFunction,Plated,PTH,ComponentDrill
T10C1.100
; #@! TA.AperFunction,Plated,PTH,ComponentDrill
T11C1.200
; #@! TA.AperFunction,Plated,PTH,ComponentDrill
T12C1.250
; #@! TA.AperFunction,Plated,PTH,ComponentDrill
T13C2.250
%
G90
G05
T1
X42.799Y-125.73
X42.799Y-133.35
X43.815Y-128.27
X44.069Y-184.15
X44.196Y-120.269
X44.323Y-135.89
X49.911Y-142.24
X49.911Y-198.12
X50.546Y-195.58
X52.451Y-193.878
X52.578Y-156.464
X53.213Y-162.56
X53.975Y-106.426
X55.499Y-128.27
X57.912Y-107.061
X58.547Y-174.244
X65.278Y-127.0
X88.519Y-200.406
X91.567Y-160.02
X92.075Y-186.055
X102.743Y-188.595
X102.997Y-140.97
X103.251Y-162.814
X104.267Y-186.055
X108.331Y-156.21
X109.093Y-110.871
X110.617Y-110.236
X112.522Y-110.871
X114.935Y-162.56
X116.713Y-112.141
X116.967Y-186.055
X118.745Y-112.776
X120.523Y-121.031
X121.031Y-149.86
X121.539Y-124.206
X122.428Y-117.983
X122.809Y-106.68
X124.587Y-113.284
X125.095Y-98.425
X125.095Y-102.87
X127.381Y-115.316
X127.889Y-162.56
X129.667Y-186.055
X129.794Y-113.284
X130.048Y-115.189
X131.318Y-155.575
X132.969Y-113.284
X133.35Y-155.194
X136.525Y-129.54
X137.16Y-134.62
X137.414Y-136.906
X137.922Y-131.699
X140.589Y-162.56
X141.097Y-115.316
X141.351Y-182.118
X142.367Y-186.055
X142.875Y-114.554
X144.907Y-115.316
X146.939Y-115.316
X148.717Y-115.316
X153.797Y-162.56
X153.924Y-155.067
X154.559Y-180.086
X155.067Y-186.055
X159.004Y-155.067
X161.353Y-137.096
X167.767Y-186.055
X180.721Y-188.595
X187.706Y-162.179
X190.119Y-152.273
X193.421Y-197.485
X206.248Y-182.118
X207.01Y-185.039
X216.662Y-193.929
X216.662Y-201.549
X221.107Y-185.547
X222.377Y-201.549
X223.647Y-204.724
X231.267Y-203.708
X231.775Y-191.643
X232.537Y-193.929
X232.537Y-196.342
X232.575Y-185.75
X232.664Y-199.009
X233.3Y-182.3
X237.617Y-117.602
X242.697Y-203.835
X243.256Y-201.93
X243.332Y-170.434
X243.713Y-160.909
X244.602Y-167.894
X245.872Y-169.799
X246.888Y-162.814
X247.142Y-186.944
X249.682Y-200.66
X298.831Y-103.632
X346.329Y-98.806
T2
X25.654Y-182.88
X27.178Y-134.62
X33.591Y-133.921
X34.036Y-172.466
X36.195Y-168.656
X37.922Y-156.007
X38.227Y-124.968
X38.227Y-128.27
X39.624Y-141.224
X40.025Y-115.55
X40.259Y-138.938
X40.894Y-110.998
X41.148Y-117.729
X41.148Y-119.634
X42.545Y-123.19
X42.545Y-171.958
X42.672Y-144.653
X43.053Y-116.459
X47.498Y-101.854
X48.26Y-160.274
X51.435Y-106.426
X52.146Y-197.866
X53.086Y-203.454
X53.213Y-160.02
X54.61Y-176.276
X54.737Y-123.19
X55.118Y-202.692
X55.499Y-171.196
X55.753Y-173.609
X56.007Y-119.888
X56.515Y-105.156
X56.896Y-203.454
X57.277Y-197.866
X58.166Y-168.529
X58.166Y-171.069
X63.5Y-188.087
X63.627Y-190.5
X64.389Y-199.517
X65.024Y-197.739
X66.04Y-120.523
X66.294Y-132.08
X66.548Y-137.16
X67.056Y-196.342
X67.691Y-139.954
X68.707Y-134.62
X68.834Y-128.016
X68.961Y-172.085
X69.088Y-157.48
X69.215Y-108.331
X70.104Y-199.009
X70.231Y-131.699
X70.612Y-144.526
X70.612Y-147.32
X70.612Y-150.241
X70.612Y-154.051
X70.612Y-175.26
X71.907Y-115.824
X71.907Y-119.329
X72.263Y-135.915
X72.517Y-138.938
X72.517Y-189.484
X72.873Y-112.319
X73.025Y-114.808
X73.736Y-125.73
X73.787Y-186.817
X74.041Y-194.437
X74.93Y-176.784
X75.057Y-199.517
X75.438Y-145.034
X75.692Y-172.847
X75.946Y-174.752
X75.946Y-191.897
X76.708Y-142.494
X77.089Y-149.86
X77.343Y-188.722
X78.105Y-133.35
X78.105Y-183.134
X78.232Y-178.562
X78.232Y-180.594
X78.359Y-198.247
X78.486Y-167.132
X78.613Y-152.146
X78.613Y-154.559
X78.613Y-164.719
X78.613Y-169.164
X78.74Y-161.417
X78.867Y-129.159
X78.867Y-136.906
X78.867Y-157.099
X78.867Y-159.512
X79.121Y-124.968
X79.121Y-172.72
X79.248Y-147.574
X79.324Y-117.043
X79.375Y-175.26
X80.95Y-197.536
X81.026Y-194.945
X83.566Y-119.38
X84.709Y-110.744
X84.709Y-181.864
X84.963Y-158.242
X85.471Y-149.098
X85.725Y-131.064
X85.781Y-116.521
X86.868Y-136.906
X88.011Y-115.57
X88.519Y-152.654
X89.484Y-197.51
X89.535Y-169.926
X89.535Y-175.514
X89.56Y-194.97
X89.789Y-115.57
X90.297Y-163.322
X91.567Y-167.894
X91.567Y-175.006
X91.694Y-140.081
X92.075Y-103.124
X92.075Y-163.068
X92.075Y-165.354
X92.583Y-144.018
X92.837Y-127.0
X93.091Y-122.174
X93.853Y-118.999
X93.853Y-134.62
X94.361Y-141.859
X95.123Y-125.476
X95.123Y-130.81
X95.631Y-155.194
X95.885Y-120.904
X98.171Y-147.066
X99.314Y-113.284
X101.727Y-152.654
X102.108Y-113.411
X102.108Y-120.269
X102.489Y-125.73
X102.489Y-201.995
X102.997Y-138.049
X103.505Y-129.286
X103.759Y-183.515
X104.267Y-155.702
X104.394Y-122.174
X104.521Y-113.538
X105.537Y-146.558
X108.712Y-95.631
X109.347Y-121.158
X109.347Y-128.778
X111.887Y-152.4
X111.887Y-157.734
X112.395Y-119.888
X113.919Y-168.91
X114.427Y-192.575
X114.935Y-166.37
X115.697Y-201.676
X115.867Y-190.035
X116.205Y-183.515
X118.237Y-150.368
X119.761Y-117.221
X121.285Y-154.686
X122.174Y-141.859
X127.635Y-123.19
X128.143Y-180.594
X128.397Y-183.515
X128.651Y-155.194
X130.531Y-147.32
X131.572Y-149.86
X133.883Y-142.24
X134.239Y-147.066
X134.239Y-149.479
X135.509Y-98.044
X135.509Y-105.41
X136.144Y-152.019
X136.576Y-111.608
X138.557Y-110.998
X139.573Y-97.536
X140.843Y-110.236
X142.494Y-111.125
X145.415Y-105.664
X147.447Y-108.204
X147.447Y-120.904
X147.574Y-129.921
X148.463Y-157.734
X151.257Y-112.395
X151.409Y-109.728
X151.511Y-116.713
X152.4Y-127.0
X152.527Y-183.642
X153.035Y-158.242
X153.289Y-137.16
X154.432Y-152.019
X154.457Y-131.978
X154.607Y-165.305
X156.337Y-155.194
X157.607Y-152.908
X159.004Y-141.224
X159.258Y-145.48
X160.401Y-131.064
X160.782Y-143.51
X160.909Y-148.082
X161.417Y-139.7
X161.798Y-125.73
X162.179Y-109.347
X163.322Y-113.284
X163.576Y-146.05
X163.576Y-151.13
X164.211Y-109.855
X164.719Y-103.505
X165.735Y-170.434
X165.862Y-175.387
X165.989Y-172.847
X166.116Y-109.347
X166.116Y-155.575
X167.005Y-168.148
X167.132Y-140.97
X167.259Y-165.354
X167.259Y-201.422
X168.529Y-112.141
X169.037Y-129.286
X169.672Y-123.19
X171.323Y-132.652
X172.466Y-154.94
X172.72Y-178.054
X174.244Y-157.226
X174.371Y-145.796
X174.498Y-120.142
X174.498Y-124.333
X174.498Y-150.876
X174.625Y-122.428
X175.387Y-133.858
X176.53Y-119.38
X176.657Y-109.855
X177.292Y-172.212
X178.054Y-157.861
X178.244Y-138.62
X178.562Y-137.16
X178.638Y-97.79
X179.197Y-102.616
X179.451Y-185.928
X179.705Y-176.53
X179.959Y-174.244
X179.959Y-201.295
X180.467Y-180.086
X181.229Y-161.036
X182.499Y-177.292
X185.166Y-160.528
X185.547Y-172.847
X186.309Y-143.637
X186.309Y-179.832
X186.563Y-158.496
X186.944Y-138.811
X187.071Y-134.62
X187.071Y-150.495
X187.452Y-172.212
X187.833Y-130.048
X187.96Y-146.05
X188.214Y-124.46
X188.341Y-99.822
X188.341Y-102.108
X188.849Y-104.14
X188.849Y-141.478
X189.103Y-114.554
X189.23Y-155.575
X189.484Y-137.16
X189.484Y-149.733
X189.484Y-149.733
X190.754Y-201.295
X191.262Y-94.869
X191.262Y-163.449
X191.897Y-154.559
X192.151Y-192.024
X192.659Y-202.184
X192.913Y-195.072
X194.31Y-131.191
X194.31Y-171.958
X194.564Y-152.273
X194.564Y-203.454
X194.691Y-119.38
X194.945Y-177.927
X196.469Y-175.006
X196.85Y-108.077
X198.755Y-107.442
X199.517Y-111.506
X199.517Y-127.0
X199.517Y-154.813
X199.898Y-133.35
X200.025Y-130.81
X200.203Y-168.885
X200.279Y-156.718
X200.533Y-135.89
X200.66Y-108.204
X200.66Y-149.733
X200.787Y-138.43
X201.041Y-119.38
X201.422Y-204.597
X201.93Y-156.164
X202.057Y-153.924
X202.184Y-170.18
X202.692Y-146.939
X202.692Y-200.279
X202.819Y-168.275
X202.946Y-97.155
X203.073Y-187.96
X203.073Y-192.405
X203.454Y-156.972
X203.454Y-202.692
X203.835Y-113.538
X204.089Y-104.902
X204.089Y-152.019
X204.851Y-103.378
X205.105Y-137.287
X205.232Y-204.089
X205.359Y-97.028
X205.359Y-101.219
X205.867Y-99.314
X205.867Y-155.448
X206.121Y-191.516
X206.375Y-143.637
X206.502Y-149.733
X206.629Y-132.334
X206.629Y-199.009
X207.645Y-139.224
X207.772Y-145.415
X208.153Y-119.253
X208.28Y-114.3
X208.28Y-146.939
X208.661Y-190.119
X208.915Y-178.689
X209.042Y-109.474
X209.042Y-176.149
X209.042Y-204.724
X209.22Y-160.071
X209.423Y-154.686
X213.995Y-162.56
X214.815Y-139.134
X216.027Y-130.099
X216.027Y-140.97
X216.027Y-145.796
X216.662Y-191.389
X216.662Y-199.009
X217.297Y-118.11
X217.297Y-174.879
X219.329Y-177.165
X219.71Y-154.178
X219.71Y-174.879
X219.837Y-148.336
X219.837Y-181.737
X219.837Y-184.15
X221.996Y-195.199
X222.377Y-117.602
X223.647Y-110.49
X223.901Y-179.959
X223.901Y-197.739
X224.536Y-192.659
X225.323Y-117.5
X225.552Y-152.4
X225.552Y-161.29
X225.831Y-150.52
X225.882Y-159.309
X225.933Y-144.526
X226.035Y-131.521
X226.06Y-105.664
X226.441Y-154.94
X227.33Y-99.949
X227.965Y-172.339
X228.854Y-126.708
X229.87Y-165.1
X230.505Y-136.525
X231.521Y-98.806
X232.537Y-188.849
X232.675Y-201.65
X233.045Y-151.765
X233.045Y-161.925
X233.477Y-172.288
X234.569Y-114.935
X234.569Y-148.336
X234.874Y-154.076
X235.077Y-92.964
X235.483Y-155.092
X235.687Y-166.319
X235.712Y-139.065
X235.839Y-126.746
X236.294Y-115.873
X236.601Y-132.334
X237.211Y-146.609
X237.617Y-120.396
X237.928Y-126.885
X238.633Y-113.792
X238.76Y-142.875
X239.141Y-138.557
X239.649Y-124.206
X239.903Y-133.35
X240.157Y-120.015
X240.411Y-148.59
X240.665Y-201.727
X241.122Y-180.594
X241.554Y-182.88
X241.808Y-124.333
X242.189Y-96.266
X242.189Y-141.986
X242.824Y-121.92
X243.459Y-120.015
X243.459Y-136.652
X243.459Y-197.739
X244.475Y-165.989
X244.729Y-131.953
X245.237Y-158.369
X245.288Y-203.454
X245.491Y-155.764
X245.999Y-121.92
X246.634Y-188.849
X246.761Y-95.504
X247.142Y-181.483
X247.142Y-191.008
X247.269Y-135.382
X247.269Y-184.785
X247.904Y-192.659
X248.133Y-169.977
X248.539Y-195.58
X248.793Y-144.78
X249.047Y-198.12
X249.174Y-151.384
X249.682Y-120.396
X249.809Y-102.362
X250.444Y-118.745
X250.571Y-114.859
X250.825Y-112.522
X252.095Y-139.446
X252.222Y-130.937
X252.222Y-146.558
X252.349Y-136.779
X253.111Y-95.25
X253.365Y-141.986
X253.873Y-127.889
X254.889Y-135.128
X255.143Y-151.13
X255.905Y-124.46
X256.032Y-138.684
X256.032Y-159.639
X257.302Y-129.921
X257.81Y-102.489
X258.547Y-156.718
X261.747Y-174.244
X262.357Y-150.825
X263.017Y-144.272
X263.017Y-148.844
X263.017Y-152.908
X263.83Y-137.414
X264.287Y-125.476
X264.287Y-175.514
X264.795Y-131.064
X264.795Y-139.446
X264.795Y-151.13
X264.795Y-186.69
X265.557Y-154.94
X266.827Y-178.689
X269.24Y-186.69
X269.367Y-177.419
X270.383Y-139.954
X271.907Y-177.419
X272.415Y-186.944
X273.177Y-125.984
X273.177Y-143.51
X273.177Y-149.098
X273.685Y-131.064
X274.447Y-136.144
X274.447Y-173.609
X275.463Y-125.222
X275.717Y-151.13
X275.717Y-153.924
X277.495Y-128.016
X277.749Y-124.46
X277.749Y-131.572
X278.2Y-157.025
X278.257Y-153.924
X278.765Y-145.542
X278.765Y-151.13
X278.765Y-187.071
X279.527Y-137.414
X280.162Y-174.244
X280.289Y-148.336
X280.543Y-131.572
X280.797Y-134.874
X281.051Y-127.254
X281.305Y-186.817
X282.829Y-173.609
X284.607Y-112.649
X286.639Y-123.952
X288.417Y-151.384
X289.052Y-188.849
X290.449Y-127.762
X290.703Y-158.242
X290.957Y-129.54
X290.957Y-133.604
X290.957Y-144.018
X292.1Y-185.039
X292.227Y-156.21
X292.989Y-126.238
X293.497Y-96.012
X293.751Y-138.684
X293.802Y-146.456
X294.513Y-128.27
X294.767Y-136.398
X294.767Y-189.865
X295.021Y-112.268
X295.025Y-158.025
X295.148Y-114.3
X295.148Y-116.84
X295.148Y-119.253
X295.148Y-121.412
X295.275Y-123.952
X296.545Y-105.156
X296.545Y-127.254
X297.307Y-154.432
X298.069Y-157.48
X298.577Y-97.79
X299.847Y-172.085
X300.863Y-137.4
X301.619Y-112.77
X301.625Y-110.236
X301.746Y-122.93
X301.75Y-142.85
X302.26Y-195.326
X302.387Y-172.085
X303.657Y-188.214
X304.419Y-128.441
X304.8Y-108.331
X305.562Y-117.094
X306.451Y-129.794
X306.705Y-119.126
X306.705Y-136.144
X307.594Y-113.157
X307.975Y-188.722
X308.737Y-178.054
X310.769Y-151.765
X311.277Y-134.112
X311.633Y-142.088
X313.182Y-178.054
X313.309Y-119.38
X313.944Y-108.712
X314.579Y-170.688
X314.579Y-175.26
X315.722Y-191.262
X317.017Y-119.38
X317.119Y-172.466
X317.309Y-112.204
X319.075Y-95.91
X320.125Y-157.225
X320.294Y-192.532
X321.945Y-118.872
X322.199Y-125.222
X322.707Y-127.254
X324.231Y-117.69
X324.231Y-125.73
X325.247Y-107.95
X327.279Y-136.144
X328.295Y-128.27
X329.057Y-135.128
X330.2Y-104.521
X331.851Y-111.76
X332.105Y-140.208
X333.629Y-103.632
X336.423Y-137.414
X337.185Y-174.371
X339.115Y-120.904
X339.115Y-123.292
X339.217Y-141.224
X339.725Y-175.641
X340.233Y-186.817
X342.265Y-133.604
X342.265Y-178.816
X342.519Y-153.924
X343.535Y-96.774
X343.535Y-118.11
X344.297Y-120.65
X344.297Y-136.652
X344.678Y-186.817
X344.805Y-177.546
X345.313Y-141.416
X345.567Y-153.924
X346.202Y-115.951
X347.091Y-120.904
X347.345Y-177.546
X347.853Y-187.071
X348.107Y-103.124
X348.107Y-127.0
X348.107Y-129.286
X348.107Y-145.542
X349.377Y-138.684
X349.885Y-173.736
X350.139Y-142.748
X350.139Y-146.558
X351.282Y-127.889
X351.663Y-120.904
X351.917Y-141.224
X352.679Y-156.21
X354.203Y-187.198
X355.6Y-174.371
X356.743Y-186.944
X357.124Y-113.792
X358.267Y-173.736
X358.902Y-111.506
X360.045Y-139.192
X360.172Y-116.332
X360.807Y-126.492
X361.061Y-148.082
X361.34Y-95.758
X361.569Y-143.51
X362.585Y-132.334
X362.585Y-136.144
X362.839Y-141.732
X363.347Y-103.118
X363.855Y-119.761
X363.855Y-138.684
X364.49Y-188.976
X364.617Y-123.825
X366.039Y-158.191
X366.649Y-123.952
X367.157Y-131.572
X367.538Y-185.166
X368.935Y-156.312
X369.697Y-132.08
X369.697Y-145.288
X370.205Y-143.51
X370.205Y-189.992
X371.069Y-158.191
X372.745Y-132.08
X372.745Y-134.62
X372.745Y-143.002
X372.999Y-158.191
X375.285Y-172.212
X375.539Y-132.715
X376.174Y-113.538
X376.911Y-157.378
X377.698Y-195.326
X377.825Y-172.212
X378.587Y-141.478
X379.095Y-145.034
X379.095Y-188.341
X379.857Y-131.318
X383.413Y-188.849
X384.175Y-178.181
X384.683Y-95.25
X387.477Y-117.856
X388.62Y-178.181
X390.017Y-170.815
X390.017Y-175.387
X391.16Y-191.389
X392.557Y-172.593
X395.732Y-192.659
T3
X216.027Y-134.698
X216.027Y-136.398
T4
X111.76Y-107.188
X228.067Y-102.514
X229.235Y-106.172
X249.555Y-110.744
X296.545Y-102.616
X303.911Y-145.085
X313.725Y-143.65
X316.823Y-156.449
X327.025Y-141.986
X328.549Y-101.6
X335.407Y-115.824
X336.677Y-112.014
X353.441Y-128.016
X355.219Y-112.014
X356.667Y-94.64
X357.759Y-121.92
X364.617Y-143.51
X371.475Y-130.175
T5
X154.305Y-112.776
X156.845Y-115.316
X159.385Y-112.776
X198.755Y-187.579
X198.755Y-190.119
X198.755Y-192.659
X198.755Y-195.199
X198.755Y-197.739
X198.755Y-200.279
X198.755Y-202.819
X211.455Y-187.579
X211.455Y-190.119
X211.455Y-192.659
X211.455Y-195.199
X211.455Y-197.739
X211.455Y-200.279
X211.455Y-202.819
X214.503Y-95.377
X214.503Y-108.077
X214.757Y-179.959
X214.757Y-182.499
X214.757Y-185.039
X217.043Y-95.377
X217.043Y-108.077
X227.457Y-179.959
X227.457Y-182.499
X227.457Y-185.039
X230.759Y-177.546
X233.299Y-175.006
X233.299Y-180.086
X234.696Y-190.754
X234.696Y-203.454
X283.337Y-154.178
X288.725Y-159.566
X301.625Y-127.254
X304.07Y-156.925
X304.165Y-124.714
X306.197Y-184.65
X306.197Y-194.81
X306.61Y-154.385
X306.705Y-127.254
X309.15Y-156.925
X313.817Y-149.86
X318.389Y-143.002
X320.167Y-132.334
X320.167Y-184.404
X320.167Y-194.564
X320.929Y-145.542
X322.707Y-134.874
X323.469Y-143.002
X325.247Y-132.334
X326.517Y-149.86
X327.025Y-144.526
X329.565Y-141.986
X329.565Y-147.066
X329.692Y-156.591
X330.327Y-131.318
X332.105Y-145.034
X332.867Y-128.778
X334.645Y-142.494
X334.645Y-147.574
X335.407Y-131.318
X342.392Y-156.591
X354.457Y-151.384
X355.125Y-135.992
X355.219Y-146.812
X356.997Y-148.844
X359.029Y-106.934
X359.537Y-151.384
X361.569Y-104.394
X364.109Y-106.934
X365.125Y-94.488
X367.665Y-97.028
X367.825Y-135.992
X367.919Y-146.812
X370.205Y-94.488
X381.635Y-184.531
X381.635Y-194.691
X395.605Y-184.531
X395.605Y-194.691
T6
X40.64Y-188.849
X40.64Y-201.549
X42.545Y-165.1
X42.545Y-177.8
X43.18Y-188.849
X43.18Y-201.549
X45.72Y-119.38
X45.72Y-121.92
X45.72Y-124.46
X45.72Y-127.0
X45.72Y-129.54
X45.72Y-132.08
X45.72Y-134.62
X45.72Y-137.16
X45.72Y-142.24
X45.72Y-144.78
X45.72Y-147.32
X45.72Y-149.86
X45.72Y-152.4
X45.72Y-154.94
X45.72Y-157.48
X45.72Y-160.02
X45.72Y-162.56
X45.72Y-165.1
X45.72Y-167.64
X45.72Y-170.18
X45.72Y-172.72
X45.72Y-175.26
X45.72Y-177.8
X45.72Y-180.34
X45.72Y-182.88
X45.72Y-185.42
X45.72Y-187.96
X45.72Y-190.5
X45.72Y-193.04
X45.72Y-195.58
X45.72Y-198.12
X45.72Y-200.66
X58.42Y-119.38
X58.42Y-121.92
X58.42Y-124.46
X58.42Y-127.0
X58.42Y-129.54
X58.42Y-132.08
X58.42Y-134.62
X58.42Y-137.16
X60.96Y-142.24
X60.96Y-144.78
X60.96Y-147.32
X60.96Y-149.86
X60.96Y-152.4
X60.96Y-154.94
X60.96Y-157.48
X60.96Y-160.02
X60.96Y-162.56
X60.96Y-165.1
X60.96Y-167.64
X60.96Y-170.18
X60.96Y-172.72
X60.96Y-175.26
X60.96Y-177.8
X60.96Y-180.34
X60.96Y-182.88
X60.96Y-185.42
X60.96Y-187.96
X60.96Y-190.5
X60.96Y-193.04
X60.96Y-195.58
X60.96Y-198.12
X60.96Y-200.66
X62.484Y-129.54
X62.484Y-131.953
X62.611Y-119.38
X62.611Y-121.92
X62.611Y-124.46
X62.611Y-127.0
X62.611Y-134.62
X62.611Y-137.16
X66.167Y-142.24
X66.167Y-144.78
X66.167Y-147.32
X66.167Y-149.86
X66.167Y-152.4
X66.167Y-154.94
X66.167Y-157.48
X66.167Y-160.02
X66.167Y-162.56
X66.167Y-165.1
X66.167Y-167.64
X66.167Y-170.18
X66.167Y-172.72
X66.167Y-175.26
X66.167Y-177.8
X66.167Y-180.34
X66.167Y-182.88
X66.167Y-185.42
X66.167Y-187.96
X66.167Y-190.5
X67.31Y-203.2
X75.184Y-129.54
X75.184Y-131.953
X75.311Y-119.38
X75.311Y-121.92
X75.311Y-124.46
X75.311Y-127.0
X75.311Y-134.62
X75.311Y-137.16
X80.01Y-203.2
X81.407Y-142.24
X81.407Y-144.78
X81.407Y-147.32
X81.407Y-149.86
X81.407Y-152.4
X81.407Y-154.94
X81.407Y-157.48
X81.407Y-160.02
X81.407Y-162.56
X81.407Y-165.1
X81.407Y-167.64
X81.407Y-170.18
X81.407Y-172.72
X81.407Y-175.26
X81.407Y-177.8
X81.407Y-180.34
X81.407Y-182.88
X81.407Y-185.42
X81.407Y-187.96
X81.407Y-190.5
X81.534Y-119.38
X81.534Y-121.92
X81.534Y-124.46
X81.534Y-127.0
X81.534Y-129.54
X81.534Y-132.08
X81.534Y-134.62
X81.534Y-137.16
X83.82Y-165.735
X83.82Y-178.435
X83.947Y-188.976
X83.947Y-201.676
X84.201Y-142.748
X84.201Y-155.448
X86.487Y-160.02
X86.487Y-162.56
X86.487Y-165.1
X86.487Y-167.64
X86.487Y-170.18
X86.487Y-172.72
X86.487Y-175.26
X86.487Y-177.8
X86.487Y-183.515
X86.487Y-186.055
X86.487Y-188.595
X86.487Y-191.135
X86.487Y-193.675
X86.487Y-196.215
X86.487Y-198.755
X86.487Y-201.295
X86.995Y-142.748
X86.995Y-155.448
X89.154Y-119.38
X89.154Y-121.92
X89.154Y-124.46
X89.154Y-127.0
X89.154Y-129.54
X89.154Y-132.08
X89.154Y-134.62
X89.154Y-137.16
X91.567Y-119.38
X91.567Y-132.08
X94.107Y-160.02
X94.107Y-162.56
X94.107Y-165.1
X94.107Y-167.64
X94.107Y-170.18
X94.107Y-172.72
X94.107Y-175.26
X94.107Y-177.8
X94.107Y-183.515
X94.107Y-186.055
X94.107Y-188.595
X94.107Y-191.135
X94.107Y-193.675
X94.107Y-196.215
X94.107Y-198.755
X94.107Y-201.295
X95.45Y-148.209
X96.647Y-165.1
X96.647Y-177.8
X96.647Y-188.595
X96.647Y-201.295
X99.06Y-124.46
X99.06Y-127.0
X99.06Y-129.54
X99.06Y-132.08
X99.06Y-134.62
X99.06Y-137.16
X99.06Y-139.7
X99.06Y-142.24
X99.187Y-160.02
X99.187Y-162.56
X99.187Y-165.1
X99.187Y-167.64
X99.187Y-170.18
X99.187Y-172.72
X99.187Y-175.26
X99.187Y-177.8
X99.187Y-183.515
X99.187Y-186.055
X99.187Y-188.595
X99.187Y-191.135
X99.187Y-193.675
X99.187Y-196.215
X99.187Y-198.755
X99.187Y-201.295
X100.33Y-148.209
X106.68Y-124.46
X106.68Y-127.0
X106.68Y-129.54
X106.68Y-132.08
X106.68Y-134.62
X106.68Y-137.16
X106.68Y-139.7
X106.68Y-142.24
X106.807Y-160.02
X106.807Y-162.56
X106.807Y-165.1
X106.807Y-167.64
X106.807Y-170.18
X106.807Y-172.72
X106.807Y-175.26
X106.807Y-177.8
X106.807Y-183.515
X106.807Y-186.055
X106.807Y-188.595
X106.807Y-191.135
X106.807Y-193.675
X106.807Y-196.215
X106.807Y-198.755
X106.807Y-201.295
X109.347Y-118.491
X109.347Y-131.191
X109.347Y-165.1
X109.347Y-177.8
X109.347Y-188.595
X109.347Y-201.295
X111.76Y-124.46
X111.76Y-127.0
X111.76Y-129.54
X111.76Y-132.08
X111.76Y-134.62
X111.76Y-137.16
X111.76Y-139.7
X111.76Y-142.24
X111.76Y-144.78
X111.76Y-147.32
X111.887Y-160.02
X111.887Y-162.56
X111.887Y-165.1
X111.887Y-167.64
X111.887Y-170.18
X111.887Y-172.72
X111.887Y-175.26
X111.887Y-177.8
X111.887Y-183.515
X111.887Y-186.055
X111.887Y-188.595
X111.887Y-191.135
X111.887Y-193.675
X111.887Y-196.215
X111.887Y-198.755
X111.887Y-201.295
X119.38Y-124.46
X119.38Y-127.0
X119.38Y-129.54
X119.38Y-132.08
X119.38Y-134.62
X119.38Y-137.16
X119.38Y-139.7
X119.38Y-142.24
X119.38Y-144.78
X119.38Y-147.32
X119.507Y-160.02
X119.507Y-162.56
X119.507Y-165.1
X119.507Y-167.64
X119.507Y-170.18
X119.507Y-172.72
X119.507Y-175.26
X119.507Y-177.8
X119.507Y-183.515
X119.507Y-186.055
X119.507Y-188.595
X119.507Y-191.135
X119.507Y-193.675
X119.507Y-196.215
X119.507Y-198.755
X119.507Y-201.295
X122.047Y-165.1
X122.047Y-177.8
X122.047Y-188.595
X122.047Y-201.295
X124.587Y-160.02
X124.587Y-162.56
X124.587Y-165.1
X124.587Y-167.64
X124.587Y-170.18
X124.587Y-172.72
X124.587Y-175.26
X124.587Y-177.8
X124.587Y-183.515
X124.587Y-186.055
X124.587Y-188.595
X124.587Y-191.135
X124.587Y-193.675
X124.587Y-196.215
X124.587Y-198.755
X124.587Y-201.295
X124.968Y-119.38
X124.968Y-121.92
X124.968Y-124.46
X124.968Y-127.0
X124.968Y-129.54
X124.968Y-132.08
X124.968Y-134.62
X124.968Y-137.16
X124.968Y-139.7
X124.968Y-142.24
X124.968Y-144.78
X124.968Y-147.32
X124.968Y-149.86
X124.968Y-152.4
X132.207Y-160.02
X132.207Y-162.56
X132.207Y-165.1
X132.207Y-167.64
X132.207Y-170.18
X132.207Y-172.72
X132.207Y-175.26
X132.207Y-177.8
X132.207Y-183.515
X132.207Y-186.055
X132.207Y-188.595
X132.207Y-191.135
X132.207Y-193.675
X132.207Y-196.215
X132.207Y-198.755
X132.207Y-201.295
X134.747Y-165.1
X134.747Y-177.8
X134.747Y-188.595
X134.747Y-201.295
X137.287Y-160.02
X137.287Y-162.56
X137.287Y-165.1
X137.287Y-167.64
X137.287Y-170.18
X137.287Y-172.72
X137.287Y-175.26
X137.287Y-177.8
X137.287Y-183.515
X137.287Y-186.055
X137.287Y-188.595
X137.287Y-191.135
X137.287Y-193.675
X137.287Y-196.215
X137.287Y-198.755
X137.287Y-201.295
X140.208Y-119.38
X140.208Y-121.92
X140.208Y-124.46
X140.208Y-127.0
X140.208Y-129.54
X140.208Y-132.08
X140.208Y-134.62
X140.208Y-137.16
X140.208Y-139.7
X140.208Y-142.24
X140.208Y-144.78
X140.208Y-147.32
X140.208Y-149.86
X140.208Y-152.4
X142.621Y-118.11
X142.621Y-130.81
X144.907Y-160.02
X144.907Y-162.56
X144.907Y-165.1
X144.907Y-167.64
X144.907Y-170.18
X144.907Y-172.72
X144.907Y-175.26
X144.907Y-177.8
X144.907Y-183.515
X144.907Y-186.055
X144.907Y-188.595
X144.907Y-191.135
X144.907Y-193.675
X144.907Y-196.215
X144.907Y-198.755
X144.907Y-201.295
X147.447Y-165.1
X147.447Y-177.8
X147.447Y-188.595
X147.447Y-201.295
X149.987Y-160.02
X149.987Y-162.56
X149.987Y-165.1
X149.987Y-167.64
X149.987Y-170.18
X149.987Y-172.72
X149.987Y-175.26
X149.987Y-177.8
X149.987Y-183.515
X149.987Y-186.055
X149.987Y-188.595
X149.987Y-191.135
X149.987Y-193.675
X149.987Y-196.215
X149.987Y-198.755
X149.987Y-201.295
X150.495Y-119.38
X150.495Y-121.92
X150.495Y-124.46
X150.495Y-127.0
X150.495Y-129.54
X150.495Y-132.08
X150.495Y-134.62
X150.495Y-137.16
X150.495Y-139.7
X150.495Y-142.24
X150.495Y-144.78
X150.495Y-147.32
X150.495Y-149.86
X150.495Y-152.4
X157.48Y-109.22
X157.607Y-160.02
X157.607Y-162.56
X157.607Y-165.1
X157.607Y-167.64
X157.607Y-170.18
X157.607Y-172.72
X157.607Y-175.26
X157.607Y-177.8
X157.607Y-183.515
X157.607Y-186.055
X157.607Y-188.595
X157.607Y-191.135
X157.607Y-193.675
X157.607Y-196.215
X157.607Y-198.755
X157.607Y-201.295
X160.147Y-165.1
X160.147Y-177.8
X160.147Y-188.595
X160.147Y-201.295
X162.687Y-160.02
X162.687Y-162.56
X162.687Y-165.1
X162.687Y-167.64
X162.687Y-170.18
X162.687Y-172.72
X162.687Y-175.26
X162.687Y-177.8
X162.687Y-183.515
X162.687Y-186.055
X162.687Y-188.595
X162.687Y-191.135
X162.687Y-193.675
X162.687Y-196.215
X162.687Y-198.755
X162.687Y-201.295
X165.735Y-119.38
X165.735Y-121.92
X165.735Y-124.46
X165.735Y-127.0
X165.735Y-129.54
X165.735Y-132.08
X165.735Y-134.62
X165.735Y-137.16
X165.735Y-139.7
X165.735Y-142.24
X165.735Y-144.78
X165.735Y-147.32
X165.735Y-149.86
X165.735Y-152.4
X168.275Y-118.364
X168.275Y-131.064
X168.783Y-134.62
X168.783Y-137.16
X168.783Y-139.7
X168.783Y-142.24
X168.783Y-144.78
X168.783Y-147.32
X168.783Y-149.86
X168.783Y-152.4
X168.91Y-154.94
X170.18Y-109.22
X170.307Y-160.02
X170.307Y-162.56
X170.307Y-165.1
X170.307Y-167.64
X170.307Y-170.18
X170.307Y-172.72
X170.307Y-175.26
X170.307Y-177.8
X170.307Y-183.515
X170.307Y-186.055
X170.307Y-188.595
X170.307Y-191.135
X170.307Y-193.675
X170.307Y-196.215
X170.307Y-198.755
X170.307Y-201.295
X171.45Y-114.3
X171.45Y-116.84
X171.45Y-119.38
X171.45Y-121.92
X171.45Y-124.46
X171.45Y-127.0
X171.45Y-129.54
X172.847Y-188.595
X172.847Y-201.295
X175.387Y-183.515
X175.387Y-186.055
X175.387Y-188.595
X175.387Y-191.135
X175.387Y-193.675
X175.387Y-196.215
X175.387Y-198.755
X175.387Y-201.295
X176.911Y-177.419
X176.911Y-179.959
X179.07Y-114.3
X179.07Y-116.84
X179.07Y-119.38
X179.07Y-121.92
X179.07Y-124.46
X179.07Y-127.0
X179.07Y-129.54
X181.483Y-134.62
X181.483Y-137.16
X181.483Y-139.7
X181.483Y-142.24
X181.483Y-144.78
X181.483Y-147.32
X181.483Y-149.86
X181.483Y-152.4
X181.61Y-118.745
X181.61Y-131.445
X181.61Y-154.94
X183.007Y-183.515
X183.007Y-186.055
X183.007Y-188.595
X183.007Y-191.135
X183.007Y-193.675
X183.007Y-196.215
X183.007Y-198.755
X183.007Y-201.295
X184.15Y-114.3
X184.15Y-116.84
X184.15Y-119.38
X184.15Y-121.92
X184.15Y-124.46
X184.15Y-127.0
X184.15Y-129.54
X184.15Y-134.62
X184.15Y-137.16
X184.15Y-139.7
X184.15Y-142.24
X184.15Y-144.78
X184.15Y-147.32
X184.15Y-149.86
X185.42Y-188.595
X185.42Y-201.295
X187.833Y-183.515
X187.833Y-186.055
X187.833Y-188.595
X187.833Y-191.135
X187.833Y-193.675
X187.833Y-196.215
X187.833Y-198.755
X187.833Y-201.295
X189.611Y-177.419
X189.611Y-179.959
X191.77Y-114.3
X191.77Y-116.84
X191.77Y-119.38
X191.77Y-121.92
X191.77Y-124.46
X191.77Y-127.0
X191.77Y-129.54
X191.77Y-134.62
X191.77Y-137.16
X191.77Y-139.7
X191.77Y-142.24
X191.77Y-144.78
X191.77Y-147.32
X191.77Y-149.86
X194.564Y-143.637
X194.564Y-156.337
X195.453Y-183.515
X195.453Y-186.055
X195.453Y-188.595
X195.453Y-191.135
X195.453Y-193.675
X195.453Y-196.215
X195.453Y-198.755
X195.453Y-201.295
X196.977Y-111.76
X196.977Y-114.3
X196.977Y-116.84
X196.977Y-119.38
X196.977Y-121.92
X196.977Y-124.46
X196.977Y-127.0
X196.977Y-129.54
X196.977Y-132.08
X196.977Y-134.62
X196.977Y-137.16
X196.977Y-139.7
X196.977Y-142.24
X196.977Y-144.78
X196.977Y-147.32
X196.977Y-149.86
X196.977Y-152.4
X196.977Y-154.94
X196.977Y-157.48
X196.977Y-160.02
X198.755Y-174.879
X198.755Y-177.419
X198.755Y-179.959
X198.755Y-182.499
X198.755Y-185.039
X211.455Y-174.879
X211.455Y-177.419
X211.455Y-179.959
X211.455Y-182.499
X211.455Y-185.039
X212.217Y-111.76
X212.217Y-114.3
X212.217Y-116.84
X212.217Y-119.38
X212.217Y-121.92
X212.217Y-124.46
X212.217Y-127.0
X212.217Y-129.54
X212.217Y-132.08
X212.217Y-134.62
X212.217Y-137.16
X212.217Y-139.7
X212.217Y-142.24
X212.217Y-144.78
X212.217Y-147.32
X212.217Y-149.86
X212.217Y-152.4
X212.217Y-154.94
X212.217Y-157.48
X212.217Y-160.02
X214.503Y-111.76
X214.503Y-124.46
X214.757Y-174.879
X214.757Y-177.546
X214.757Y-187.579
X214.757Y-190.119
X214.757Y-192.659
X214.757Y-195.199
X214.757Y-197.739
X214.757Y-200.279
X214.757Y-202.819
X217.145Y-111.811
X217.145Y-124.511
X218.567Y-152.273
X218.567Y-157.153
X219.583Y-95.377
X219.583Y-108.077
X219.634Y-111.811
X219.634Y-124.511
X220.218Y-128.651
X220.218Y-131.191
X220.218Y-133.731
X220.345Y-136.144
X220.345Y-138.938
X222.25Y-99.568
X222.377Y-96.647
X223.012Y-144.78
X223.012Y-147.32
X223.012Y-149.86
X223.012Y-152.4
X223.012Y-154.94
X223.012Y-157.48
X223.012Y-160.02
X227.457Y-174.879
X227.457Y-177.546
X227.457Y-187.579
X227.457Y-190.119
X227.457Y-192.659
X227.457Y-195.199
X227.457Y-197.739
X227.457Y-200.279
X227.457Y-202.819
X230.632Y-144.78
X230.632Y-147.32
X230.632Y-149.86
X230.632Y-152.4
X230.632Y-154.94
X230.632Y-157.48
X230.632Y-160.02
X232.918Y-128.651
X232.918Y-131.191
X232.918Y-133.731
X233.045Y-136.144
X233.045Y-138.938
X233.045Y-144.78
X233.045Y-157.48
X234.95Y-99.568
X235.077Y-96.647
X237.617Y-97.536
X237.617Y-155.194
X237.617Y-157.734
X237.617Y-160.274
X237.617Y-162.814
X237.617Y-165.354
X237.617Y-167.894
X237.617Y-170.434
X237.617Y-172.974
X237.617Y-175.514
X237.617Y-178.054
X237.617Y-180.594
X237.617Y-183.134
X237.617Y-185.674
X237.617Y-188.214
X237.617Y-190.754
X237.617Y-193.294
X237.617Y-195.834
X237.617Y-198.374
X237.617Y-200.914
X237.617Y-203.454
X237.744Y-94.996
X239.395Y-151.384
X243.967Y-146.304
X243.967Y-148.844
X247.777Y-100.076
X247.777Y-108.966
X247.777Y-119.126
X249.174Y-125.095
X250.317Y-97.536
X250.444Y-94.996
X252.095Y-151.384
X252.857Y-155.194
X252.857Y-157.734
X252.857Y-160.274
X252.857Y-162.814
X252.857Y-165.354
X252.857Y-167.894
X252.857Y-170.434
X252.857Y-172.974
X252.857Y-175.514
X252.857Y-178.054
X252.857Y-180.594
X252.857Y-183.134
X252.857Y-185.674
X252.857Y-188.214
X252.857Y-190.754
X252.857Y-193.294
X252.857Y-195.834
X252.857Y-198.374
X252.857Y-200.914
X252.857Y-203.454
X255.397Y-155.194
X256.667Y-146.304
X256.667Y-148.844
X259.715Y-128.524
X259.715Y-131.064
X259.715Y-133.604
X259.715Y-136.144
X259.715Y-138.684
X259.715Y-141.224
X259.715Y-143.764
X259.715Y-146.304
X259.715Y-148.844
X259.715Y-151.384
X260.477Y-184.658
X261.747Y-166.624
X261.747Y-181.864
X261.874Y-125.095
X264.287Y-166.624
X264.287Y-181.864
X266.827Y-166.624
X266.827Y-181.864
X267.335Y-128.524
X267.335Y-131.064
X267.335Y-133.604
X267.335Y-136.144
X267.335Y-138.684
X267.335Y-141.224
X267.335Y-143.764
X267.335Y-146.304
X267.335Y-148.844
X267.335Y-151.384
X268.097Y-155.194
X269.367Y-166.624
X269.367Y-181.864
X270.625Y-154.175
X270.637Y-124.714
X270.637Y-127.254
X270.637Y-129.674
X270.637Y-132.214
X270.637Y-134.874
X270.637Y-137.414
X270.637Y-143.764
X270.637Y-146.304
X270.637Y-148.844
X270.637Y-151.384
X270.637Y-156.718
X271.907Y-166.624
X271.907Y-181.864
X272.48Y-193.802
X273.177Y-184.658
X274.447Y-166.624
X274.447Y-181.864
X274.647Y-140.716
X276.987Y-166.624
X276.987Y-181.864
X279.527Y-140.716
X279.527Y-166.624
X279.527Y-181.864
X282.067Y-166.624
X282.067Y-181.864
X283.325Y-154.175
X283.337Y-124.714
X283.337Y-127.254
X283.337Y-129.674
X283.337Y-132.214
X283.337Y-134.874
X283.337Y-137.414
X283.337Y-143.764
X283.337Y-146.304
X283.337Y-148.844
X283.337Y-151.384
X283.337Y-156.718
X284.607Y-166.624
X284.607Y-181.864
X285.434Y-193.802
X286.385Y-125.984
X286.385Y-128.524
X286.385Y-131.064
X286.385Y-133.604
X286.385Y-136.144
X286.385Y-138.684
X286.385Y-141.224
X286.385Y-143.764
X286.385Y-146.355
X287.147Y-166.624
X287.147Y-181.864
X288.417Y-154.432
X288.417Y-156.972
X289.687Y-166.624
X289.687Y-181.864
X289.687Y-184.658
X293.497Y-167.386
X293.497Y-169.672
X293.497Y-178.308
X296.672Y-172.466
X297.561Y-112.77
X297.585Y-110.23
X297.585Y-115.31
X297.585Y-117.85
X297.585Y-120.39
X297.585Y-122.93
X299.085Y-125.984
X299.085Y-128.524
X299.085Y-131.064
X299.085Y-133.604
X299.085Y-136.144
X299.085Y-138.684
X299.085Y-141.224
X299.085Y-143.764
X299.085Y-146.355
X301.117Y-154.432
X301.117Y-156.972
X302.387Y-133.706
X302.641Y-184.658
X306.197Y-167.386
X306.197Y-169.672
X306.197Y-178.308
X308.269Y-138.684
X309.372Y-172.466
X310.007Y-184.404
X310.007Y-194.564
X310.261Y-112.77
X310.285Y-110.23
X310.285Y-115.31
X310.285Y-117.85
X310.285Y-120.39
X310.285Y-122.93
X310.769Y-138.684
X312.039Y-167.386
X312.039Y-180.086
X312.547Y-184.404
X312.547Y-194.564
X313.436Y-154.432
X313.715Y-147.015
X314.579Y-167.386
X314.579Y-180.086
X315.087Y-133.706
X315.087Y-184.404
X315.087Y-194.564
X316.397Y-138.176
X316.865Y-127.762
X316.865Y-130.262
X317.119Y-167.386
X317.119Y-180.086
X317.627Y-184.404
X317.627Y-194.564
X318.897Y-138.176
X319.659Y-167.386
X319.659Y-180.086
X322.707Y-191.262
X322.707Y-193.262
X322.707Y-195.262
X323.215Y-93.472
X323.215Y-106.045
X326.136Y-154.432
X326.415Y-147.015
X335.915Y-184.785
X337.185Y-166.751
X337.185Y-181.991
X338.963Y-115.57
X338.963Y-118.364
X339.217Y-136.144
X339.217Y-138.684
X339.344Y-133.604
X339.725Y-166.751
X339.725Y-181.991
X342.265Y-166.751
X342.265Y-181.991
X344.805Y-94.488
X344.805Y-107.061
X344.805Y-166.751
X344.805Y-181.991
X345.567Y-156.591
X347.345Y-166.751
X347.345Y-181.991
X347.98Y-193.929
X348.107Y-94.488
X348.107Y-107.188
X348.615Y-184.785
X349.885Y-166.751
X349.885Y-181.991
X351.663Y-115.57
X351.663Y-118.364
X351.917Y-136.144
X351.917Y-138.684
X352.044Y-133.604
X352.425Y-166.751
X352.425Y-181.991
X354.965Y-166.751
X354.965Y-181.991
X355.168Y-133.553
X355.219Y-138.684
X355.219Y-141.224
X355.219Y-144.018
X356.235Y-105.156
X356.235Y-117.856
X356.402Y-129.286
X357.149Y-124.562
X357.505Y-166.751
X357.505Y-181.991
X358.267Y-156.591
X358.902Y-129.286
X360.045Y-166.751
X360.045Y-181.991
X360.934Y-193.929
X361.467Y-156.312
X362.585Y-166.751
X362.585Y-181.991
X364.49Y-128.208
X364.49Y-130.708
X365.125Y-166.751
X365.125Y-181.991
X365.125Y-184.785
X367.868Y-133.553
X367.919Y-138.684
X367.919Y-141.224
X367.919Y-144.018
X368.935Y-167.513
X368.935Y-169.799
X368.935Y-178.435
X369.849Y-124.562
X372.11Y-172.593
X373.166Y-121.793
X373.42Y-127.889
X374.167Y-156.312
X375.031Y-105.664
X375.666Y-121.793
X375.92Y-127.889
X378.079Y-184.785
X381.635Y-167.513
X381.635Y-169.799
X381.635Y-178.435
X384.81Y-172.593
X385.445Y-184.531
X385.445Y-194.691
X387.477Y-167.513
X387.477Y-180.213
X387.731Y-105.664
X387.985Y-184.531
X387.985Y-194.691
X389.89Y-167.513
X389.89Y-180.213
X390.525Y-184.531
X390.525Y-194.691
X392.303Y-167.513
X392.303Y-180.213
X393.065Y-184.531
X393.065Y-194.691
X395.097Y-167.513
X395.097Y-180.213
X398.145Y-191.453
X398.145Y-193.453
X398.145Y-195.453
T7
X296.545Y-92.964
X296.545Y-107.95
X354.697Y-121.92
X369.697Y-121.92
T8
X194.31Y-134.62
X194.437Y-137.16
T9
X28.575Y-118.11
X28.575Y-120.65
X28.575Y-123.19
X28.575Y-125.73
X28.575Y-128.27
X28.575Y-130.81
X28.575Y-133.35
X28.575Y-135.89
X28.575Y-138.43
X28.575Y-140.97
X28.575Y-143.51
X28.575Y-146.05
X28.575Y-148.59
X28.575Y-151.13
X28.575Y-153.67
X28.575Y-156.21
X28.575Y-158.75
X28.575Y-161.29
X28.575Y-163.83
X28.575Y-166.37
X28.575Y-168.91
X28.575Y-171.45
X28.575Y-173.99
X28.575Y-176.53
X28.575Y-179.07
X28.575Y-181.61
X28.575Y-184.15
X28.575Y-186.69
X28.575Y-189.23
X28.575Y-191.77
X28.575Y-194.31
X28.575Y-196.85
X31.115Y-118.11
X31.115Y-120.65
X31.115Y-123.19
X31.115Y-125.73
X31.115Y-128.27
X31.115Y-130.81
X31.115Y-133.35
X31.115Y-135.89
X31.115Y-138.43
X31.115Y-140.97
X31.115Y-143.51
X31.115Y-146.05
X31.115Y-148.59
X31.115Y-151.13
X31.115Y-153.67
X31.115Y-156.21
X31.115Y-158.75
X31.115Y-161.29
X31.115Y-163.83
X31.115Y-166.37
X31.115Y-168.91
X31.115Y-171.45
X31.115Y-173.99
X31.115Y-176.53
X31.115Y-179.07
X31.115Y-181.61
X31.115Y-184.15
X31.115Y-186.69
X31.115Y-189.23
X31.115Y-191.77
X31.115Y-194.31
X31.115Y-196.85
X50.165Y-112.305
X50.165Y-114.845
X52.705Y-112.305
X52.705Y-114.845
X55.245Y-112.305
X55.245Y-114.845
X57.785Y-112.305
X57.785Y-114.845
X60.325Y-112.305
X60.325Y-114.845
X62.865Y-112.305
X62.865Y-114.845
X65.405Y-112.305
X65.405Y-114.845
X67.945Y-112.305
X67.945Y-114.845
X70.485Y-112.305
X70.485Y-114.845
X75.565Y-112.305
X75.565Y-114.845
X78.105Y-112.305
X78.105Y-114.845
X80.645Y-112.305
X80.645Y-114.845
X83.185Y-112.305
X83.185Y-114.845
X85.725Y-112.305
X85.725Y-114.845
X114.173Y-101.6
X115.697Y-97.79
X117.221Y-101.6
X118.745Y-97.79
X120.269Y-101.6
X121.793Y-97.79
X141.351Y-101.6
X142.875Y-97.79
X144.399Y-101.6
X145.923Y-97.79
X147.447Y-101.6
X148.971Y-97.79
X165.989Y-101.6
X167.513Y-97.79
X169.037Y-101.6
X170.561Y-97.79
X172.085Y-101.6
X173.355Y-109.22
X173.609Y-97.79
X177.292Y-167.58
X177.292Y-170.12
X179.832Y-167.58
X179.832Y-170.12
X182.245Y-158.496
X182.372Y-167.58
X182.372Y-170.12
X184.912Y-167.58
X184.912Y-170.12
X187.325Y-153.543
X187.452Y-167.58
X187.452Y-170.12
X189.992Y-167.58
X189.992Y-170.12
X192.532Y-158.496
X192.532Y-167.58
X192.532Y-170.12
X192.913Y-101.6
X193.675Y-109.22
X194.437Y-97.79
X195.072Y-167.58
X195.072Y-170.12
X195.961Y-101.6
X197.485Y-97.79
X197.612Y-167.58
X197.612Y-170.12
X199.009Y-101.6
X200.533Y-97.79
X206.375Y-167.64
X206.375Y-170.18
X208.915Y-167.64
X208.915Y-170.18
X211.455Y-167.64
X211.455Y-170.18
X213.995Y-167.64
X213.995Y-170.18
X216.535Y-167.64
X216.535Y-170.18
X219.075Y-167.64
X219.075Y-170.18
X221.615Y-167.64
X221.615Y-170.18
X224.155Y-167.64
X224.155Y-170.18
X226.695Y-167.64
X226.695Y-170.18
X229.235Y-167.64
X229.235Y-170.18
X229.743Y-109.982
X229.743Y-112.522
X229.743Y-115.316
X229.743Y-117.856
X229.743Y-120.523
X229.743Y-123.063
X231.775Y-167.64
X231.775Y-170.18
X236.398Y-108.814
X236.398Y-129.134
X236.398Y-141.986
X236.474Y-135.947
X243.459Y-108.839
X243.459Y-129.159
X247.757Y-127.787
X250.297Y-127.787
X256.718Y-141.986
X256.794Y-135.947
X276.225Y-184.404
X286.225Y-184.404
X291.211Y-148.844
X291.211Y-151.384
X293.497Y-175.006
X293.497Y-181.356
X293.751Y-148.844
X293.751Y-151.384
X296.037Y-175.006
X296.037Y-181.356
X296.291Y-148.844
X296.291Y-151.384
X298.577Y-175.006
X298.577Y-181.356
X298.831Y-148.844
X298.831Y-151.384
X301.117Y-175.006
X301.117Y-181.356
X301.371Y-148.844
X301.371Y-151.384
X303.055Y-106.666
X303.102Y-101.459
X303.657Y-175.006
X303.657Y-181.356
X303.911Y-148.844
X303.911Y-151.384
X305.388Y-103.999
X306.197Y-175.006
X306.197Y-181.356
X306.451Y-148.844
X306.451Y-151.384
X308.055Y-93.585
X308.737Y-175.006
X308.737Y-181.356
X309.245Y-167.335
X309.245Y-169.875
X310.555Y-106.666
X310.595Y-101.459
X313.055Y-93.585
X315.548Y-103.999
X317.961Y-101.459
X318.055Y-106.666
X326.568Y-104.445
X326.568Y-129.845
X331.089Y-94.57
X333.629Y-94.57
X334.645Y-122.428
X334.645Y-124.968
X336.169Y-94.57
X341.503Y-148.336
X346.503Y-148.336
X351.696Y-184.531
X361.696Y-184.531
X363.855Y-148.844
X363.855Y-151.384
X366.395Y-148.844
X366.395Y-151.384
X368.935Y-148.844
X368.935Y-151.384
X368.935Y-175.006
X368.935Y-181.483
X371.475Y-148.844
X371.475Y-151.384
X371.475Y-175.006
X371.475Y-181.483
X374.015Y-148.844
X374.015Y-151.384
X374.015Y-175.006
X374.015Y-181.483
X376.555Y-148.844
X376.555Y-151.384
X376.555Y-175.006
X376.555Y-181.483
X379.095Y-148.844
X379.095Y-151.384
X379.095Y-175.006
X379.095Y-181.483
X381.635Y-175.006
X381.635Y-181.483
X384.175Y-175.006
X384.175Y-181.483
X384.683Y-167.488
X384.683Y-170.028
T10
X276.225Y-190.683
X278.765Y-190.683
X281.305Y-190.683
X340.741Y-112.014
X343.281Y-112.014
X345.821Y-112.014
X351.663Y-190.81
X354.203Y-190.81
X356.743Y-190.81
T11
X254.127Y-108.966
X290.449Y-191.516
X290.449Y-191.516
X290.449Y-194.056
X290.449Y-194.056
X291.719Y-192.786
X291.719Y-192.786
X291.719Y-195.199
X291.719Y-195.199
X293.497Y-108.966
X297.053Y-192.024
X297.053Y-195.326
X366.141Y-192.024
X366.141Y-192.024
X366.141Y-194.564
X366.141Y-194.564
X367.411Y-193.294
X367.411Y-193.294
X367.411Y-195.707
X367.411Y-195.707
X372.491Y-192.024
X372.491Y-195.326
T12
X363.855Y-110.744
X363.855Y-116.84
X367.665Y-110.744
X367.665Y-116.84
X371.475Y-110.744
X371.475Y-116.84
T13
X351.703Y-96.092
X351.703Y-100.283
X361.355Y-100.283
X377.571Y-96.092
X377.571Y-100.283
X387.223Y-100.283
M30
